<svg xmlns="http://www.w3.org/2000/svg" viewBox="0 0 620 330" role="img" aria-label="">
  <defs>
    <pattern id="dots" width="10" height="10" patternUnits="userSpaceOnUse">
      <circle cx="2" cy="2" r="1.4" fill="#bfff24" opacity=".62"/>
    </pattern>
    <filter id="glow" x="-30%" y="-30%" width="160%" height="160%">
      <feGaussianBlur stdDeviation="5" result="blur"/>
      <feMerge>
        <feMergeNode in="blur"/>
        <feMergeNode in="SourceGraphic"/>
      </feMerge>
    </filter>
  </defs>
  <rect width="620" height="330" fill="none"/>
  <g opacity=".85">
    <path d="M69 122c38-31 82-49 132-54 60-6 101 18 134 40 27 18 59 13 94 4 44-11 82 1 121 31 26 21 37 47 31 78-5 26-26 45-62 57-52 17-97-5-138-26-42-22-85-22-130 0-55 26-109 20-158-18-42-32-50-75-24-112Z" fill="url(#dots)"/>
    <path d="M102 95c26-26 68-40 126-43 54-3 101 9 142 35 28 18 57 21 87 8 41-18 78-5 111 39" fill="none" stroke="#bfff24" stroke-opacity=".25" stroke-width="2"/>
    <path d="M82 232c58 23 116 21 174-8 42-21 83-19 123 5 52 31 105 33 160 5" fill="none" stroke="#bfff24" stroke-opacity=".25" stroke-width="2"/>
  </g>
  <g filter="url(#glow)">
    <circle cx="142" cy="198" r="7" fill="#caff31"/>
    <circle cx="278" cy="94" r="8" fill="#caff31"/>
    <circle cx="388" cy="180" r="9" fill="#caff31"/>
    <circle cx="509" cy="121" r="8" fill="#caff31"/>
    <circle cx="468" cy="250" r="7" fill="#caff31"/>
    <path d="M142 198 278 94 388 180 509 121M388 180l80 70" fill="none" stroke="#caff31" stroke-opacity=".46" stroke-width="2"/>
  </g>
</svg>
