<svg xmlns="http://www.w3.org/2000/svg" viewBox="0 0 1200 400">
  <rect width="1200" height="400" fill="#010101"/>
  <g opacity=".22" stroke="#3cff9f" stroke-width="1">
    <line x1="360" y1="24" x2="840" y2="24"/>
    <line x1="320" y1="84" x2="880" y2="84"/>
    <line x1="278" y1="140" x2="922" y2="140"/>
    <line x1="236" y1="196" x2="964" y2="196"/>
    <line x1="506" y1="6" x2="506" y2="208"/>
    <line x1="600" y1="6" x2="600" y2="208"/>
    <line x1="694" y1="6" x2="694" y2="208"/>
  </g>
  <g opacity=".32" stroke="#2ee18d" stroke-width="1.5" fill="none">
    <path d="M420 116h360l58 70H362z"/>
    <path d="M280 184h236l42 132H300z"/>
    <path d="M684 184h236l-20 132H642z"/>
    <path d="M452 78h296l90 106H362z"/>
  </g>
  <line x1="36" y1="358" x2="1164" y2="358" stroke="#1d251f" stroke-width="2"/>

  <g>
    <path d="M452 78h296l72 110H380z" fill="#0a0d10"/>
    <path d="M362 184h160l26 132H292z" fill="#090b0f"/>
    <path d="M678 184h160l-18 132H652z" fill="#090b0f"/>
    <path d="M522 116h198l0 200H480z" fill="#07090d"/>
    <path d="M452 78h296l72 110H380z" fill="none" stroke="#2dd989" stroke-width="2"/>
    <path d="M362 184h160l26 132H292z" fill="none" stroke="#1d232a" stroke-width="1.5"/>
    <path d="M678 184h160l-18 132H652z" fill="none" stroke="#1d232a" stroke-width="1.5"/>
    <path d="M522 116h198v200H480z" fill="none" stroke="#2dd989" stroke-width="2"/>
  </g>

  <image href="/leaderboard/podium-avatar-hat.svg" x="318" y="94" width="92" height="92"/>
  <image href="/leaderboard/podium-avatar-knight.svg" x="548" y="24" width="106" height="106"/>
  <image href="/leaderboard/podium-avatar-zombie.svg" x="772" y="104" width="92" height="92"/>

  <g font-family="'Courier New', monospace" text-anchor="middle">
    <g transform="translate(600 156)">
      <text y="0" fill="#35ef97" font-size="18" font-weight="700">[1] marion_stiedemann</text>
      <circle cx="-46" cy="34" r="8" fill="#43a6ff"/>
      <circle cx="-46" cy="34" r="4.5" fill="#90deff"/>
      <text x="-46" y="38" fill="#08203b" font-size="8" font-weight="700">$</text>
      <text x="14" y="42" fill="#f1f5fb" font-size="28" font-weight="700">1,671.57</text>
      <text y="72" fill="#8d9198" font-size="16" letter-spacing="1">VOLUME</text>
    </g>

    <g transform="translate(410 218)">
      <text y="0" fill="#f1f5fb" font-size="18" font-weight="700">[2] shannon_kautzer</text>
      <circle cx="-34" cy="34" r="8" fill="#43a6ff"/>
      <circle cx="-34" cy="34" r="4.5" fill="#90deff"/>
      <text x="-34" y="38" fill="#08203b" font-size="8" font-weight="700">$</text>
      <text x="26" y="42" fill="#f1f5fb" font-size="28" font-weight="700">1,671.57</text>
      <text y="72" fill="#8d9198" font-size="16" letter-spacing="1">VOLUME</text>
    </g>

    <g transform="translate(792 226)">
      <text y="0" fill="#f1f5fb" font-size="18" font-weight="700">[3] billy_mraz</text>
      <circle cx="-18" cy="34" r="8" fill="#43a6ff"/>
      <circle cx="-18" cy="34" r="4.5" fill="#90deff"/>
      <text x="-18" y="38" fill="#08203b" font-size="8" font-weight="700">$</text>
      <text x="42" y="42" fill="#f1f5fb" font-size="28" font-weight="700">1,671.57</text>
      <text y="72" fill="#8d9198" font-size="16" letter-spacing="1">VOLUME</text>
    </g>
  </g>
</svg>
