<svg width="40" height="40" viewBox="0 0 40 40" fill="none" xmlns="http://www.w3.org/2000/svg">
  <defs>
    <linearGradient id="g" x1="9" y1="9" x2="31" y2="31" gradientUnits="userSpaceOnUse">
      <stop stop-color="#2EA7FF" />
      <stop offset="0.55" stop-color="#35E8FF" />
      <stop offset="1" stop-color="#00CFC8" />
    </linearGradient>
  </defs>
  <g stroke="url(#g)" stroke-width="2.2" stroke-linecap="round" stroke-linejoin="round">
    <path d="M20 8.5L22.4 10L25.2 9.2L26.5 11.8L29.4 12.2L29.3 15.1L31.5 17L30 19.6L31.5 22.2L29.3 24.1L29.4 27L26.5 27.4L25.2 30L22.4 29.2L20 30.7L17.6 29.2L14.8 30L13.5 27.4L10.6 27L10.7 24.1L8.5 22.2L10 19.6L8.5 17L10.7 15.1L10.6 12.2L13.5 11.8L14.8 9.2L17.6 10L20 8.5Z" />
    <circle cx="20" cy="19.6" r="4.8" />
  </g>
</svg>
