<?xml version="1.0" encoding="UTF-8"?>
<svg version="1.1" viewBox="0 0 1600 350" width="2790" height="612" xmlns="http://www.w3.org/2000/svg">
<path transform="translate(1158,125)" d="m0 0h43l5 8 10 19 9 16 6 12 3-3 13-25 9-15 6-11 1-1h40l4 2 1 63v43l-2 3h-39l-1-2-1-26-9 15-7 12-1 1h-34l-12-22-3-5-1 24-2 3h-39l-1-1v-108z" fill="#00CFF6"/>
<path transform="translate(1324,125)" d="m0 0h123l1 1v37l-2 2-8 1h-74l2 3 58 1 6 3v14l-1 3-61 1-8 1 67 1 19 1 2 2v39l-1 1h-124l-2-3v-105z" fill="#00CFF6"/>
<path transform="translate(705,125)" d="m0 0h77l9 3 9 8 4 9 2 8v10l-2 2-15 1-73 1v1l13 1 44 1 11 3 8 4 7 6 6 12 1 4v12l-4 11-8 9-8 4-3 1h-84l-10-5-6-7-3-9v-18l2-3 13-1h76v-2l-64-1-12-5-6-4-5-6-3-8-1-13 3-13 6-8 10-6z" fill="#00F0E1"/>
<path transform="translate(1463,125)" d="m0 0h97l9 2 9 6 6 8 3 10v10l-2 10-4 8-7 7-9 4-13 2 9 2 7 7 19 29-1 5-1 1h-45l-8-8-7-9-5-2h-17v11l-1 7-1 1h-39l-2-4v-56l2-4 2-1 65-1 21-1 7-1 1-2h-91l-6-2-1-3v-32l1-3z" fill="#00CEF6"/>
<path transform="translate(182,18)" d="m0 0 29 1 16 3 18 6 19 9 16 10 13 11 10 9 9 11 10 13 9 16 9 21 5 17 2 11v25l-1 1h-45l-6-29-6-18-10-19-8-10-11-12-11-9-15-9-14-7-20-6-18-2-3-1v-40z" fill="#10F9CF"/>
<path transform="translate(824,125)" d="m0 0h40l1 1 1 17h2l10-9 9-8 2-1h53l2 1v5l-7 7-11 9-13 12-8 7-12 11-4 3 2 4 13 11 11 9 15 13 14 11 1 1v5l-2 2h-59l-12-9 1 4-3 5h-47l-1-2v-107z" fill="#00F1E0"/>
<path transform="translate(588,125)" d="m0 0h21l2 2 2 12 13 23 9 17 13 23 15 27 1 5-2 2h-45l-4-5-10-18-9-14h-2l-12 22-8 13-2 2h-44l-2-2 1-5 14-24 13-21 17-29 13-22z" fill="#00F1E0"/>
<path transform="translate(426,125)" d="m0 0h119l1 1v37l-1 1h-40v71l-1 1h-41l-1-1v-71l-11 1-26-1-2-5v-21l1-12z" fill="#00EEE1"/>
<path transform="translate(961,125)" d="m0 0h120l2 2v35l-1 2-31 1h-7l-1 70-2 1h-39l-2-2v-70h-38l-2-4v-24z" fill="#00CFF6"/>
<path transform="translate(164,104)" d="m0 0h25l4 2v59h47l1 1 1 43-3 3h-67l-9-4-8-7-4-5-3-8v-82l1-1z" fill="#0FF8CF"/>
<path transform="translate(1324,125)" d="m0 0h123l1 1v37l-2 2-8 1h-74l2 3 58 1 6 3v14l-1 3-61 1-8 1 67 1 19 1 2 2v39l-1 1h-124l-2-3v-105zm1 3-1 37v67l34 1h31l56-1v-34h-97v12h83v10h-93l1-79 92-1v10h-83v37h78v-12l-65-1-1-13h85v-33z" fill="#041419"/>
<path transform="translate(705,125)" d="m0 0h77l9 3 9 8 4 9 2 8v10l-2 2-15 1-73 1v1l13 1 44 1 11 3 8 4 7 6 6 12 1 4v12l-4 11-8 9-8 4-3 1h-84l-10-5-6-7-3-9v-18l2-3 13-1h76v-2l-64-1-12-5-6-4-5-6-3-8-1-13 3-13 6-8 10-6zm3 3-9 3-6 4-6 7-3 10v11l4 11 4 5 10 5 11 2 60 1 8 3 3 1 2 5 1 3v10l-3 6-4 3-3 1h-73l-6-4-2-5h79l3-3v-6l-3-3h-91v18l4 8 7 6 5 2h83l8-3 7-8 4-10v-13l-3-8-6-8-8-5-6-2-65-2-8-2-6-5-2-7 1-9 4-6 7-3h70l5 5 1 4h-75l-5 3 1 5 3 3h92v-9l-3-10-6-8-7-4-10-2z" fill="#041114"/>
<path transform="translate(1463,125)" d="m0 0h97l9 2 9 6 6 8 3 10v10l-2 10-4 8-7 7-9 4-13 2 9 2 7 7 19 29-1 5-1 1h-45l-8-8-7-9-5-2h-17v11l-1 7-1 1h-39l-2-4v-56l2-4 2-1 65-1 21-1 7-1 1-2h-91l-6-2-1-3v-32l1-3zm1 3v33l15 1h79l2-2v-7l-2-2-4-1-76-1-1-9 80 1 7 3 4 6v15l-3 5-7 3-10 1-84 1v58h23l12-1v-21l25 1 13 15 4 5h43l-7-11-14-20-5-5h-17l6 8 9 11 3 4h-10l-7-7-9-11-2-3h-44v22h-10v-33h84l9-3 7-6 5-9 1-4v-15l-3-9-5-6-12-6-6-1z" fill="#081A1F"/>
<path transform="translate(1102,125)" d="m0 0h37l1 1v109l-1 1h-39l-1-2v-105l1-3z" fill="#00D0F6"/>
<path transform="translate(1160,128)" d="m0 0h39l10 19 15 28 6 11v2l4-4 30-55 2-1h35l2 1v86l-4-8v-4h-3l-3 10h-1l-1-72-18-1-2 6-14 25-10 18-13 23h-4l-6-9-16-30-12-21-6-11-19-1v74l-2-4-2-7-3 3-2 5-1 18h-1z" fill="#00D0F6"/>
<path transform="translate(824,125)" d="m0 0h40l1 1 1 17h2l10-9 9-8 2-1h53l2 1v5l-7 7-11 9-13 12-8 7-12 11-4 3 2 4 13 11 11 9 15 13 14 11 1 1v5l-2 2h-59l-12-9 1 4-3 5h-47l-1-2v-107zm2 3v104h42l-2-10-4-2h-24v-80h10v41l4-2 13-12 10-9 8-7 7-7 4-3h13l-13 12-8 7-13 12-11 9-9 8-5 5v7l14 11 13 11 10 9h57l-5-5-13-11-10-8-14-12-13-10-4 1-6 7 10 9 11 9 8 7-8 1-6-2-14-11-13-10v-2l10-8 14-12 8-7 13-12 8-7 11-10 13-10v-1h-50l-9 6-14 13-7 5v-23l-1-1z" fill="#041418"/>
<path transform="translate(182,18)" d="m0 0 29 1 16 3 18 6 19 9 16 10 13 11 10 9 9 11 10 13 9 16 9 21 5 17 2 11v25l-1 1h-45l-6-29-6-18-10-19-8-10-11-12-11-9-15-9-14-7-20-6-18-2-3-1v-40zm1 4-1 1v33l1 1 20 3 17 5 14 6 16 10 15 13 8 8 9 12 9 16 7 18 2 1 1-7v-9l1-1v-5l4-1v-2l13-3 3 3 6-1 3 9 5 12 4 7h1l-1-10-5-16-8-18-6-11-12-16-9-10-15-15-10-7-16-9-14-7-18-6-15-3-15-1z" fill="#00C0F6"/>
<path transform="translate(588,125)" d="m0 0h21l2 2 2 12 13 23 9 17 13 23 15 27 1 5-2 2h-45l-4-5-10-18-9-14h-2l-12 22-8 13-2 2h-44l-2-2 1-5 14-24 13-21 17-29 13-22zm2 3-6 9-8 14-12 20-19 32-9 15-7 11-2 3h42l14-26 14-24 9-15v-2l3 3 14 26 13 23 2 4-10-2-10-17-10-18-3 1-6 10 1 5 13 23 5 9h42l-2-5-9-15-14-26-25-45-1-2h-2l-4 8-9 15-15 26-10 16-9 15-1 1-8-1 16-27 15-25 11-19 13-19v-1z" fill="#031013"/>
<path transform="translate(1172,140)" d="m0 0h18l6 10 12 22 10 18 12 21 3 1 30-54 9-16 1-2h18v80h-9l-1-71-4 5-16 28-13 24-8 13-1 1h-15l-4-5-12-23-13-23-10-17-3-2-1 71h-8l-1-1z" fill="#030D10"/>
<path transform="translate(1324,197)" d="m0 0h1l1 12 3-7h3l3 11 1 1 1-10h1v16h93v-10h-83v-12h97v34l-64 1h-27l-30-1z" fill="#00C0F6"/>
<path transform="translate(274,48)" d="m0 0 7 4 12 11 14 14 12 16 8 14 8 18 5 16 1 10-2-1-5-10-5-13-1-4-6 1-3-3-13 3-1 3h-3v5l-1 1v14l-2 2-4-9-7-16-8-13-11-13-13-13 4 1 3 1v-3l9 5 8-10 2-1v-11l-1-10-5-5z" fill="#00D0F6"/>
<path transform="translate(1158,125)" d="m0 0h43l5 8 10 19 9 16 6 12 3-3 13-25 9-15 6-11 1-1h40l4 2 1 63v43l-2 3h-39l-1-2-1-26-9 15-7 12-1 1h-34l-12-22-3-5-1 24-2 3h-39l-1-1v-108zm2 3-1 1v103l10 1h24l1-1v-40l13 24 9 16h30l6-9 13-24 3-5v-2h2l-1 13v27h35v-103l-3-1h-35l-4 4-14 27-13 23-3 5-2 1-2-6-14-26-12-22-3-6z" fill="#04181E"/>
<path transform="translate(1476,192)" d="m0 0h1v28h10v-22h44l9 11 9 10h10l-11-14-7-8v-1h17l5 5 14 20 7 11h-43l-13-15-4-5-25-1v21l-12 1h-23v-18l4 2 1-6 4 1v2h2z" fill="#00C1F6"/>
<path transform="translate(1569,132)" d="m0 0 7 4 5 7 2 7v15l-4 10-7 8-6 3-5 1h-84l-1 30-1-3h-2l-1-2-3-1-1 6h-2v12h-1l-1-14v-40l84-1 13-2 4-2 3-5v-15l-3-8 1-2h-2v-5h2z" fill="#00C1F6"/>
<path transform="translate(188,151)" d="m0 0h1v17l48 1 1 3v35l-2 2-63-1-9-4-7-6-2-4 7 1 8 5 11-1 7-4 1-4 2-3 1-7h-2l-3-7 1-10h-2v-7z" fill="#01F4DF"/>
<path transform="translate(1339,140)" d="m0 0h92v10h-83v35l-2 1-1-8-4 3v35h7v-5h83v9h-93v-79z" fill="#081A1E"/>
<path transform="translate(1159,129)" d="m0 0h1l1 82 4-8h2l3 7 1-70h1l1 80 8 1v-71h3l7 10 11 20 13 23 5 10v3l-4-1-4-2-2 3-1 2-5-8-10-18v40l-1 1h-24l-10-1z" fill="#00CFF6"/>
<path transform="translate(182,18)" d="m0 0 29 1 16 3 18 6 19 9 16 10 13 11 10 9 9 11 10 13 9 16 9 21 5 17 2 11v25l-1 1h-45l-6-29-6-18-10-19-8-10-11-12-11-9-15-9-14-7-20-6-18-2-3-1v-40zm1 4-1 1v33l1 1 20 3 17 5 14 6 16 10 15 13 8 8 9 12 9 16 6 16 5 23 2 9 1 1h39v-17l-3-17-5-17-7-17-8-15-12-16-9-10-15-15-10-7-16-9-14-7-18-6-15-3-15-1z" fill="#04171D"/>
<path transform="translate(183,22)" d="m0 0h14l21 2 19 5 19 8 17 10 4 5 5 5 1 17-1 5-5 5-4 6-10-5 1 4-5-3-7-3-11-8-16-8-11-4-16-4-15-2-1-1v-33zm0 1v28l5 2 5 1 7 1 18 4 17 6 14 8 6-1 3-3 1-4 4-4-1-6-3-4h-2l-1-3h-3v-2l-11-7-17-10-7-1-5-2-9-2z" fill="#00F0E1"/>
<path transform="translate(1477,140)" d="m0 0h80l7 3 4 5 1 2v15l-4 6-7 3h-80l1-3 50-1 21-1 7-1 1-2h-78l-1-2-15-1v-1l94-1 1-1v-7l-5-2-76-1-1-1z" fill="#041014"/>
<path transform="translate(56,227)" d="m0 0h9l9 4 6 7 3 7v9l-6 12-5 4-9 3-11-2-7-4-6-9-1-3v-11l5-10 7-5z" fill="#00D0F6"/>
<path transform="translate(683,166)" d="m0 0 3 1 5 10 8 5 14 3 60 1 8 3 5 5 2 5v10l-3 6-5 4-3 1h-73l-6-4-2-3v-3l81-1v-10l-93-1v-1l88-1-2-3 1-2-64-1-12-5-6-4-5-6-2-4z" fill="#030E11"/>
<path transform="translate(173,295)" d="m0 0h13l10 5 6 9 1 11-3 9-7 7-7 3h-11l-10-5-4-5-3-7v-11l5-10 5-4z" fill="#00D0F6"/>
<path transform="translate(426,125)" d="m0 0h119l1 1v37l-1 1h-40v71l-1 1h-41l-1-1v-71l-11 1-26-1-2-5v-21l1-12zm1 3v31l2 1h36v72h36l1-71 41-1v-31l-1-1z" fill="#040F11"/>
<path transform="translate(249,275)" d="m0 0 10 1 9 6 5 9 1 7-2 9-6 8-7 4-10 1-10-3-6-5-4-9v-11l5-10 7-5z" fill="#00D0F6"/>
<path transform="translate(297,228)" d="m0 0h9l10 5 6 10 1 9-3 9-4 6-8 5-11 1-10-4-6-7-3-7v-8l4-10 7-6z" fill="#00CFF6"/>
<path transform="translate(961,125)" d="m0 0h120l2 2v35l-1 2-31 1h-7l-1 70-2 1h-39l-2-2v-70h-38l-2-4v-24zm4 3-2 1v30l1 1h40l-1 9v63l9 1h26l2-1-1-72h40v-32z" fill="#04151A"/>
<path transform="translate(36,156)" d="m0 0h8l9 3 7 8 3 7v9l-4 9-6 5-9 3-11-1-8-5-4-5-3-7v-9l4-8 8-7z" fill="#00E4F0"/>
<path transform="translate(106,275)" d="m0 0h9l8 3 7 8 2 5v11l-5 10-5 4-4 2h-16l-9-6-5-9-1-8 3-9 6-7 6-3z" fill="#00D0F6"/>
<path transform="translate(439,140)" d="m0 0h90v10h-41v71l-9-1-1-69-38-1-1-1z" fill="#031A1A"/>
<path transform="translate(58,88)" d="m0 0 9 1 8 5 4 5 2 4v14l-4 8-8 6-2 1h-15l-7-4-6-9-1-2v-12l4-8 8-7z" fill="#00F1E0"/>
<path transform="translate(107,39)" d="m0 0h11l8 5 4 5 3 9-2 11-6 8-6 4-4 1h-8l-8-3-7-8-2-5v-12l5-8 6-5z" fill="#00F1E0"/>
<path transform="translate(884,186)" d="m0 0 4 1 12 9 11 10 14 11 17 14v1h-57l-9-8-1-13 1-5 8 6 9 7 7 1 6-1-11-10-11-9-7-6 6-7z" fill="#00CFF6"/>
<path transform="translate(164,104)" d="m0 0h25l4 2v59h47l1 1 1 43-3 3h-67l-9-4-8-7-4-5-3-8v-82l1-1zm-12 4-1 21v51l2 11 6 9 8 6 6 2 63 1 2-2v-35l-1-3-48-1v-60z" fill="#051418"/>
<path transform="translate(1356,126)" d="m0 0h90v2h2v35l-2 2-8 1h-74l2 3 58 1 6 3v14l-1 3-74 1-7-2v-1h78v-13h-65l-1-1v-13h85v-33h-78l-11-1z" fill="#041216"/>
<path transform="translate(894,140)" d="m0 0h14l-6 7-11 9-9 9-8 7-13 11-11 9-3 3-1-2-5 1-1 23h-1v-76h9v40l11-9 8-8 11-9 12-12z" fill="#030E10"/>
<path transform="translate(606,165)" d="m0 0 3 1 15 28 13 23 1 4-10-1-6-9-13-24-1-3-3 3-5 8 1 6h-2l-4-4-2-1-2 5-15 27-6 8h-44v-3h43l1-5 13-23 12-22z" fill="#030E11"/>
<path transform="translate(1463,125)" d="m0 0h97l9 2 9 6 6 8 3 10v10l-2 10-4 8-7 7-9 4-10 1h-6l-3 1-28-2h-33l-7 2-1-5 84-1 9-3 6-5 5-9 1-4v-15l-3-9-4-5-12-6-6-1-93-1v33h15l4 3-3 2h-13l-6-2-1-3v-32l1-3z" fill="#041418"/>
<path transform="translate(1102,125)" d="m0 0h37l1 1v109l-1 1h-39l-1-2v-105l1-3zm1 3-1 2v102l1 1h33l1-3v-101l-1-1z" fill="#051316"/>
<path transform="translate(705,125)" d="m0 0h77l9 3 9 8 4 9 2 8v10l-2 2-15 1h-76l-3-3v-1l91-1v-9l-3-10-6-8-9-4-7-1h-68l-9 3-6 4-5 6-3 10v14l-4 1-1-13 3-13 6-8 10-6z" fill="#031115"/>
<path transform="translate(1464,171)" d="m0 0h15v2l69 1v1h-84v58l2-1h33v-21h25l9 10 8 10v2h44v3h-45l-8-8-7-9-5-2h-17v11l-1 7-1 1h-39l-2-4v-56l2-4z" fill="#031215"/>
<path transform="translate(1303,129)" d="m0 0h1v103h-33v-23h2v-6l-1-5 3-3 2 12 1 9h2l1-67h1v71h9v-79h1l1 67 3-5h3l3 8z" fill="#00BFF6"/>
<path transform="translate(1307,190)" d="m0 0h1v43l-2 3h-39l-1-2-1-26-9 15-7 12-1 1h-34l-12-22-3-5-1 24-2-3-2 2-1-41 3 3 16 29 4 8h30l8-14 14-25h2v13l-1 27h36l1-8z" fill="#041D25"/>
<path transform="translate(976,140)" d="m0 0h89v10h-89z" fill="#030D10"/>
<path transform="translate(1159,129)" d="m0 0h1l1 82 4-8h2l3 7 1-70h1l1 80 8 1v-71h3l-2 1 1 58 3-3h2l5 14 1 12-1 1h-24l-10-1z" fill="#00BFF6"/>
<path transform="translate(1172,140)" d="m0 0h18l5 8-2 4-6 3-5-5-1 71h-8l-1-1z" fill="#081A1F"/>
<path transform="translate(963,129)" d="m0 0h37l8 1v1l13 4-3 1v3l-13 1h-29v11h2l1 4h10l9 3v1h-35z" fill="#00DEF5"/>
<path transform="translate(1348,198)" d="m0 0h75v1l-12 3-7 1 1 1 17 1 8 3v2h-82z" fill="#01D0F6"/>
<path transform="translate(180,19)" d="m0 0 3 1v36l20 3 17 5 14 6 16 10 15 13 9 9 9 12 9 16 6 16 5 23 2 11-3 1-2-3-5-25-6-18-10-19-8-10-11-12-11-9-15-9-14-7-20-6-18-2-3-1v-40z" fill="#04181D"/>
<path transform="translate(1274,142)" d="m0 0h12l3 2 2-1v77h-9l-1-71-4 5-3 5-3-2 1-11z" fill="#081A1F"/>
<path transform="translate(1541,196)" d="m0 0h17l5 5 14 20 7 11h-38l-4-7v-2l11-2 6-2-11-14-7-8z" fill="#00B7F6"/>
<path transform="translate(1339,146)" d="m0 0h1l1 27 2 3 2-1-1 4-3 2v35h7v-5h83v9l-92-1z" fill="#030C0E"/>
<path transform="translate(482,145)" d="m0 0 5 1 3 2 37 1v1h-39v71l-9-1-1-69-38-1v-1l36-1z" fill="#081A1F"/>
<path transform="translate(1115,140)" d="m0 0h9v81h-7l-2-1z" fill="#040F11"/>
<path transform="translate(1473,149)" d="m0 0 81 1v1l-11 1-3 5-4 2-4 1h-63l-1-4 2-5h3z" fill="#00C0F6"/>
<path transform="translate(710,140)" d="m0 0h70l5 4 2 6-1 1-16-1-37-1-3-3-16-2-8 3-5 6-2 8-2-2 1-9 4-6 4-3z" fill="#030D0F"/>
<path transform="translate(1345,174)" d="m0 0h1l1 11 1 2h78v1l-76 1 10 3-1 2-4 2 90 1v1h-97v12h83v1h-83v5l-5 1-3-3v-33l4-3z" fill="#081C21"/>
<path transform="translate(1244,211)" d="m0 0 7 1 1 4v7l-6 9h-30l-7-14 1-4 2-2 5 3h4l3 4h15z" fill="#00C0F6"/>
<path transform="translate(1136,168)" d="m0 0h1v64l-1 1h-33l-1-1v-30h1l1 14 2-5h2l1-3 3 9 1 4 7 2v-2l6-1 1-3h2v-2l4 1v2l2-1z" fill="#00BEF6"/>
<path transform="translate(1018,160)" d="m0 0h8v60l-1 1h-7l-1-1v-59z" fill="#030E10"/>
<path transform="translate(516,125)" d="m0 0h29l1 1v37l-1 1h-41l-1 54h-1v-58h41l-1-31-84-1-17-1v-1z" fill="#030C0E"/>
<path transform="translate(1e3 169)" d="m0 0h1l1 48 2-3v-3l5 1 2 9 14 1 1-4h3v-4l3 1 2 10 1 4h2v3l-5 1h-23l-9-1z" fill="#00BFF6"/>
<path transform="translate(1339,140)" d="m0 0h92v9h-29l-1-3h-15l-4 1h-11v-2l-21-2-10-1-1 3z" fill="#040E11"/>
<path transform="translate(588,125)" d="m0 0 14 1v1l-11 1-6 9-8 14-12 20-19 32-9 15-7 11-2 2 41 1v1l-45 1 1-5 14-24 13-21 17-29 13-22z" fill="#04161B"/>
<path transform="translate(1423,198)" d="m0 0h22v34h-13l-7-1v-1l10-1 5-2 1-5-2-5-5 1-2 2v-10h-2v-2l-4-1-10-1-11-1-2-2 1-1 13-2z" fill="#00C2F6"/>
<path transform="translate(714,143)" d="m0 0 12 1 6 1 3 3 35 1v1l-59 1-4 2 1 5 2 2 91 1v1l-90 1v2l5 1v2l13 1v1h-11v2l-10-1-1-3-3 1-4-3-2-2 2-11 7-8z" fill="#051B1E"/>
<path transform="translate(700,164)" d="m0 0 5 4h2l1 2 10 2v-2h55l11 3 8 4 7 6 6 12 1 4v12l-2 3-1-5h-1l-2-15-7-11-8-5-6-2-65-2-8-2-6-5z" fill="#041418"/>
<path transform="translate(1476,192)" d="m0 0h1v28h10 3l4 1 3 7-1 1 2 1v2l-11 1h-23v-18l4 2 1-6 4 1v2h2z" fill="#00B7F6"/>
<path transform="translate(1157,126)" d="m0 0 2 1v105h36v-13h1l1 16-1 1h-39l-1-1v-108z" fill="#041013"/>
<path transform="translate(173,295)" d="m0 0h13l10 5 6 9 1 11-3 9-7 7-7 3h-11l-10-5-4-5-3-7v-11l5-10 5-4zm2 3-6 3-6 7-2 5v7l3 8 7 6 3 1h13l6-3 4-5 2-6v-9l-4-8-5-4-5-2z" fill="#04191F"/>
<path transform="translate(838,140)" d="m0 0h10v1h-9l1 53 2-2 5 1 2 8 2 2-2 1 3 5 6 3 2 2 1 6h-23z" fill="#082128"/>
<path transform="translate(249,275)" d="m0 0 10 1 9 6 5 9 1 7-2 9-6 8-7 4-10 1-10-3-6-5-4-9v-11l5-10 7-5zm-4 4-8 5-4 6-1 11 3 8 8 6 3 1h13l7-6 4-8v-8l-3-7-4-5-6-3z" fill="#042029"/>
<path transform="translate(297,228)" d="m0 0h9l10 5 6 10 1 9-3 9-4 6-8 5-11 1-10-4-6-7-3-7v-8l4-10 7-6zm1 3-7 3-7 6-2 4v12l5 8 5 4 10 2 9-3 7-8 1-3v-10l-3-7-4-5-7-3z" fill="#041B22"/>
<path transform="translate(56,227)" d="m0 0h9l9 4 6 7 3 7v9l-6 12-5 4-9 3-11-2-7-4-6-9-1-3v-11l5-10 7-5zm-2 4-8 5-4 6-1 4v8l4 8 7 6 3 1h10l8-4 6-8 1-10-2-7-5-6-6-3z" fill="#05161B"/>
<path transform="translate(1431,210)" d="m0 0h1l1 7 6-1 2 2 1 7-2 3-6 2-2 1v1h-12v-2l-20-2-14-1-1-2h2v-2l5-1 35-1 4-1z" fill="#00B7F7"/>
<path transform="translate(36,156)" d="m0 0h8l9 3 7 8 3 7v9l-4 9-6 5-9 3-11-1-8-5-4-5-3-7v-9l4-8 8-7zm-2 4-8 5-4 6-1 10 4 8 7 6 10 2 8-2 6-5 4-7v-7l-3-8-5-6-4-2z" fill="#04161C"/>
<path transform="translate(106,275)" d="m0 0h9l8 3 7 8 2 5v11l-5 10-5 4-4 2h-16l-9-6-5-9-1-8 3-9 6-7 6-3zm2 3-9 3-5 5-3 5v10l3 7 7 6 6 2 10-1 6-4 4-5 2-7-1-9-4-7-6-4z" fill="#041A20"/>
<path transform="translate(1496,142)" d="m0 0h8l4 1 35 3 3 1 1-2 10 1v3l-5 1h-74l1-6 3 1 5-2 9 1z" fill="#041A1B"/>
<path transform="translate(107,39)" d="m0 0h11l8 5 4 5 3 9-2 11-6 8-6 4-4 1h-8l-8-3-7-8-2-5v-12l5-8 6-5zm1 3-7 3-5 4-3 7v8l4 8 7 6 9 1 9-3 6-9 1-2v-10l-4-8-6-4-4-1z" fill="#051C23"/>
<path transform="translate(58,88)" d="m0 0 9 1 8 5 4 5 2 4v14l-4 8-8 6-2 1h-15l-7-4-6-9-1-2v-12l4-8 8-7zm-4 4-7 4-5 7-1 4v9l3 6 7 6 6 2 9-1 6-4 4-5 2-4v-11l-3-6-5-5-4-2z" fill="#04171D"/>
<path transform="translate(695,193)" d="m0 0h75l4 4h-90v16h-1l-1-8-1 10h-1v-18l2-3z" fill="#03242E"/>
<path transform="translate(884,186)" d="m0 0 4 1 11 8 2 4 6 6-1 8-4 2-13-11-11-9v-3z" fill="#00E2F0"/>
<path transform="translate(593,196)" d="m0 0 5 2 1 3 3 1 12 21 4 8 42 1-3-5v-2h4l3 6-1 4-1 1h-45l-4-5-10-18-9-14z" fill="#041114"/>
<path transform="translate(439,140)" d="m0 0h90v10l-19-1 3-2-5-2-22-2h-37l-5 2-3 1v2l2 1h-4z" fill="#030E10"/>
<path transform="translate(1265,125)" d="m0 0h38l4 2v97l-2 8h-1v-103l-14-2-25-1z" fill="#07161A"/>
<path transform="translate(164,104)" d="m0 0h25l4 2v59l-2-2-2 1v-56h-37l-1 3v-5l-2-1z" fill="#081C22"/>
<path transform="translate(1463,125)" d="m0 0h97v1l-67 1v1h-29v33h15l4 3-3 2h-13l-6-2-1-3v-32l1-3z" fill="#082027"/>
<path transform="translate(1543,151)" d="m0 0h15l2 2v7l-2 2h-79l-9-1v-1l60-1 2 1 1-2v2l4-3 4-2z" fill="#00CAF6"/>
<path transform="translate(190,149)" d="m0 0h1l1 16h48l1 1 1 43-1 2h-2l-1-4-1-38h-46l-2-1z" fill="#061417"/>
<path transform="translate(426,125)" d="m0 0h90v1l-58 1v1h-31v31l18 1v1l-11 1 13 1 4 2-26-1-2-5v-21l1-12z" fill="#091B20"/>
<path transform="translate(148,106)" d="m0 0h3l1 5v69l1 13 1 6-3-3-3-8z" fill="#051418"/>
<path transform="translate(879,197)" d="m0 0 5 2 15 13 9 7v1l-10 1-6-2-14-11-3-2 2-5z" fill="#030D0F"/>
<path transform="translate(840,143)" d="m0 0h8v38l2 1h-2l-1 5-2 1-3-3v-8l2-7h-2l-2-5z" fill="#081A1F"/>
<path transform="translate(876,206)" d="m0 0 8 6 10 8 3 2-3 3v6h-10l-8-7-1-13z" fill="#00E3F0"/>
<path transform="translate(1493,181)" d="m0 0 24 1h12l14 2 1 3h-66l4-4z" fill="#01D1F7"/>
<path transform="translate(1464,171)" d="m0 0h15v2l69 1v1h-84v58h-1l-1-36-1 35h-1v-56l2-4z" fill="#091B20"/>
<path transform="translate(200,169)" d="m0 0h37l1 3v35l-2 2-4-1 1-5v-12l1-5-4-10-5-2-10-1-1-2-14-1z" fill="#00DCF1"/>
<path transform="translate(1440,144)" d="m0 0h1l1 10-2 3-6 1-26-1-2 1v-2h-2l-1-2-8-1v-1l5-1 30-1 2-1 2-4h5z" fill="#01C1F6"/>
<path transform="translate(839,220)" d="m0 0h23l4 2 2 10h-40v-1l19-1-5-5v-3l-3-1z" fill="#00DEF1"/>
<path transform="translate(504,163)" d="m0 0h8v1h-7v71l-1 1h-39l2-3h35l1-69z" fill="#051418"/>
<path transform="translate(274,48)" d="m0 0 7 4 12 11 13 13-1 3-2-2-8-3-6-1-4 4h-2l-1-8-1-12-5-5z" fill="#00E2F0"/>
<path transform="translate(516,125)" d="m0 0h29l1 1v9h-2v24h-1l-1-30-84-1-17-1v-1z" fill="#030C0E"/>
<path transform="translate(1561,159)" d="m0 0h1v6l-3 1-41-1-7-2v2h-25l-3-1-19-1v-1l94-1z" fill="#030C0E"/>
<path transform="translate(1541,196)" d="m0 0h17l5 5 2 5-1 2-4 1-2 5 3 4-1 2-9-11-8-10z" fill="#00C1F6"/>
<path transform="translate(889,125)" d="m0 0h53v2l-5 1-45 1-9 6-10 9h-2l2-5 10-10z" fill="#040F12"/>
<path transform="translate(551,188)" d="m0 0h2l-1 5-15 25-7 11-2 2 41 1v1l-45 1 1-5 14-24 10-16z" fill="#041419"/>
<path transform="translate(839,141)" d="m0 0h9l-1 3h-6v21l1 5h2l-1 7v10h3l3-4 6 4-6 7-2 1-1-2-5 1-1 23h-1z" fill="#031919"/>
<path transform="translate(1554,193)" d="m0 0 7 1 7 7 19 29v4l-46-1v-1l42-1-8-11-15-22-3-2-11-1v-1z" fill="#05161A"/>
<path transform="translate(480,185)" d="m0 0 4 1 1 10 1-10h1l1 35-9-1z" fill="#030C0E"/>
<path transform="translate(976,140)" d="m0 0h1v9l1-2h2v-2l10-2h10l3 1v2l5 1v2h57v1h-89z" fill="#061A1D"/>
<path transform="translate(1099,129)" d="m0 0h2v104l2 1-1 2h-2l-1-2z" fill="#082027"/>
<path transform="translate(1211,212)" d="m0 0 6 3h4l3 4 12 1v1l-10 2-4 4 3 4-2 1h-7l-7-14 1-4z" fill="#00C0F6"/>
<path transform="translate(705,125)" d="m0 0 8 1v2l-12 3-8 5-5 6-3 10v14l-4 1-1-13 3-13 6-8 10-6z" fill="#031A21"/>
<path transform="translate(1544,201)" d="m0 0 3 1 13 17v1h-11l-8-8-6-8 1-2 5 1z" fill="#030D10"/>
<path transform="translate(1426,175)" d="m0 0h1l1 6 2-1v7l-1 3-74 1-7-2v-1h78z" fill="#031317"/>
<path transform="translate(771,191)" d="m0 0h6l5 4 2 3v7l-2 1-2-1-2 2-1-8-93-1v-1l88-1-2-3z" fill="#061A1D"/>
<path transform="translate(1324,125)" d="m0 0h123l1 3h-2v-2l-52 1h-27v1h-35l-8-2z" fill="#08232C"/>
<path transform="translate(1173,191)" d="m0 0 2 4 5 1 1 25h-8l-1-2z" fill="#030C0E"/>
<path transform="translate(232,285)" d="m0 0 3 1-2 10 1 9 4 6 8 4h15l-2 4-10 1-10-3-6-5-4-9v-11z" fill="#041D25"/>
<path transform="translate(1193,191)" d="m0 0 3 3 10 18h-3l-4-3-1 24-2-3-2 2z" fill="#041114"/>
<path transform="translate(48,161)" d="m0 0 5 2 6 9 1 4v7l-6 9-2-4 1-8-2-7-4-5-2-2h3z" fill="#00DAF5"/>
<path transform="translate(98,282)" d="m0 0 3 1-1 5 1 3-2 11v6h2v2l-5-2-4-3-1-4v-10l5-8z" fill="#00DDF6"/>
<path transform="translate(1355,143)" d="m0 0h10l6 2v2l11-1 3 1 1-2h15l1 1 12 1v1l-12 1h-44z" fill="#03191A"/>
<path transform="translate(152,108)" d="m0 0h37v11h-1v-10l-33 1-1 1-1 77h-1l-1-8v-51z" fill="#00D8EC"/>
<path transform="translate(27,160)" d="m0 0h6l-8 8-3 7 1 9 4 6 5 4 9 3-1 2h-7l-8-5-4-5-3-7v-9l4-8z" fill="#04181D"/>
<path transform="translate(107,39)" d="m0 0h11l8 5 4 5 3 9-2 11-6 8-3 2 2-4 3-4 1-6v-10l-4-8-5-3-4-1h-11v-3z" fill="#051B21"/>
<path transform="translate(47,237)" d="m0 0h1v8h3l-1 4v13l3 1-5 1-5-5-2-5v-8l2-6z" fill="#00DDF6"/>
<path transform="translate(281,246)" d="m0 0h1l1 10 5 8 6 4 8 1 9-3 3-3 3 1-1 3-8 5-11 1-10-4-6-7-3-7v-8l2 1v5z" fill="#041F27"/>
<path transform="translate(166,306)" d="m0 0 2 1 1 3 2 1-1 8 1 8-3-1-1 3-3-1-3-8v-7l2-5z" fill="#00DDF5"/>
<path transform="translate(1138,208)" d="m0 0h1v28h-37l1-3 33-1 1-23z" fill="#030C0E"/>
<path transform="translate(164,104)" d="m0 0h25l2 1 1 5-1 2h-2v-4h-37l-1 3v-5l-2-1z" fill="#073240"/>
<path transform="translate(894,192)" d="m0 0 5 3 2 4 6 6-1 8-4 2-7-6 2-3-3-6v-5z" fill="#00DEF5"/>
<path transform="translate(1463,128)" d="m0 0h1v33h15l4 3-3 2h-13l-6-2-1-3v-32h1l1 20z" fill="#064053"/>
<path transform="translate(173,295)" d="m0 0h13l10 5 5 7v13l-2 1-2-12-4-6-8-4h-10l-6 3-3 1 1-4h2v-2z" fill="#05191E"/>
<path transform="translate(262,84)" d="m0 0 10 5 6 11 1 5h-4l-9-10-10-9 3-1 4 2z" fill="#00E2F0"/>
<path transform="translate(1351,222)" d="m0 0h12l12 1 8 2-5 2h-6l-3-1-10 2h-10l-8-1v-2h2v-2z" fill="#00B7F7"/>
<path transform="translate(1289,189)" d="m0 0h1l1 31h-9v-11l1-4h2l2-6h1z" fill="#030C0E"/>
<path transform="translate(182,18)" d="m0 0 29 1 12 2-3 2-2 1-21-1h-15z" fill="#072731"/>
<path transform="translate(712,214)" d="m0 0 9 2 10 2 46 1v1h-73l2-1v-2l4-2z" fill="#081A1F"/>
<path transform="translate(1460,176)" d="m0 0h1v5l3-1v53h-1l-1-36-1 35h-1z" fill="#055975"/>
<path transform="translate(961,126)" d="m0 0h93v1l-73 1-18 1v10l-2 1z" fill="#030C0E"/>
<path transform="translate(239,165)" d="m0 0 2 1 1 43-1 2h-2l-1-4-1-39z" fill="#082027"/>
<path transform="translate(81,242)" d="m0 0 2 3v9l-6 12-5 4-9 3-6-1-1-3 12-2 6-4 4-6 2-9 1-1z" fill="#051B21"/>
<path transform="translate(294,145)" d="m0 0 4 1 5 23 2 11-3 1-2-3-5-25z" fill="#04161B"/>
<path transform="translate(56,227)" d="m0 0h9l9 4 6 7 2 10-3-1-2-7-4-5-6-3h-15l-2-3z" fill="#07222A"/>
<path transform="translate(106,275)" d="m0 0h4v2l-2 2-12 4-4 8-1 12h-3l-1-8 3-9 6-7 6-3z" fill="#061F26"/>
<path transform="translate(424,130)" d="m0 0h1l1 30h19v1l-11 1 13 1 4 2-26-1-2-5v-21z" fill="#043E4D"/>
<path transform="translate(1499,192)" d="m0 0 25 1 3-1v3l2 2h-31l-1-4z" fill="#031919"/>
<path transform="translate(39,111)" d="m0 0 2 2 4 9 6 5 6 2 9-1 4-1-3 5h-15l-7-4-6-9-1-6z" fill="#04151A"/>
<path transform="translate(501,161)" d="m0 0h1v72l-35 1-4 2-1-2 3-2h36z" fill="#091B20"/>
<path transform="translate(151,111)" d="m0 0h1v69l1 13 1 6-3-3-2-7h2l-1-4v-73z" fill="#081C21"/>
<path transform="translate(863,125)" d="m0 0 2 1 1 17h2l3-1 1 3-9 8-2-1 1-22z" fill="#072A34"/>
<path transform="translate(1270,179)" d="m0 0 4 1 2 3v11l-2-3-1 2-3 1-4-5 1-6 1-2h2z" fill="#00C2F6"/>
<path transform="translate(91,301)" d="m0 0 2 4 6 7 8 3 13-1-2 4h-16l-9-6-4-8z" fill="#041F27"/>
<path transform="translate(301,179)" d="m0 0 2 1 2-1h39 1l2 2-1 1h-45z" fill="#081E25"/>
<path transform="translate(1511,163)" d="m0 0h7v2h41l-1 2-78-1-1-2h30l2 1z" fill="#081A1F"/>
<path transform="translate(1226,222)" d="m0 0h10l1 6h-2v2h-11l-3-4z" fill="#00B7F7"/>
<path transform="translate(839,141)" d="m0 0h9l-1 3h-6l-1 73h-1z" fill="#030C0E"/>
<path transform="translate(889,125)" d="m0 0 3 1v3l-9 6-10 9h-2l2-5 10-10z" fill="#041418"/>
<path transform="translate(424,126)" d="m0 0h9l4 2h-10v31l2 1-4 1z" fill="#051215"/>
<path transform="translate(942,126)" d="m0 0h2v5l-7 7-11 9-3 2 2-4 9-11 7-5-4-2z" fill="#051D25"/>
<path transform="translate(890,217)" d="m0 0 7 4-1 3-2 1v6h-10l1-6h4l-1-5h2z" fill="#00DEF6"/>
<path transform="translate(608,174)" d="m0 0 3 4v6h-2l-1 2v-2l-3 3-4 6-2-1 2-6 2-2 1-7z" fill="#031819"/>
<path transform="translate(311,241)" d="m0 0 3 4-1 2 1 7-2 4-6-3-1-4z" fill="#01C1F6"/>
<path transform="translate(291,230)" d="m0 0 2 1-2 4-6 5-3 6-1 9-2-2v-10l5-8 5-4z" fill="#04161B"/>
<path transform="translate(36,156)" d="m0 0h8l9 3 1 2-2 2-4-2h-15l-5-1 2-2z" fill="#051D23"/>
<path transform="translate(1263,125)" d="m0 0 27 1 6 1v1l-30 1-7 4 2-6z" fill="#030D0F"/>
<path transform="translate(53,161)" d="m0 0 4 2 5 8 1 3v9l-4 2v-9l-3-8-3-4z" fill="#041418"/>
<path transform="translate(232,285)" d="m0 0 3 1-2 10 1 9 1 3h-4l-2-5v-11z" fill="#05171C"/>
<path transform="translate(27,160)" d="m0 0h6l-8 8-6 14h-1v-9l4-8z" fill="#041D24"/>
<path transform="translate(41,254)" d="m0 0 6 9 5 4 5 3v2l-9-3-5-4-4-7z" fill="#041519"/>
<path transform="translate(1464,175)" d="m0 0h5v5l-3 1-1 34h-1z" fill="#01CFF6"/>
<path transform="translate(1478,141)" d="m0 0h26v1l-7 1-1 1h-13l-1 2h-2l-1 2 2 1h-3z" fill="#030C0E"/>
<path transform="translate(1197,207)" d="m0 0 2 1-1 25-2-3-2 2v-20l2-1z" fill="#082731"/>
<path transform="translate(295,66)" d="m0 0 7 6 4 4-1 3-2-2-8-3-4-2 2-4z" fill="#00DCF6"/>
<path transform="translate(201,309)" d="m0 0h1l1 11-3 9-7 7-1-4 4-5 2-6 2-1z" fill="#052D3A"/>
<path transform="translate(235,289)" d="m0 0 3 1v11l-2 5-1-2h-2l-1-8 1-6z" fill="#00DAF5"/>
<path transform="translate(1464,171)" d="m0 0h15l-1 3h-15l1 6-3 1v-8z" fill="#05171C"/>
<path transform="translate(1562,150)" d="m0 0 4 2 1 7-2 6-3 3h-2l1-3z" fill="#081A1F"/>
<path transform="translate(289,129)" d="m0 0 3 1 5 13-2 4h-2l-4-12-1-5z" fill="#071C22"/>
<path transform="translate(1477,188)" d="m0 0h43l-2 2h-33l-7 2z" fill="#030C0E"/>
<path transform="translate(539,125)" d="m0 0h6l1 1v9h-2v24h-1l-1-30-3-2z" fill="#091B20"/>
<path transform="translate(101,41)" d="m0 0 4 1-9 9-3 7-2-3 1-5 7-8z" fill="#041115"/>
<path transform="translate(871,194)" d="m0 0h5v2l3 1-3 7-7-5v-3h2z" fill="#091B20"/>
<path transform="translate(126,69)" d="m0 0h2l-2 5-5 6-6 2h-6l-1-3 12-3 5-5z" fill="#05181D"/>
<path transform="translate(1360,198)" d="m0 0 12 3-1 2-11 1-4-2 1-3z" fill="#01C1F6"/>
<path transform="translate(573,191)" d="m0 0h2v5l-6 10-4-1v-3h3l-1-4z" fill="#041819"/>
<path transform="translate(1546,145)" d="m0 0h7l4 2v2l-5 1h-9v-1l-6-1 3-2 6 1z" fill="#081A1F"/>
<path transform="translate(1461,126)" d="m0 0h5v2h-3v25l-2-4z" fill="#030D10"/>
<path transform="translate(77,116)" d="m0 0 4 1-4 8-8 6v-3l6-8z" fill="#05252F"/>
<path transform="translate(873,188)" d="m0 0m-1 1m-2 1h2l1 4h-2v2h-2l2 4 4 3-1 2-10-8 1-3z" fill="#041013"/>
<path transform="translate(190,333)" d="m0 0 3 1-4 4-3 1h-9l-1-3 10-1z" fill="#04161B"/>
<path transform="translate(712,214)" d="m0 0 9 2 10 2v1h-22l3-2z" fill="#031919"/>
<path transform="translate(1519,144)" d="m0 0 13 1 4 2v1h-18l-1-3z" fill="#091B20"/>
<path transform="translate(524,231)" d="m0 0 45 1v1l-45 1z" fill="#082128"/>
<path transform="translate(1359,151)" d="m0 0h11l-2 5-8 1-2-3z" fill="#01C1F6"/>
<path transform="translate(129,304)" d="m0 0 2 1-5 8-6 4-1-4 6-5z" fill="#041F27"/>
<path transform="translate(1272,146)" d="m0 0 3 1-1 2 2 1 1 4-3 5-3-2z" fill="#04191B"/>
<path transform="translate(439,140)" d="m0 0 11 1-1 2-5 2-3 1v2l2 1h-4z" fill="#040E11"/>
<path transform="translate(1189,175)" d="m0 0 5 5 1 5h-2l-1-2-3 4-1-2v-9z" fill="#01C1F6"/>
<path transform="translate(259,315)" d="m0 0 2 1-2 3-10 1-2-4z" fill="#05191F"/>
<path transform="translate(1273,140)" d="m0 0h18l-1 5-4-2-13-1z" fill="#051215"/>
<path transform="translate(465,232)" d="m0 0h34v1l-32 1-4 2-1-2z" fill="#082229"/>
<path transform="translate(81,242)" d="m0 0 2 3v9l-2 5h-3l2-11 1-1z" fill="#052732"/>
<path transform="translate(1e3 157)" d="m0 0h6v5l-4 1-1 3h-2v-6z" fill="#00E0F6"/>
<path transform="translate(65,268)" d="m0 0 4 1-1 3-7 1-4-1-1-3z" fill="#041D25"/>
<path transform="translate(183,109)" d="m0 0h5v11l-4-4z" fill="#01F5DF"/>
<path transform="translate(103,310)" d="m0 0 7 2v2l3 1-1 1-9-1-2-1v-2h2z" fill="#00D7F6"/>
<path transform="translate(88,290)" d="m0 0 3 2v11h-3l-1-8z" fill="#05313D"/>
<path transform="translate(74,234)" d="m0 0 4 1 3 5 1 8-3-1-2-7-3-4z" fill="#041013"/>
<path transform="translate(117,314)" d="m0 0 3 1-2 3h-13v-2z" fill="#041012"/>
<path transform="translate(63,228)" d="m0 0 8 1 5 5-3 1-10-6z" fill="#051B21"/>
<path transform="translate(50,194)" d="m0 0 2 1-3 4-10 1 3-4z" fill="#032B38"/>
<path transform="translate(591,125)" d="m0 0h16l-1 3-15 1z" fill="#030D0F"/>
<path transform="translate(267,309)" d="m0 0 3 1-5 6-5 2 2-5z" fill="#042934"/>
<path transform="translate(271,296)" d="m0 0h1v11l-5 3v-3z" fill="#041419"/>
<path transform="translate(281,246)" d="m0 0h1l1 12-3 2-2-5v-8l2 1v5z" fill="#081E25"/>
<path transform="translate(605,138)" d="m0 0 2 4-4 5-3 2-2-2 3-1 2-6z" fill="#031818"/>
<path transform="translate(27,160)" d="m0 0h6l-4 4-5 4v-2l-2-1z" fill="#041013"/>
<path transform="translate(607,125)" d="m0 0 4 2v7l-3-1-3-4z" fill="#04262E"/>
<path transform="translate(42,242)" d="m0 0 3 1 1 6-1 2h-2l-1 2z" fill="#00E3F0"/>
<path transform="translate(1559,184)" d="m0 0h6l-1 2-3 1h-12l1-2z" fill="#00CDF6"/>
<path transform="translate(1491,175)" d="m0 0h16v1l-10 1-4 2h-3z" fill="#01D1F7"/>
<path transform="translate(234,296)" d="m0 0 4 2-1 6-2 2v-2h-2z" fill="#00E0F5"/>
<path transform="translate(171,296)" d="m0 0 5 1-1 2-6 3-3 1 1-4h2v-2z" fill="#041012"/>
<path transform="translate(19,177)" d="m0 0 2 1 3 9-3 2-2-4z" fill="#041214"/>
<path transform="translate(60,174)" d="m0 0h3v9l-4 2z" fill="#041013"/>
<path transform="translate(107,39)" d="m0 0h11l-3 2-7 2-4-1v-2z" fill="#062028"/>
<path transform="translate(36,156)" d="m0 0h8l-4 2-5 2-2 1-5-1 2-2z" fill="#063544"/>
<path transform="translate(294,145)" d="m0 0 4 1 1 7h-3l-2-3z" fill="#05181D"/>
<path transform="translate(864,145)" d="m0 0 5 1v2l-6 5-2-1 1-5h2z" fill="#041012"/>
<path transform="translate(168,297)" d="m0 0 1 2-2-1zm-3 2 2 1-1 5-3 3-1-5z" fill="#062D3A"/>
<path transform="translate(283,245)" d="m0 0h2l1 6v2l-4 1v-8z" fill="#00DEF6"/>
<path transform="translate(1506,143)" d="m0 0 10 1-3 3-12-2v-1z" fill="#091B20"/>
<path transform="translate(129,66)" d="m0 0h2l-1 5-7 8v-3l4-5v-4z" fill="#072934"/>
<path transform="translate(593,196)" d="m0 0 5 2 2 6-1 3-6-9z" fill="#032B33"/>
<path transform="translate(933,129)" d="m0 0h7v2l-7 4v-3z" fill="#00E1F0"/>
<path transform="translate(539,125)" d="m0 0h6l1 4-2 4-2-4-3-2z" fill="#04161B"/>
<path transform="translate(279,103)" d="m0 0 3 3 1 4h-4l-2-4z" fill="#00DBF5"/>
<path transform="translate(90,54)" d="m0 0 2 1 1 3v9l-1-4h-2z" fill="#071D23"/>
</svg>
