<svg xmlns="http://www.w3.org/2000/svg" width="255" height="35" viewBox="0 0 1457 200" fill="none">
  <defs>
    <linearGradient id="brandGradient" x1="30" y1="38" x2="1415" y2="164" gradientUnits="userSpaceOnUse">
      <stop offset="0" stop-color="#49F6FF"/>
      <stop offset="0.42" stop-color="#7E97FF"/>
      <stop offset="1" stop-color="#FF53D8"/>
    </linearGradient>
    <filter id="brandGlow" x="-8%" y="-32%" width="116%" height="164%" color-interpolation-filters="sRGB">
      <feGaussianBlur in="SourceGraphic" stdDeviation="8.5" result="blur"/>
      <feColorMatrix
        in="blur"
        type="matrix"
        values="1 0 0 0 0
                0 1 0 0 0
                0 0 1 0 0
                0 0 0 .9 0"
        result="glow"
      />
      <feMerge>
        <feMergeNode in="glow"/>
        <feMergeNode in="SourceGraphic"/>
      </feMerge>
    </filter>
  </defs>

  <g opacity=".58" filter="url(#brandGlow)" fill="url(#brandGradient)">
    <path d="M20 38H142L131 63H95V162H67V63H10Z"/>
    <path fill-rule="evenodd" d="M155 162 207 38h37l54 124h-30l-12-32h-61l-13 32Zm54-55h34l-17-40z" clip-rule="evenodd"/>
    <path d="M324 38h84l-15 25h-58l-15 16v18l17 14h49l27 22v1l-27 28h-97l14-26h71l14-15v-10l-17-14h-49l-27-23V66Z"/>
    <path d="M436 38h28v55l58-55h38l-61 57 68 67h-38l-50-49-15 14v35h-28Z"/>
    <path d="M588 38h28v98h81l-15 26H588Z"/>
    <path fill-rule="evenodd" d="M722 162 774 38h37l54 124h-30l-12-32h-61l-13 32Zm54-55h34l-17-40z" clip-rule="evenodd"/>
    <path d="M886 38h28v92l14 12h32l14-12V38h28v103l-30 21h-56l-30-21Z"/>
    <path d="M1042 162V38h27l67 82V38h28v124h-27l-67-82v82Z"/>
    <path d="M1269 38h-104l-31 29v66l31 29h104l-15-26h-77l-16-15V79l16-16h77Z"/>
    <path d="M1308 38h28v51h62V38h28v124h-28v-47h-62v47h-28Z"/>
  </g>

  <g fill="url(#brandGradient)">
    <path d="M20 38H142L131 63H95V162H67V63H10Z"/>
    <path fill-rule="evenodd" d="M155 162 207 38h37l54 124h-30l-12-32h-61l-13 32Zm54-55h34l-17-40z" clip-rule="evenodd"/>
    <path d="M324 38h84l-15 25h-58l-15 16v18l17 14h49l27 22v1l-27 28h-97l14-26h71l14-15v-10l-17-14h-49l-27-23V66Z"/>
    <path d="M436 38h28v55l58-55h38l-61 57 68 67h-38l-50-49-15 14v35h-28Z"/>
    <path d="M588 38h28v98h81l-15 26H588Z"/>
    <path fill-rule="evenodd" d="M722 162 774 38h37l54 124h-30l-12-32h-61l-13 32Zm54-55h34l-17-40z" clip-rule="evenodd"/>
    <path d="M886 38h28v92l14 12h32l14-12V38h28v103l-30 21h-56l-30-21Z"/>
    <path d="M1042 162V38h27l67 82V38h28v124h-27l-67-82v82Z"/>
    <path d="M1269 38h-104l-31 29v66l31 29h104l-15-26h-77l-16-15V79l16-16h77Z"/>
    <path d="M1308 38h28v51h62V38h28v124h-28v-47h-62v47h-28Z"/>
  </g>
</svg>
