<?xml version="1.0" encoding="UTF-8"?>
<!-- Generator: visioncortex VTracer 0.6.12 -->
<svg version="1.1" xmlns="http://www.w3.org/2000/svg" width="312" height="379">
<path d="M0 0 C30.69 0 61.38 0 93 0 C93.33 1.32 93.66 2.64 94 4 C95.65 4 97.3 4 99 4 C99 6.31 99 8.62 99 11 C100.98 11 102.96 11 105 11 C105 18.26 105 25.52 105 33 C107.64 33 110.28 33 113 33 C114 34 114 34 114.114 36.684 C114.108 37.852 114.103 39.019 114.098 40.223 C114.094 41.483 114.091 42.743 114.088 44.041 C114.08 45.382 114.071 46.722 114.062 48.062 C114.057 49.407 114.053 50.751 114.049 52.096 C114.037 55.397 114.021 58.699 114 62 C111.69 62.66 109.38 63.32 107 64 C107 65.98 107 67.96 107 70 C109.97 70 112.94 70 116 70 C116.967 73.974 117.047 77.533 116.879 81.613 C116.831 82.86 116.782 84.108 116.732 85.393 C116.676 86.686 116.62 87.98 116.562 89.312 C116.51 90.625 116.458 91.938 116.404 93.291 C116.275 96.528 116.14 99.764 116 103 C114.68 103 113.36 103 112 103 C112 105.64 112 108.28 112 111 C110.68 111.33 109.36 111.66 108 112 C107.34 119.92 106.68 127.84 106 136 C110.95 136 115.9 136 121 136 C121 139.63 121 143.26 121 147 C126.28 147 131.56 147 137 147 C137 149.97 137 152.94 137 156 C143.27 156.33 149.54 156.66 156 157 C156.286 161.075 156.571 165.15 156.854 169.225 C156.951 170.611 157.048 171.998 157.146 173.384 C157.285 175.377 157.424 177.37 157.562 179.363 C157.646 180.563 157.73 181.762 157.816 182.997 C157.939 184.995 158 186.998 158 189 C160.64 189.33 163.28 189.66 166 190 C167.452 194.537 168.235 198.181 168 203 C170.31 203.33 172.62 203.66 175 204 C175 207.3 175 210.6 175 214 C177.97 214 180.94 214 184 214 C184.66 226.54 185.32 239.08 186 252 C187.65 251.67 187.65 251.67 196 250 C196 264.52 196 279.04 196 294 C195.67 293.34 195.34 292.68 195 292 C191.04 292 187.08 292 183 292 C183 295.3 183 298.6 183 302 C179.37 302 175.74 302 172 302 C172 303.32 172 304.64 172 306 C168.37 306.165 168.37 306.165 150 307 C150 307.66 150 308.32 150 309 C149.34 309 148.68 309 148 309 C147.67 317.58 147.34 326.16 147 335 C150.63 335.33 154.26 335.66 158 336 C158 339.3 158 342.6 158 346 C161.96 346 165.92 346 170 346 C170.194 350.271 170.381 354.541 170.562 358.812 C170.619 360.027 170.675 361.242 170.732 362.494 C170.781 363.658 170.829 364.821 170.879 366.02 C170.926 367.093 170.973 368.167 171.022 369.273 C171 372 171 372 170 375 C171.65 375 173.3 375 175 375 C175 375.33 175 375.66 175 376 C139.36 376 103.72 376 67 376 C70 374 70 374 79 373 C79 357.16 79 341.32 79 325 C75.7 324.67 72.4 324.34 69 324 C69 320.04 69 316.08 69 312 C66.36 312 63.72 312 61 312 C61 308.37 61 304.74 61 301 C60.134 301.186 59.268 301.371 58.375 301.562 C54.948 302.007 52.358 301.72 49 301 C49 297.04 49 293.08 49 289 C42.4 289 35.8 289 29 289 C29.021 290.959 29.041 292.919 29.062 294.938 C29.084 296.958 29.072 298.98 29 301 C26.953 303.047 22.696 302.7 20 303 C20 305.97 20 308.94 20 312 C19.01 312.33 18.02 312.66 17 313 C16.67 314.98 16.67 314.98 15 325 C13.721 325.144 12.442 325.289 11.125 325.438 C8.743 325.706 7.155 325.922 5 327 C5.165 327.928 5.33 328.856 5.5 329.812 C5.957 333.104 6.161 336.365 6.25 339.688 C6.276 340.599 6.302 341.51 6.328 342.449 C5.917 345.649 5.488 346.909 3 349 C0.36 349 -2.28 349 -5 349 C-5 357.25 -5 365.5 -5 374 C-3.02 374.33 -1.04 374.66 1 375 C1 375.33 1 375.66 1 376 C-29.03 376 -59.06 376 -90 376 C-87 374 -87 374 -80 372 C-79.67 359.46 -79.34 346.92 -79 334 C-75.37 334 -71.74 334 -68 334 C-68 329.71 -68 325.42 -68 321 C-65.69 320.67 -63.38 320.34 -61 320 C-61.012 319.301 -61.023 318.603 -61.035 317.883 C-61.044 316.973 -61.053 316.063 -61.062 315.125 C-61.074 314.22 -61.086 313.315 -61.098 312.383 C-61 310 -61 310 -60 308 C-58.35 308 -56.7 308 -55 308 C-54.67 305.03 -54.34 302.06 -54 299 C-52.68 299 -51.36 299 -50 299 C-50 292.07 -50 285.14 -50 278 C-47.03 278 -44.06 278 -41 278 C-41 273.71 -41 269.42 -41 265 C-38.03 265 -35.06 265 -32 265 C-32 252.46 -32 239.92 -32 227 C-33 228 -33 228 -33.098 230.066 C-33.086 230.89 -33.074 231.714 -33.062 232.562 C-33.053 233.389 -33.044 234.215 -33.035 235.066 C-33.024 235.704 -33.012 236.343 -33 237 C-36.215 238.607 -39.436 238.057 -43 238 C-43.33 241.96 -43.66 245.92 -44 250 C-56.21 250 -68.42 250 -81 250 C-81 247.36 -81 244.72 -81 242 C-81.701 242.186 -82.403 242.371 -83.125 242.562 C-86.339 243.052 -88.836 242.662 -92 242 C-92.33 239.69 -92.66 237.38 -93 235 C-96.63 234.67 -100.26 234.34 -104 234 C-104.589 222.439 -105.1 210.89 -105.125 199.312 C-105.13 198.435 -105.134 197.558 -105.139 196.654 C-105.137 195.836 -105.135 195.018 -105.133 194.176 C-105.132 193.463 -105.131 192.751 -105.129 192.017 C-104.994 189.908 -104.574 188.03 -104 186 C-103.01 186 -102.02 186 -101 186 C-100.856 185.423 -100.711 184.845 -100.562 184.25 C-100.302 183.208 -100.302 183.208 -99 178 C-99.782 178.012 -100.565 178.023 -101.371 178.035 C-102.383 178.044 -103.395 178.053 -104.438 178.062 C-105.447 178.074 -106.456 178.086 -107.496 178.098 C-110 178 -110 178 -111 177 C-111.088 174.552 -111.115 172.132 -111.098 169.684 C-111.096 168.953 -111.095 168.221 -111.093 167.468 C-111.088 165.125 -111.075 162.781 -111.062 160.438 C-111.057 158.852 -111.053 157.267 -111.049 155.682 C-111.038 151.788 -111.021 147.894 -111 144 C-108.69 143.67 -106.38 143.34 -104 143 C-103.897 141.886 -103.794 140.773 -103.688 139.625 C-103.461 138.429 -103.234 137.232 -103 136 C-102.505 135.67 -102.505 135.67 -100 134 C-99.662 131.17 -99.511 128.548 -99.488 125.711 C-99.47 124.893 -99.452 124.074 -99.434 123.231 C-99.38 120.612 -99.346 117.994 -99.312 115.375 C-99.279 113.602 -99.245 111.828 -99.209 110.055 C-99.124 105.703 -99.057 101.352 -99 97 C-102.3 97 -105.6 97 -109 97 C-109 82.81 -109 68.62 -109 54 C-111.31 53.67 -113.62 53.34 -116 53 C-116 41.12 -116 29.24 -116 17 C-112.04 17.33 -108.08 17.66 -104 18 C-104 18.33 -104 18.66 -104 19 C-97.07 19.33 -90.14 19.66 -83 20 C-82.67 26.6 -82.34 33.2 -82 40 C-81.67 40.165 -81.67 40.165 -80 41 C-80 44.63 -80 48.26 -80 52 C-76.7 52 -73.4 52 -70 52 C-68.852 78.118 -68.852 78.118 -69 91 C-65.37 91 -61.74 91 -58 91 C-56.993 102.024 -56.894 112.94 -57 124 C-53.37 124 -49.74 124 -46 124 C-46 126.97 -46 129.94 -46 133 C-44.763 132.938 -43.525 132.876 -42.25 132.812 C-39.218 132.796 -38.178 132.893 -35.5 134.5 C-35.005 134.995 -34.51 135.49 -34 136 C-33.381 135.691 -32.763 135.381 -32.125 135.062 C-30.75 134.375 -29.375 133.688 -28 133 C-27.593 130.678 -27.256 128.343 -27 126 C-30.63 126.33 -34.26 126.66 -38 127 C-38 122.05 -38 117.1 -38 112 C-38.66 112 -39.32 112 -40 112 C-40 110.02 -40 108.04 -40 106 C-41.65 105.67 -43.3 105.34 -45 105 C-44.893 95.499 -44.78 85.998 -44.661 76.498 C-44.605 72.087 -44.552 67.676 -44.503 63.264 C-44.455 59.011 -44.403 54.758 -44.347 50.504 C-44.327 48.878 -44.308 47.251 -44.291 45.625 C-44.267 43.355 -44.237 41.085 -44.205 38.815 C-44.19 37.52 -44.174 36.225 -44.158 34.892 C-44 32 -44 32 -43 31 C-41.147 30.928 -39.292 30.916 -37.438 30.938 C-36.426 30.947 -35.414 30.956 -34.371 30.965 C-33.589 30.976 -32.806 30.988 -32 31 C-32 28.36 -32 25.72 -32 23 C-28.04 23 -24.08 23 -20 23 C-20 18.38 -20 13.76 -20 9 C-17.417 8.973 -14.833 8.953 -12.25 8.938 C-11.52 8.929 -10.791 8.921 -10.039 8.912 C-6.443 8.896 -3.515 9.121 0 10 C0 6.7 0 3.4 0 0 Z M194 252 C194 257.61 194 263.22 194 269 C194.33 269 194.66 269 195 269 C195 263.39 195 257.78 195 252 C194.67 252 194.34 252 194 252 Z M194 277 C194 278.65 194 280.3 194 282 C194.33 282 194.66 282 195 282 C195 280.35 195 278.7 195 277 C194.67 277 194.34 277 194 277 Z " fill="#040303" transform="translate(116,3)"/>
<path d="M0 0 C0.33 0 0.66 0 1 0 C0.67 5.28 0.34 10.56 0 16 C4.95 16 9.9 16 15 16 C15 19.63 15 23.26 15 27 C20.28 27 25.56 27 31 27 C31 29.97 31 32.94 31 36 C37.27 36.33 43.54 36.66 50 37 C50.286 41.075 50.571 45.15 50.854 49.225 C50.951 50.611 51.048 51.998 51.146 53.384 C51.285 55.377 51.424 57.37 51.562 59.363 C51.646 60.563 51.73 61.762 51.816 62.997 C51.939 64.995 52 66.998 52 69 C53.32 69.165 53.32 69.165 60 70 C61.452 74.537 62.235 78.181 62 83 C64.31 83.33 66.62 83.66 69 84 C69 87.3 69 90.6 69 94 C71.97 94 74.94 94 78 94 C78.66 106.54 79.32 119.08 80 132 C81.65 131.67 81.65 131.67 90 130 C90 144.52 90 159.04 90 174 C89.67 173.34 89.34 172.68 89 172 C85.04 172 81.08 172 77 172 C77 175.3 77 178.6 77 182 C73.37 182 69.74 182 66 182 C66 183.32 66 184.64 66 186 C58.74 186.33 51.48 186.66 44 187 C44 187.66 44 188.32 44 189 C43.34 189 42.68 189 42 189 C41.67 197.58 41.34 206.16 41 215 C44.63 215.33 48.26 215.66 52 216 C52 219.3 52 222.6 52 226 C55.96 226 59.92 226 64 226 C64.194 230.271 64.381 234.541 64.562 238.812 C64.619 240.027 64.675 241.242 64.732 242.494 C64.781 243.658 64.829 244.821 64.879 246.02 C64.926 247.093 64.973 248.167 65.022 249.273 C65 252 65 252 64 255 C65.65 255 67.3 255 69 255 C69 255.33 69 255.66 69 256 C33.36 256 -2.28 256 -39 256 C-36 254 -36 254 -27 253 C-27 237.16 -27 221.32 -27 205 C-30.3 204.67 -33.6 204.34 -37 204 C-37 200.04 -37 196.08 -37 192 C-39.64 192 -42.28 192 -45 192 C-45 188.37 -45 184.74 -45 181 C-45.866 181.186 -46.732 181.371 -47.625 181.562 C-51.052 182.007 -53.642 181.72 -57 181 C-57 177.04 -57 173.08 -57 169 C-63.6 169 -70.2 169 -77 169 C-76.979 170.959 -76.959 172.919 -76.938 174.938 C-76.916 176.958 -76.928 178.98 -77 181 C-79.047 183.047 -83.304 182.7 -86 183 C-86 185.97 -86 188.94 -86 192 C-86.99 192.33 -87.98 192.66 -89 193 C-89.66 196.96 -90.32 200.92 -91 205 C-91.639 205.072 -91.639 205.072 -94.875 205.438 C-97.257 205.706 -98.845 205.922 -101 207 C-100.835 207.928 -100.67 208.856 -100.5 209.812 C-100.043 213.104 -99.839 216.365 -99.75 219.688 C-99.724 220.599 -99.698 221.51 -99.672 222.449 C-100.083 225.649 -100.512 226.909 -103 229 C-105.64 229 -108.28 229 -111 229 C-111 237.25 -111 245.5 -111 254 C-109.02 254.33 -107.04 254.66 -105 255 C-105 255.33 -105 255.66 -105 256 C-135.03 256 -165.06 256 -196 256 C-193 254 -193 254 -186 252 C-185.67 239.46 -185.34 226.92 -185 214 C-181.37 214 -177.74 214 -174 214 C-174 209.71 -174 205.42 -174 201 C-171.69 200.67 -169.38 200.34 -167 200 C-167.012 199.301 -167.023 198.603 -167.035 197.883 C-167.044 196.973 -167.053 196.063 -167.062 195.125 C-167.074 194.22 -167.086 193.315 -167.098 192.383 C-167 190 -167 190 -166 188 C-164.35 188 -162.7 188 -161 188 C-160.67 185.03 -160.34 182.06 -160 179 C-158.68 179 -157.36 179 -156 179 C-156 172.07 -156 165.14 -156 158 C-153.03 158 -150.06 158 -147 158 C-147 153.71 -147 149.42 -147 145 C-144.03 145 -141.06 145 -138 145 C-138 132.46 -138 119.92 -138 107 C-139 108 -139 108 -139.098 110.066 C-139.086 110.89 -139.074 111.714 -139.062 112.562 C-139.053 113.389 -139.044 114.215 -139.035 115.066 C-139.024 115.704 -139.012 116.343 -139 117 C-142.215 118.607 -145.436 118.057 -149 118 C-149.165 119.98 -149.165 119.98 -150 130 C-162.21 130 -174.42 130 -187 130 C-187 127.36 -187 124.72 -187 122 C-187.701 122.186 -188.403 122.371 -189.125 122.562 C-192.339 123.052 -194.836 122.662 -198 122 C-198.33 119.69 -198.66 117.38 -199 115 C-198.34 115.33 -197.68 115.66 -197 116 C-197 117.65 -197 119.3 -197 121 C-193.37 121 -189.74 121 -186 121 C-186 123.64 -186 126.28 -186 129 C-180.225 128.835 -180.225 128.835 -151 128 C-151 124.37 -151 120.74 -151 117 C-148.03 117 -145.06 117 -142 117 C-142 113.37 -142 109.74 -142 106 C-140.35 106 -138.7 106 -137 106 C-137 119.53 -137 133.06 -137 147 C-139.64 147 -142.28 147 -145 147 C-145 150.63 -145 154.26 -145 158 C-141.7 158 -138.4 158 -135 158 C-135 152.39 -135 146.78 -135 141 C-116.19 141 -97.38 141 -78 141 C-78 136.71 -78 132.42 -78 128 C-66.78 128 -55.56 128 -44 128 C-44 132.29 -44 136.58 -44 141 C-34.925 140.835 -34.925 140.835 11 140 C11 133.73 11 127.46 11 121 C13.97 121 16.94 121 20 121 C20 128.59 20 136.18 20 144 C16.37 144 12.74 144 9 144 C9.33 144.99 9.66 145.98 10 147 C10.082 148.7 10.107 150.403 10.098 152.105 C10.094 153.088 10.091 154.071 10.088 155.084 C10.08 156.108 10.071 157.132 10.062 158.188 C10.058 159.223 10.053 160.259 10.049 161.326 C10.037 163.884 10.019 166.442 10 169 C13.63 169 17.26 169 21 169 C21 172.96 21 176.92 21 181 C24.3 181 27.6 181 31 181 C31 184.63 31 188.26 31 192 C9.309 192.143 -12.324 191.789 -34 191 C-34 187.37 -34 183.74 -34 180 C-36.97 180 -39.94 180 -43 180 C-43 176.04 -43 172.08 -43 168 C-46.63 168 -50.26 168 -54 168 C-54 164.37 -54 160.74 -54 157 C-62.25 157 -70.5 157 -79 157 C-79 160.63 -79 164.26 -79 168 C-82.96 168 -86.92 168 -91 168 C-91 175.92 -91 183.84 -91 192 C-90.01 192 -89.02 192 -88 192 C-88 188.04 -88 184.08 -88 180 C-84.7 180 -81.4 180 -78 180 C-78 176.04 -78 172.08 -78 168 C-70.74 168 -63.48 168 -56 168 C-56 171.96 -56 175.92 -56 180 C-52.04 180 -48.08 180 -44 180 C-44 183.63 -44 187.26 -44 191 C-41.36 191 -38.72 191 -36 191 C-36 194.96 -36 198.92 -36 203 C-32.7 203 -29.4 203 -26 203 C-26 219.17 -26 235.34 -26 252 C3.37 252 32.74 252 63 252 C63 243.75 63 235.5 63 227 C59.04 227 55.08 227 51 227 C51 223.7 51 220.4 51 217 C47.37 217 43.74 217 40 217 C40 206.44 40 195.88 40 185 C48.25 185 56.5 185 65 185 C65 183.35 65 181.7 65 180 C68.63 180 72.26 180 76 180 C76 177.03 76 174.06 76 171 C79.63 171 83.26 171 87 171 C87 158.46 87 145.92 87 133 C83.7 133 80.4 133 77 133 C77 120.46 77 107.92 77 95 C74.03 95 71.06 95 68 95 C68 98.63 68 102.26 68 106 C67.34 106 66.68 106 66 106 C66 105.34 66 104.68 66 104 C60.72 104 55.44 104 50 104 C50 106.31 50 108.62 50 111 C55.61 111 61.22 111 67 111 C67 114.96 67 118.92 67 123 C58.09 123 49.18 123 40 123 C40 116.4 40 109.8 40 103 C41.485 102.835 41.485 102.835 49 102 C49.33 99.69 49.66 97.38 50 95 C46.37 95 42.74 95 39 95 C39 87.41 39 79.82 39 72 C42.3 72 45.6 72 49 72 C49 60.78 49 49.56 49 38 C39.563 38.062 39.563 38.062 36.584 38.09 C35.815 38.093 35.046 38.095 34.254 38.098 C33.463 38.103 32.672 38.108 31.858 38.114 C30 38 30 38 29 37 C28.859 34.329 28.958 31.676 29 29 C25.37 29 21.74 29 18 29 C18 31.31 18 33.62 18 36 C21.3 36 24.6 36 28 36 C28 39.96 28 43.92 28 48 C25.333 48.027 22.667 48.047 20 48.062 C19.628 48.067 19.628 48.067 17.746 48.088 C17.005 48.091 16.264 48.094 15.5 48.098 C14.83 48.103 14.159 48.108 13.469 48.114 C9.963 47.952 6.482 47.435 3 47 C3 40.4 3 33.8 3 27 C6.63 27 10.26 27 14 27 C14 23.7 14 20.4 14 17 C8.39 17 2.78 17 -3 17 C-2.67 16.835 -2.67 16.835 -1 16 C-1.012 15.18 -1.023 14.36 -1.035 13.516 C-1.044 12.438 -1.053 11.36 -1.062 10.25 C-1.074 9.183 -1.086 8.115 -1.098 7.016 C-1.015 4.466 -0.746 2.421 0 0 Z M88 132 C88 137.61 88 143.22 88 149 C88.33 149 88.66 149 89 149 C89 143.39 89 137.78 89 132 C88.67 132 88.34 132 88 132 Z M88 157 C88 158.65 88 160.3 88 162 C88.33 162 88.66 162 89 162 C89 160.35 89 158.7 89 157 C88.67 157 88.34 157 88 157 Z " fill="#04356D" transform="translate(222,123)"/>
<path d="M0 0 C30.69 0 61.38 0 93 0 C93.33 1.32 93.66 2.64 94 4 C95.65 4 97.3 4 99 4 C99 6.31 99 8.62 99 11 C100.98 11 102.96 11 105 11 C105 18.26 105 25.52 105 33 C107.64 33 110.28 33 113 33 C114 34 114 34 114.114 36.684 C114.108 37.852 114.103 39.019 114.098 40.223 C114.094 41.483 114.091 42.743 114.088 44.041 C114.08 45.382 114.071 46.722 114.062 48.062 C114.057 49.407 114.053 50.751 114.049 52.096 C114.037 55.397 114.021 58.699 114 62 C111.69 62.66 109.38 63.32 107 64 C107 65.98 107 67.96 107 70 C109.97 70 112.94 70 116 70 C116.967 73.974 117.047 77.533 116.879 81.613 C116.831 82.86 116.782 84.108 116.732 85.393 C116.676 86.686 116.62 87.98 116.562 89.312 C116.51 90.625 116.458 91.938 116.404 93.291 C116.275 96.528 116.14 99.764 116 103 C114.68 103 113.36 103 112 103 C112 105.64 112 108.28 112 111 C110.68 111.33 109.36 111.66 108 112 C107.67 111.34 107.34 110.68 107 110 C108.32 110 109.64 110 111 110 C111 107.03 111 104.06 111 101 C111.99 101 112.98 101 114 101 C113.988 99.924 113.977 98.847 113.965 97.738 C113.899 88.761 114.129 79.942 115 71 C111.7 71 108.4 71 105 71 C105 67.7 105 64.4 105 61 C101.7 61 98.4 61 95 61 C95 63.97 95 66.94 95 70 C71.224 70.158 47.46 69.888 23.688 69.5 C22.954 69.488 22.22 69.476 21.464 69.464 C12.31 69.314 3.155 69.158 -6 69 C-6 57.78 -6 46.56 -6 35 C9.84 35 25.68 35 42 35 C42 37.31 42 39.62 42 42 C46.29 42 50.58 42 55 42 C55 39.69 55 37.38 55 35 C68.2 35 81.4 35 95 35 C95 30.71 95 26.42 95 22 C95.271 19.659 95.569 17.317 96 15 C98.31 15.66 100.62 16.32 103 17 C103.33 16.01 103.66 15.02 104 14 C102.35 14 100.7 14 99 14 C97.522 11.043 97.94 8.258 98 5 C96.02 5 94.04 5 92 5 C92 4.01 92 3.02 92 2 C61.97 2 31.94 2 1 2 C1 4.97 1 7.94 1 11 C-5.6 11 -12.2 11 -19 11 C-19 15.29 -19 19.58 -19 24 C-22.96 24 -26.92 24 -31 24 C-31 26.97 -31 29.94 -31 33 C-34.63 33 -38.26 33 -42 33 C-42 56.43 -42 79.86 -42 104 C-40.35 104 -38.7 104 -37 104 C-36.67 97.4 -36.34 90.8 -36 84 C-31.71 84 -27.42 84 -23 84 C-23 90.93 -23 97.86 -23 105 C-20.195 104.835 -20.195 104.835 -6 104 C-6 97.4 -6 90.8 -6 84 C-2.7 84 0.6 84 4 84 C4 87.96 4 91.92 4 96 C6.64 96 9.28 96 12 96 C12 99.63 12 103.26 12 107 C23.55 106.67 35.1 106.34 47 106 C47.66 102.37 48.32 98.74 49 95 C51.97 95 54.94 95 58 95 C58 91.7 58 88.4 58 85 C60.64 85 63.28 85 66 85 C66 88.96 66 92.92 66 97 C67.98 97 69.96 97 72 97 C72 100.96 72 104.92 72 109 C75.63 109.165 75.63 109.165 94 110 C94 117.92 94 125.84 94 134 C90.04 134 86.08 134 82 134 C82 137.63 82 141.26 82 145 C79.195 145.33 79.195 145.33 65 147 C64.266 151.405 63.825 155.294 63.684 159.711 C63.642 160.955 63.6 162.199 63.557 163.48 C63.517 164.766 63.478 166.051 63.438 167.375 C63.416 168.029 63.416 168.029 63.307 171.34 C63.201 174.56 63.099 177.78 63 181 C58.199 181.025 53.397 181.043 48.596 181.055 C46.966 181.06 45.337 181.067 43.708 181.075 C35.068 181.12 26.587 181.102 18 180 C18 175.38 18 170.76 18 166 C17.34 166 16.68 166 16 166 C16 159.4 16 152.8 16 146 C12.37 146 8.74 146 5 146 C5 142.37 5 138.74 5 135 C1.37 135 -2.26 135 -6 135 C-6 131.7 -6 128.4 -6 125 C-12.27 125 -18.54 125 -25 125 C-25.33 127.64 -25.66 130.28 -26 133 C-24.02 133 -22.04 133 -20 133 C-20 133.99 -20 134.98 -20 136 C-23.3 135.67 -26.6 135.34 -30 135 C-29.67 134.67 -29.67 134.67 -28 133 C-27.6 130.677 -27.26 128.343 -27 126 C-28.815 126.165 -28.815 126.165 -38 127 C-38 122.05 -38 117.1 -38 112 C-38.66 112 -39.32 112 -40 112 C-40 110.02 -40 108.04 -40 106 C-41.65 105.67 -43.3 105.34 -45 105 C-44.893 95.499 -44.78 85.998 -44.661 76.498 C-44.605 72.087 -44.552 67.676 -44.503 63.264 C-44.455 59.011 -44.403 54.758 -44.347 50.504 C-44.327 48.878 -44.308 47.251 -44.291 45.625 C-44.267 43.355 -44.237 41.085 -44.205 38.815 C-44.19 37.52 -44.174 36.225 -44.158 34.892 C-44 32 -44 32 -43 31 C-41.147 30.928 -39.292 30.916 -37.438 30.938 C-36.426 30.947 -35.414 30.956 -34.371 30.965 C-33.98 30.971 -33.98 30.971 -32 31 C-32 28.36 -32 25.72 -32 23 C-28.04 23 -24.08 23 -20 23 C-20 18.38 -20 13.76 -20 9 C-17.417 8.973 -14.833 8.953 -12.25 8.938 C-11.52 8.929 -10.791 8.921 -10.039 8.912 C-6.443 8.896 -3.515 9.121 0 10 C0 6.7 0 3.4 0 0 Z " fill="#892A03" transform="translate(116,3)"/>
<path d="M0 0 C3.96 0 7.92 0 12 0 C12 3.96 12 7.92 12 12 C12.918 11.918 12.918 11.918 17.562 11.5 C28.037 10.734 38.502 10.938 49 11 C49 18.26 49 25.52 49 33 C45.37 33 41.74 33 38 33 C38 34.65 38 36.3 38 38 C29.75 38 21.5 38 13 38 C13 48.56 13 59.12 13 70 C16.63 70 20.26 70 24 70 C24 73.3 24 76.6 24 80 C27.96 80 31.92 80 36 80 C36 88.25 36 96.5 36 105 C6.63 105 -22.74 105 -53 105 C-53 88.5 -53 72 -53 55 C-55.97 55 -58.94 55 -62 55 C-62 51.7 -62 48.4 -62 45 C-51.11 45 -40.22 45 -29 45 C-29 48.63 -29 52.26 -29 56 C-17.78 56 -6.56 56 5 56 C5 41.15 5 26.3 5 11 C3.35 11 1.7 11 0 11 C0 7.37 0 3.74 0 0 Z " fill="#020203" transform="translate(249,270)"/>
<path d="M0 0 C2.64 0 5.28 0 8 0 C8 6.93 8 13.86 8 21 C5.03 21 2.06 21 -1 21 C-0.979 22.402 -0.959 23.805 -0.938 25.25 C-1.002 31.177 -1.508 37.093 -2 43 C11.2 43 24.4 43 38 43 C38 39.37 38 35.74 38 32 C45.92 32 53.84 32 62 32 C62 35.96 62 39.92 62 44 C58.7 44 55.4 44 52 44 C52 51.26 52 58.52 52 66 C49.03 66 46.06 66 43 66 C43 66.66 43 67.32 43 68 C45.64 68 48.28 68 51 68 C51 68.33 51 68.66 51 69 C48.36 69 45.72 69 43 69 C43 77.25 43 85.5 43 94 C44.98 94.33 46.96 94.66 49 95 C49 95.33 49 95.66 49 96 C18.97 96 -11.06 96 -42 96 C-39 94 -39 94 -32 92 C-31.67 79.46 -31.34 66.92 -31 54 C-27.37 54 -23.74 54 -20 54 C-20 49.71 -20 45.42 -20 41 C-17.36 41 -14.72 41 -12 41 C-11.67 37.37 -11.34 33.74 -11 30 C-9.02 30 -7.04 30 -5 30 C-5 26.7 -5 23.4 -5 20 C-3.35 20 -1.7 20 0 20 C0 13.4 0 6.8 0 0 Z " fill="#010102" transform="translate(68,283)"/>
<path d="M0 0 C30.03 0 60.06 0 91 0 C91 0.99 91 1.98 91 3 C92.98 3 94.96 3 97 3 C97.33 5.97 97.66 8.94 98 12 C99.65 12 101.3 12 103 12 C103 18.6 103 25.2 103 32 C102.67 32 102.34 32 102 32 C101.67 26.39 101.34 20.78 101 15 C100.34 14.835 100.34 14.835 97 14 C95 20 95 20 94 33 C80.8 33 67.6 33 54 33 C54 35.31 54 37.62 54 40 C49.71 40 45.42 40 41 40 C41 37.69 41 35.38 41 33 C25.16 33 9.32 33 -7 33 C-7 44.22 -7 55.44 -7 67 C-15.25 67 -23.5 67 -32 67 C-32 63.37 -32 59.74 -32 56 C-28.37 56 -24.74 56 -21 56 C-21 52.37 -21 48.74 -21 45 C-20.01 45 -19.02 45 -18 45 C-18 40.71 -18 36.42 -18 32 C-18.99 32 -19.98 32 -21 32 C-21 35.96 -21 39.92 -21 44 C-24.63 44 -28.26 44 -32 44 C-32 36.74 -32 29.48 -32 22 C-28.04 22 -24.08 22 -20 22 C-20 17.71 -20 13.42 -20 9 C-13.4 9 -6.8 9 0 9 C0 6.03 0 3.06 0 0 Z " fill="#230700" transform="translate(117,5)"/>
<path d="M0 0 C3.3 0 6.6 0 10 0 C10 3.96 10 7.92 10 12 C12.64 12 15.28 12 18 12 C18 15.63 18 19.26 18 23 C29.55 22.67 41.1 22.34 53 22 C53.66 18.37 54.32 14.74 55 11 C57.97 11 60.94 11 64 11 C64 7.7 64 4.4 64 1 C66.64 1 69.28 1 72 1 C72 4.96 72 8.92 72 13 C73.98 13 75.96 13 78 13 C78 16.96 78 20.92 78 25 C81.63 25.165 81.63 25.165 100 26 C100 33.92 100 41.84 100 50 C96.04 50 92.08 50 88 50 C88 53.63 88 57.26 88 61 C70.84 61 53.68 61 36 61 C36 57.37 36 53.74 36 50 C31.38 50 26.76 50 22 50 C22 46.7 22 43.4 22 40 C18.37 40 14.74 40 11 40 C11 34.06 11 28.12 11 22 C6.71 22 2.42 22 -2 22 C-2 27.94 -2 33.88 -2 40 C-7.61 40 -13.22 40 -19 40 C-19 33.73 -19 27.46 -19 21 C-22.3 21 -25.6 21 -29 21 C-29 14.4 -29 7.8 -29 1 C-25.04 1 -21.08 1 -17 1 C-17 7.6 -17 14.2 -17 21 C-14.195 20.835 -14.195 20.835 0 20 C0 13.4 0 6.8 0 0 Z " fill="#F98C27" transform="translate(110,87)"/>
<path d="M0 0 C15.84 0 31.68 0 48 0 C48 2.31 48 4.62 48 7 C52.29 7 56.58 7 61 7 C61 5.02 61 3.04 61 1 C73.87 1 86.74 1 100 1 C100 12.22 100 23.44 100 35 C76.576 35.105 53.17 34.881 29.75 34.5 C29.016 34.488 28.281 34.476 27.524 34.464 C18.349 34.314 9.175 34.158 0 34 C0 22.78 0 11.56 0 0 Z " fill="#FC9740" transform="translate(110,38)"/>
<path d="M0 0 C0.33 0 0.66 0 1 0 C0.67 5.28 0.34 10.56 0 16 C4.95 16 9.9 16 15 16 C15 19.63 15 23.26 15 27 C20.28 27 25.56 27 31 27 C31 29.97 31 32.94 31 36 C37.27 36.33 43.54 36.66 50 37 C50.286 41.075 50.571 45.15 50.854 49.225 C50.951 50.611 51.048 51.998 51.146 53.384 C51.285 55.377 51.424 57.37 51.562 59.363 C51.646 60.563 51.73 61.762 51.816 62.997 C51.939 64.995 52 66.998 52 69 C54.64 69.33 57.28 69.66 60 70 C61.452 74.537 62.235 78.181 62 83 C64.31 83.33 66.62 83.66 69 84 C69 87.3 69 90.6 69 94 C71.97 94 74.94 94 78 94 C78.33 100.27 78.33 100.27 80 132 C83.3 131.34 86.6 130.68 90 130 C90 144.52 90 159.04 90 174 C89.67 173.34 89.34 172.68 89 172 C85.04 172 81.08 172 77 172 C77 175.3 77 178.6 77 182 C73.37 182 69.74 182 66 182 C66 183.32 66 184.64 66 186 C58.74 186.33 51.48 186.66 44 187 C44 187.66 44 188.32 44 189 C43.34 189 42.68 189 42 189 C41.67 197.58 41.34 206.16 41 215 C44.63 215.33 48.26 215.66 52 216 C52 219.3 52 222.6 52 226 C55.96 226 59.92 226 64 226 C64.194 230.271 64.381 234.541 64.562 238.812 C64.619 240.027 64.675 241.242 64.732 242.494 C64.781 243.658 64.829 244.821 64.879 246.02 C64.926 247.093 64.973 248.167 65.022 249.273 C65 252 65 252 64 255 C65.65 255 67.3 255 69 255 C69 255.33 69 255.66 69 256 C33.36 256 -2.28 256 -39 256 C-36 254 -36 254 -27 253 C-27 237.16 -27 221.32 -27 205 C-30.3 204.67 -33.6 204.34 -37 204 C-37 200.04 -37 196.08 -37 192 C-39.64 192 -42.28 192 -45 192 C-45 188.37 -45 184.74 -45 181 C-45.866 181.186 -46.733 181.371 -47.625 181.562 C-51.052 182.007 -53.642 181.72 -57 181 C-57 177.04 -57 173.08 -57 169 C-63.6 169 -70.2 169 -77 169 C-76.979 170.959 -76.959 172.919 -76.938 174.938 C-76.916 176.958 -76.928 178.98 -77 181 C-79.047 183.047 -83.304 182.7 -86 183 C-86 185.97 -86 188.94 -86 192 C-86.99 192.33 -87.98 192.66 -89 193 C-89.33 195.97 -89.66 198.94 -90 202 C-90.33 202 -90.66 202 -91 202 C-91 198.7 -91 195.4 -91 192 C-90.01 192 -89.02 192 -88 192 C-88 188.04 -88 184.08 -88 180 C-84.7 180 -81.4 180 -78 180 C-78 176.04 -78 172.08 -78 168 C-70.74 168 -63.48 168 -56 168 C-56 171.96 -56 175.92 -56 180 C-52.04 180 -48.08 180 -44 180 C-44 183.63 -44 187.26 -44 191 C-41.36 191 -38.72 191 -36 191 C-36 194.96 -36 198.92 -36 203 C-32.7 203 -29.4 203 -26 203 C-26 219.17 -26 235.34 -26 252 C3.37 252 32.74 252 63 252 C63 243.75 63 235.5 63 227 C59.04 227 55.08 227 51 227 C51 223.7 51 220.4 51 217 C47.37 217 43.74 217 40 217 C40 206.44 40 195.88 40 185 C48.25 185 56.5 185 65 185 C65 183.35 65 181.7 65 180 C68.63 180 72.26 180 76 180 C76 177.03 76 174.06 76 171 C79.63 171 83.26 171 87 171 C87 158.46 87 145.92 87 133 C83.7 133 80.4 133 77 133 C77 120.46 77 107.92 77 95 C74.03 95 71.06 95 68 95 C68 98.63 68 102.26 68 106 C67.34 106 66.68 106 66 106 C66 105.34 66 104.68 66 104 C60.72 104 55.44 104 50 104 C50 106.31 50 108.62 50 111 C55.61 111 61.22 111 67 111 C67 114.96 67 118.92 67 123 C58.09 123 49.18 123 40 123 C40 116.4 40 109.8 40 103 C41.485 102.835 41.485 102.835 49 102 C49.33 99.69 49.66 97.38 50 95 C46.37 95 42.74 95 39 95 C39 87.41 39 79.82 39 72 C42.3 72 45.6 72 49 72 C49 60.78 49 49.56 49 38 C39.563 38.062 39.563 38.062 36.584 38.09 C35.815 38.093 35.046 38.095 34.254 38.098 C33.463 38.103 32.672 38.108 31.858 38.114 C30 38 30 38 29 37 C28.859 34.329 28.958 31.676 29 29 C25.37 29 21.74 29 18 29 C18 31.31 18 33.62 18 36 C21.3 36 24.6 36 28 36 C28 39.96 28 43.92 28 48 C25.333 48.027 22.667 48.047 20 48.062 C19.628 48.067 19.628 48.067 17.746 48.088 C17.005 48.091 16.264 48.094 15.5 48.098 C14.83 48.103 14.159 48.108 13.469 48.114 C9.963 47.952 6.482 47.435 3 47 C3 40.4 3 33.8 3 27 C6.63 27 10.26 27 14 27 C14 23.7 14 20.4 14 17 C8.39 17 2.78 17 -3 17 C-2.67 16.835 -2.67 16.835 -1 16 C-1.012 15.18 -1.023 14.36 -1.035 13.516 C-1.044 12.438 -1.053 11.36 -1.062 10.25 C-1.074 9.183 -1.086 8.115 -1.098 7.016 C-1.015 4.466 -0.746 2.421 0 0 Z M88 132 C88 137.61 88 143.22 88 149 C88.33 149 88.66 149 89 149 C89 143.39 89 137.78 89 132 C88.67 132 88.34 132 88 132 Z M88 157 C88 158.65 88 160.3 88 162 C88.33 162 88.66 162 89 162 C89 160.35 89 158.7 89 157 C88.67 157 88.34 157 88 157 Z " fill="#5D6574" transform="translate(222,123)"/>
<path d="M0 0 C8.25 0 16.5 0 25 0 C25 2.64 25 5.28 25 8 C28.3 8 31.6 8 35 8 C35 18.89 35 29.78 35 41 C32.36 40.67 29.72 40.34 27 40 C27.012 40.782 27.023 41.565 27.035 42.371 C27.044 43.383 27.053 44.395 27.062 45.438 C27.074 46.447 27.086 47.456 27.098 48.496 C27 51 27 51 26 52 C24.294 52.157 22.583 52.251 20.871 52.316 C19.837 52.358 18.802 52.4 17.736 52.443 C16.648 52.483 15.559 52.522 14.438 52.562 C13.891 52.584 13.891 52.584 11.127 52.693 C8.418 52.8 5.709 52.902 3 53 C2.67 53.99 2.34 54.98 2 56 C-1.63 56 -5.26 56 -9 56 C-9.962 49.626 -10.107 43.441 -10 37 C-12.31 37 -14.62 37 -17 37 C-17 30.73 -17 24.46 -17 18 C-14.69 18 -12.38 18 -10 18 C-10 14.7 -10 11.4 -10 8 C-6.7 8 -3.4 8 0 8 C0 5.36 0 2.72 0 0 Z " fill="#1C2A42" transform="translate(34,132)"/>
<path d="M0 0 C3.96 0.33 7.92 0.66 12 1 C12 1.33 12 1.66 12 2 C18.93 2.33 25.86 2.66 33 3 C33.33 9.6 33.66 16.2 34 23 C34.66 23.33 35.32 23.66 36 24 C36 27.63 36 31.26 36 35 C39.3 35 42.6 35 46 35 C47.148 61.118 47.148 61.118 47 74 C50.63 74 54.26 74 58 74 C59.007 85.024 59.106 95.94 59 107 C62.63 107 66.26 107 70 107 C70 109.97 70 112.94 70 116 C71.237 115.938 72.475 115.876 73.75 115.812 C77.482 115.793 79.204 116.419 82 119 C82.66 119 83.32 119 84 119 C84 121.97 84 124.94 84 128 C82.35 128 80.7 128 79 128 C79 125.03 79 122.06 79 119 C75.7 119 72.4 119 69 119 C69 115.37 69 111.74 69 108 C65.04 108 61.08 108 57 108 C57 97.44 57 86.88 57 76 C53.37 76 49.74 76 46 76 C45.126 67.049 44.877 58.24 44.938 49.25 C44.942 47.969 44.947 46.687 44.951 45.367 C44.963 42.245 44.979 39.122 45 36 C41.7 36 38.4 36 35 36 C35 32.37 35 28.74 35 25 C31.04 24.67 27.08 24.34 23 24 C23 20.7 23 17.4 23 14 C18.71 13.67 14.42 13.34 10 13 C10.012 14.173 10.023 15.346 10.035 16.555 C10.164 37.044 9.539 57.52 9 78 C11.64 78 14.28 78 17 78 C16.835 75.855 16.835 75.855 16 65 C15.67 65 15.34 65 15 65 C15 62.69 15 60.38 15 58 C17.64 58 20.28 58 23 58 C23 47.11 23 36.22 23 25 C25.31 25 27.62 25 30 25 C30.33 32.26 30.66 39.52 31 47 C32.32 47 33.64 47 35 47 C34.67 61.19 34.34 75.38 34 90 C30.7 89.67 27.4 89.34 24 89 C24 85.7 24 82.4 24 79 C22.35 79 20.7 79 19 79 C19 92.2 19 105.4 19 119 C17.35 119 15.7 119 14 119 C14.33 118.67 14.33 118.67 16 117 C16.246 114.208 16.374 111.508 16.414 108.711 C16.433 107.893 16.453 107.074 16.473 106.231 C16.533 103.612 16.579 100.994 16.625 98.375 C16.663 96.602 16.702 94.828 16.742 93.055 C16.838 88.703 16.922 84.352 17 80 C13.7 80 10.4 80 7 80 C7 65.81 7 51.62 7 37 C4.69 36.67 2.38 36.34 0 36 C0 24.12 0 12.24 0 0 Z " fill="#262C3F" transform="translate(0,20)"/>
<path d="M0 0 C2.64 0 5.28 0 8 0 C8 8.25 8 16.5 8 25 C5.69 25 3.38 25 1 25 C1 28.3 1 31.6 1 35 C-2.96 35 -6.92 35 -11 35 C-11 36.65 -11 38.3 -11 40 C-7.04 40 -3.08 40 1 40 C1 39.01 1 38.02 1 37 C4.63 37 8.26 37 12 37 C12 37.99 12 38.98 12 40 C15.63 40 19.26 40 23 40 C23 43.63 23 47.26 23 51 C19.7 51 16.4 51 13 51 C13 54.63 13 58.26 13 62 C9.04 62 5.08 62 1 62 C1 65.63 1 69.26 1 73 C-2.96 73 -6.92 73 -11 73 C-11 76.3 -11 79.6 -11 83 C-14.3 83 -17.6 83 -21 83 C-21 64.52 -21 46.04 -21 27 C-17.7 27 -14.4 27 -11 27 C-11 23.04 -11 19.08 -11 15 C-7.7 14.67 -4.4 14.34 -1 14 C-0.67 9.38 -0.34 4.76 0 0 Z " fill="#3E4B62" transform="translate(210,144)"/>
<path d="M0 0 C2.97 0 5.94 0 9 0 C9 7.59 9 15.18 9 23 C5.37 23 1.74 23 -2 23 C-1.835 23.495 -1.835 23.495 -1 26 C-0.918 27.7 -0.893 29.403 -0.902 31.105 C-0.906 32.088 -0.909 33.071 -0.912 34.084 C-0.916 34.596 -0.916 34.596 -0.938 37.188 C-0.942 38.223 -0.947 39.259 -0.951 40.326 C-0.963 42.884 -0.981 45.442 -1 48 C2.63 48 6.26 48 10 48 C10 51.96 10 55.92 10 60 C13.3 60 16.6 60 20 60 C20 63.63 20 67.26 20 71 C9.44 71 -1.12 71 -12 71 C-12 63.41 -12 55.82 -12 48 C-19.92 48 -27.84 48 -36 48 C-36 44.37 -36 40.74 -36 37 C-39.3 37 -42.6 37 -46 37 C-46 34.03 -46 31.06 -46 28 C-34.78 28 -23.56 28 -12 28 C-12 26.02 -12 24.04 -12 22 C-26.19 21.67 -40.38 21.34 -55 21 C-55 20.67 -55 20.34 -55 20 C-45.925 19.835 -45.925 19.835 0 19 C0 12.73 0 6.46 0 0 Z " fill="#4F9ED5" transform="translate(233,244)"/>
<path d="M0 0 C4.29 0 8.58 0 13 0 C13.33 3.63 13.66 7.26 14 11 C31.82 11.33 49.64 11.66 68 12 C68 15.63 68 19.26 68 23 C70.97 23 73.94 23 77 23 C77 26.63 77 30.26 77 34 C54.99 34.205 33.001 33.581 11 33 C11 29.7 11 26.4 11 23 C7.37 23 3.74 23 0 23 C0 15.41 0 7.82 0 0 Z " fill="#FCBB72" transform="translate(121,39)"/>
<path d="M0 0 C2.64 0 5.28 0 8 0 C8 3.96 8 7.92 8 12 C9.98 12 11.96 12 14 12 C14 15.96 14 19.92 14 24 C17.63 24.165 17.63 24.165 36 25 C36 32.92 36 40.84 36 49 C28.74 49 21.48 49 14 49 C14 43.72 14 38.44 14 33 C5.09 33 -3.82 33 -13 33 C-13 35.31 -13 37.62 -13 40 C-19.152 40.098 -19.152 40.098 -21 40 C-21.165 39.835 -21.165 39.835 -22 39 C-22 36.36 -22 33.72 -22 31 C-28.6 31 -35.2 31 -42 31 C-42 28.03 -42 25.06 -42 22 C-36.885 21.835 -36.885 21.835 -11 21 C-10.34 17.37 -9.68 13.74 -9 10 C-6.03 10 -3.06 10 0 10 C0 6.7 0 3.4 0 0 Z " fill="#F8A14B" transform="translate(174,88)"/>
<path d="M0 0 C5.61 0 11.22 0 17 0 C17 2.97 17 5.94 17 9 C13.04 9 9.08 9 5 9 C5 12.96 5 16.92 5 21 C1.04 21 -2.92 21 -7 21 C-7 36.18 -7 51.36 -7 67 C-15.25 67 -23.5 67 -32 67 C-32 63.37 -32 59.74 -32 56 C-28.37 56 -24.74 56 -21 56 C-21 52.37 -21 48.74 -21 45 C-20.01 45 -19.02 45 -18 45 C-18 40.71 -18 36.42 -18 32 C-18.99 32 -19.98 32 -21 32 C-21 35.96 -21 39.92 -21 44 C-24.63 44 -28.26 44 -32 44 C-32 36.74 -32 29.48 -32 22 C-28.04 22 -24.08 22 -20 22 C-20 17.71 -20 13.42 -20 9 C-13.4 9 -6.8 9 0 9 C0 6.03 0 3.06 0 0 Z " fill="#4D1702" transform="translate(117,5)"/>
<path d="M0 0 C30.69 0 61.38 0 93 0 C93.33 1.32 93.66 2.64 94 4 C95.65 4 97.3 4 99 4 C99 6.31 99 8.62 99 11 C100.98 11 102.96 11 105 11 C105 18.26 105 25.52 105 33 C107.64 33 110.28 33 113 33 C114 34 114 34 114.114 36.684 C114.108 37.852 114.103 39.019 114.098 40.223 C114.094 41.483 114.091 42.743 114.088 44.041 C114.08 45.382 114.071 46.722 114.062 48.062 C114.057 49.407 114.053 50.751 114.049 52.096 C114.037 55.397 114.021 58.699 114 62 C111.69 62.66 109.38 63.32 107 64 C107 65.98 107 67.96 107 70 C109.97 70 112.94 70 116 70 C116.967 73.974 117.047 77.533 116.879 81.613 C116.831 82.86 116.782 84.108 116.732 85.393 C116.676 86.686 116.62 87.98 116.562 89.312 C116.51 90.625 116.458 91.938 116.404 93.291 C116.275 96.528 116.14 99.764 116 103 C114.68 103 113.36 103 112 103 C112 105.64 112 108.28 112 111 C110.68 111.33 109.36 111.66 108 112 C107.67 111.34 107.34 110.68 107 110 C108.32 110 109.64 110 111 110 C111 107.03 111 104.06 111 101 C111.99 101 112.98 101 114 101 C113.988 99.924 113.977 98.847 113.965 97.738 C113.899 88.761 114.129 79.942 115 71 C111.7 71 108.4 71 105 71 C105 67.7 105 64.4 105 61 C101.7 61 98.4 61 95 61 C95 63.97 95 66.94 95 70 C94.67 70 94.34 70 94 70 C94 58.78 94 47.56 94 36 C81.13 36 68.26 36 55 36 C55 35.67 55 35.34 55 35 C68.2 35 81.4 35 95 35 C95 30.71 95 26.42 95 22 C95.271 19.659 95.569 17.317 96 15 C98.31 15.66 100.62 16.32 103 17 C103.33 16.01 103.66 15.02 104 14 C102.35 14 100.7 14 99 14 C97.522 11.043 97.94 8.258 98 5 C96.02 5 94.04 5 92 5 C92 4.01 92 3.02 92 2 C61.97 2 31.94 2 1 2 C1 4.97 1 7.94 1 11 C-5.6 11 -12.2 11 -19 11 C-19 15.29 -19 19.58 -19 24 C-22.96 24 -26.92 24 -31 24 C-31 26.97 -31 29.94 -31 33 C-34.63 33 -38.26 33 -42 33 C-42 56.43 -42 79.86 -42 104 C-40.35 104 -38.7 104 -37 104 C-37 110.93 -37 117.86 -37 125 C-33.37 125 -29.74 125 -26 125 C-26 127.64 -26 130.28 -26 133 C-24.02 133 -22.04 133 -20 133 C-20 133.99 -20 134.98 -20 136 C-23.3 135.67 -26.6 135.34 -30 135 C-29.67 134.67 -29.67 134.67 -28 133 C-27.6 130.677 -27.26 128.343 -27 126 C-28.815 126.165 -28.815 126.165 -38 127 C-38 122.05 -38 117.1 -38 112 C-38.66 112 -39.32 112 -40 112 C-40 110.02 -40 108.04 -40 106 C-41.65 105.67 -43.3 105.34 -45 105 C-44.893 95.499 -44.78 85.998 -44.661 76.498 C-44.605 72.087 -44.552 67.676 -44.503 63.264 C-44.455 59.011 -44.403 54.758 -44.347 50.504 C-44.327 48.878 -44.308 47.251 -44.291 45.625 C-44.267 43.355 -44.237 41.085 -44.205 38.815 C-44.19 37.52 -44.174 36.225 -44.158 34.892 C-44 32 -44 32 -43 31 C-41.147 30.928 -39.292 30.916 -37.438 30.938 C-36.426 30.947 -35.414 30.956 -34.371 30.965 C-33.98 30.971 -33.98 30.971 -32 31 C-32 28.36 -32 25.72 -32 23 C-28.04 23 -24.08 23 -20 23 C-20 18.38 -20 13.76 -20 9 C-17.417 8.973 -14.833 8.953 -12.25 8.938 C-11.52 8.929 -10.791 8.921 -10.039 8.912 C-6.443 8.896 -3.515 9.121 0 10 C0 6.7 0 3.4 0 0 Z " fill="#642504" transform="translate(116,3)"/>
<path d="M0 0 C18.81 0 37.62 0 57 0 C57 2.64 57 5.28 57 8 C53.7 8 50.4 8 47 8 C47 15.92 47 23.84 47 32 C43.37 32 39.74 32 36 32 C36 34.31 36 36.62 36 39 C31.71 39 27.42 39 23 39 C23 36.69 23 34.38 23 32 C19.04 32 15.08 32 11 32 C11 24.08 11 16.16 11 8 C7.37 8 3.74 8 0 8 C0 5.36 0 2.72 0 0 Z " fill="#571F00" transform="translate(135,6)"/>
<path d="M0 0 C7.59 0 15.18 0 23 0 C23 2.97 23 5.94 23 9 C19.37 9 15.74 9 12 9 C12 16.59 12 24.18 12 32 C8.04 32 4.08 32 0 32 C0.021 33.629 0.041 35.259 0.062 36.938 C0.084 38.625 0.072 40.314 0 42 C-0.33 42.33 -0.66 42.66 -1 43 C-1.33 46.63 -1.66 50.26 -2 54 C-11.9 54 -21.8 54 -32 54 C-32 50.04 -32 46.08 -32 42 C-25.07 42 -18.14 42 -11 42 C-11 38.7 -11 35.4 -11 32 C-14.63 32 -18.26 32 -22 32 C-22 28.04 -22 24.08 -22 20 C-18.37 20 -14.74 20 -11 20 C-11 16.37 -11 12.74 -11 9 C-7.37 9 -3.74 9 0 9 C0 6.03 0 3.06 0 0 Z " fill="#4B9AD2" transform="translate(108,272)"/>
<path d="M0 0 C8.25 0 16.5 0 25 0 C25 3.63 25 7.26 25 11 C28.63 11 32.26 11 36 11 C36 14.96 36 18.92 36 23 C38.97 23 41.94 23 45 23 C45 26.63 45 30.26 45 34 C45.832 33.995 46.664 33.99 47.521 33.984 C68.372 33.872 89.164 34.208 110 35 C110 31.37 110 27.74 110 24 C106.7 24 103.4 24 100 24 C100 20.37 100 16.74 100 13 C103.63 13 107.26 13 111 13 C111 23.89 111 34.78 111 46 C99.78 46 88.56 46 77 46 C77 42.37 77 38.74 77 35 C66.11 35 55.22 35 44 35 C44 38.3 44 41.6 44 45 C46.97 45 49.94 45 53 45 C53 45.33 53 45.66 53 46 C49.7 46 46.4 46 43 46 C43 42.04 43 38.08 43 34 C40.36 34 37.72 34 35 34 C35 30.37 35 26.74 35 23 C31.04 23 27.08 23 23 23 C23 19.04 23 15.08 23 11 C15.74 11 8.48 11 1 11 C1 14.96 1 18.92 1 23 C-2.3 23 -5.6 23 -9 23 C-9 26.96 -9 30.92 -9 35 C-9.99 35 -10.98 35 -12 35 C-12 27.08 -12 19.16 -12 11 C-8.04 11 -4.08 11 0 11 C0 7.37 0 3.74 0 0 Z " fill="#0B192B" transform="translate(143,280)"/>
<path d="M0 0 C0.33 0 0.66 0 1 0 C1.33 2.64 1.66 5.28 2 8 C4.64 8.33 7.28 8.66 10 9 C10 6.69 10 4.38 10 2 C18.91 2 27.82 2 37 2 C37 7.28 37 12.56 37 18 C40.3 18 43.6 18 47 18 C47 21.63 47 25.26 47 29 C29.84 29 12.68 29 -5 29 C-5 22.73 -5 16.46 -5 10 C-3.35 9.67 -1.7 9.34 0 9 C0 6.03 0 3.06 0 0 Z " fill="#FCA34B" transform="translate(151,119)"/>
<path d="M0 0 C8.25 0 16.5 0 25 0 C25 2.64 25 5.28 25 8 C28.3 8 31.6 8 35 8 C35 16.25 35 24.5 35 33 C23.78 33 12.56 33 1 33 C0.649 29.04 0.299 25.08 -0.062 21 C-0.176 19.768 -0.29 18.535 -0.406 17.266 C-0.49 16.27 -0.574 15.275 -0.66 14.25 C-0.749 13.245 -0.838 12.239 -0.93 11.203 C-1 8 -1 8 0 0 Z " fill="#FBA24C" transform="translate(34,132)"/>
<path d="M0 0 C3.3 0 6.6 0 10 0 C10 14.19 10 28.38 10 43 C6.7 43 3.4 43 0 43 C0 39.37 0 35.74 0 32 C-2.145 32.165 -2.145 32.165 -13 33 C-13 29.04 -13 25.08 -13 21 C-16.96 21 -20.92 21 -25 21 C-25 20.01 -25 19.02 -25 18 C-28.3 18 -31.6 18 -35 18 C-35 15.36 -35 12.72 -35 10 C-27.74 10 -20.48 10 -13 10 C-13 7.36 -13 4.72 -13 2 C-8.71 2 -4.42 2 0 2 C0 1.34 0 0.68 0 0 Z " fill="#5A6B83" transform="translate(121,183)"/>
<path d="M0 0 C3.3 0 6.6 0 10 0 C10 15.51 10 31.02 10 47 C13.63 47 17.26 47 21 47 C21.042 49.333 21.041 51.667 21 54 C20 55 20 55 17.934 55.098 C17.11 55.086 16.286 55.074 15.438 55.062 C14.611 55.053 13.785 55.044 12.934 55.035 C12.296 55.024 11.657 55.012 11 55 C11 57.64 11 60.28 11 63 C8.36 63 5.72 63 3 63 C2.67 60.03 2.34 57.06 2 54 C-1.3 53.67 -4.6 53.34 -8 53 C-8 39.47 -8 25.94 -8 12 C-5.36 12 -2.72 12 0 12 C0 8.04 0 4.08 0 0 Z " fill="#222D41" transform="translate(251,171)"/>
<path d="M0 0 C0.33 0 0.66 0 1 0 C1.33 7.59 1.66 15.18 2 23 C3.65 22.67 3.65 22.67 12 21 C12 35.52 12 50.04 12 65 C11.67 64.34 11.34 63.68 11 63 C7.04 63 3.08 63 -1 63 C-1 66.3 -1 69.6 -1 73 C-4.63 73 -8.26 73 -12 73 C-12 74.32 -12 75.64 -12 77 C-19.26 77.33 -26.52 77.66 -34 78 C-34 78.66 -34 79.32 -34 80 C-34.66 80 -35.32 80 -36 80 C-36.33 88.58 -36.66 97.16 -37 106 C-33.37 106.33 -29.74 106.66 -26 107 C-26 110.3 -26 113.6 -26 117 C-22.04 117 -18.08 117 -14 117 C-13.806 121.271 -13.619 125.541 -13.438 129.812 C-13.381 131.027 -13.325 132.242 -13.268 133.494 C-13.219 134.658 -13.171 135.821 -13.121 137.02 C-13.074 138.093 -13.027 139.167 -12.978 140.273 C-13 143 -13 143 -14 146 C-12.35 146 -10.7 146 -9 146 C-9 146.33 -9 146.66 -9 147 C-44.64 147 -80.28 147 -117 147 C-114 145 -114 145 -105 144 C-105 128.16 -105 112.32 -105 96 C-108.3 95.67 -111.6 95.34 -115 95 C-115 91.04 -115 87.08 -115 83 C-117.64 83 -120.28 83 -123 83 C-123 79.37 -123 75.74 -123 72 C-123.866 72.186 -124.733 72.371 -125.625 72.562 C-129.052 73.007 -131.642 72.72 -135 72 C-135 68.04 -135 64.08 -135 60 C-141.6 60 -148.2 60 -155 60 C-154.979 61.959 -154.959 63.919 -154.938 65.938 C-154.916 67.958 -154.928 69.98 -155 72 C-157.047 74.047 -161.304 73.7 -164 74 C-164 76.97 -164 79.94 -164 83 C-164.495 83.165 -164.495 83.165 -167 84 C-167.33 86.97 -167.66 89.94 -168 93 C-168.33 93 -168.66 93 -169 93 C-169 89.7 -169 86.4 -169 83 C-168.01 83 -167.02 83 -166 83 C-166 79.04 -166 75.08 -166 71 C-162.7 71 -159.4 71 -156 71 C-156 67.04 -156 63.08 -156 59 C-148.74 59 -141.48 59 -134 59 C-134 62.96 -134 66.92 -134 71 C-130.04 71 -126.08 71 -122 71 C-122 74.63 -122 78.26 -122 82 C-119.36 82 -116.72 82 -114 82 C-114 85.96 -114 89.92 -114 94 C-110.7 94 -107.4 94 -104 94 C-104 110.17 -104 126.34 -104 143 C-74.63 143 -45.26 143 -15 143 C-15 134.75 -15 126.5 -15 118 C-18.96 118 -22.92 118 -27 118 C-27 114.7 -27 111.4 -27 108 C-30.63 108 -34.26 108 -38 108 C-38 97.44 -38 86.88 -38 76 C-29.75 76 -21.5 76 -13 76 C-13 74.35 -13 72.7 -13 71 C-9.37 71 -5.74 71 -2 71 C-2 68.03 -2 65.06 -2 62 C1.63 62 5.26 62 9 62 C9 49.46 9 36.92 9 24 C6.03 24 3.06 24 0 24 C0 16.08 0 8.16 0 0 Z M10 23 C10 28.61 10 34.22 10 40 C10.33 40 10.66 40 11 40 C11 34.39 11 28.78 11 23 C10.67 23 10.34 23 10 23 Z M10 48 C10 49.65 10 51.3 10 53 C10.33 53 10.66 53 11 53 C11 51.35 11 49.7 11 48 C10.67 48 10.34 48 10 48 Z " fill="#DCDCDC" transform="translate(300,232)"/>
<path d="M0 0 C7.92 0 15.84 0 24 0 C24 3.63 24 7.26 24 11 C31.59 11 39.18 11 47 11 C47 15.62 47 20.24 47 25 C42.199 25.025 37.397 25.043 32.596 25.055 C30.966 25.06 29.337 25.067 27.708 25.075 C19.068 25.12 10.587 25.102 2 24 C2 19.38 2 14.76 2 10 C1.34 10 0.68 10 0 10 C0 6.7 0 3.4 0 0 Z " fill="#F78F36" transform="translate(132,159)"/>
<path d="M0 0 C11.88 0 23.76 0 36 0 C36 16.5 36 33 36 50 C32.37 50 28.74 50 25 50 C25 37.46 25 24.92 25 12 C16.75 12 8.5 12 0 12 C0 8.04 0 4.08 0 0 Z " fill="#3B4658" transform="translate(25,191)"/>
<path d="M0 0 C3.63 0 7.26 0 11 0 C11 8.58 11 17.16 11 26 C14.96 26 18.92 26 23 26 C23 22.04 23 18.08 23 14 C26.96 14 30.92 14 35 14 C35 21.59 35 29.18 35 37 C23.308 37.16 11.68 36.543 0 36 C0 24.12 0 12.24 0 0 Z " fill="#2C3546" transform="translate(97,217)"/>
<path d="M0 0 C3.63 0 7.26 0 11 0 C11 12.21 11 24.42 11 37 C-0.22 37 -11.44 37 -23 37 C-23 29.74 -23 22.48 -23 15 C-19.37 15 -15.74 15 -12 15 C-12 18.63 -12 22.26 -12 26 C-8.04 26 -4.08 26 0 26 C0 17.42 0 8.84 0 0 Z " fill="#313A4C" transform="translate(211,218)"/>
<path d="M0 0 C1.604 -0.027 3.208 -0.046 4.812 -0.062 C5.706 -0.074 6.599 -0.086 7.52 -0.098 C10 0 10 0 13 1 C13 4.3 13 7.6 13 11 C15.64 11 18.28 11 21 11 C21 17.93 21 24.86 21 32 C20.67 32 20.34 32 20 32 C20 25.4 20 18.8 20 12 C17.69 12 15.38 12 13 12 C13 22.89 13 33.78 13 45 C10.36 45 7.72 45 5 45 C5.33 46.98 5.66 48.96 6 51 C6.33 51 6.66 51 7 51 C7 55.62 7 60.24 7 65 C4.36 65 1.72 65 -1 65 C-1.206 19.604 -1.206 19.604 0 0 Z " fill="#4A576C" transform="translate(10,33)"/>
<path d="M0 0 C8.25 0 16.5 0 25 0 C25 12.54 25 25.08 25 38 C20.71 38 16.42 38 12 38 C11.34 32.39 10.68 26.78 10 21 C6.7 20.67 3.4 20.34 0 20 C0 13.4 0 6.8 0 0 Z " fill="#232C3F" transform="translate(25,203)"/>
<path d="M0 0 C3.96 0 7.92 0 12 0 C12 3.96 12 7.92 12 12 C13.836 11.835 15.671 11.67 17.562 11.5 C28.03 10.735 38.511 10.919 49 11 C49 14.96 49 18.92 49 23 C45.37 23 41.74 23 38 23 C38 23.99 38 24.98 38 26 C29.75 26 21.5 26 13 26 C12.67 25.34 12.34 24.68 12 24 C9.678 23.593 7.343 23.256 5 23 C5 19.04 5 15.08 5 11 C3.35 11 1.7 11 0 11 C0 7.37 0 3.74 0 0 Z " fill="#DF5C07" transform="translate(249,270)"/>
<path d="M0 0 C10.23 0 20.46 0 31 0 C31 6.6 31 13.2 31 20 C24.565 19.835 24.565 19.835 -8 19 C-8 16.03 -8 13.06 -8 10 C-5.36 10 -2.72 10 0 10 C0 6.7 0 3.4 0 0 Z " fill="#3E4A5D" transform="translate(66,337)"/>
<path d="M0 0 C3.63 0 7.26 0 11 0 C11 0.99 11 1.98 11 3 C14.63 3 18.26 3 22 3 C22 6.63 22 10.26 22 14 C18.7 14 15.4 14 12 14 C12 17.63 12 21.26 12 25 C4.08 25 -3.84 25 -12 25 C-12 17.74 -12 10.48 -12 3 C-8.04 3 -4.08 3 0 3 C0 2.01 0 1.02 0 0 Z " fill="#6D7F98" transform="translate(211,181)"/>
<path d="M0 0 C8.91 0 17.82 0 27 0 C27 11.22 27 22.44 27 34 C23.04 34 19.08 34 15 34 C15 30.37 15 26.74 15 23 C12.03 23 9.06 23 6 23 C6 19.37 6 15.74 6 12 C-11.82 12 -29.64 12 -48 12 C-48 11.67 -48 11.34 -48 11 C-29.85 11 -11.7 11 7 11 C7 8.03 7 5.06 7 2 C5.02 2 3.04 2 1 2 C0.835 1.67 0.835 1.67 0 0 Z " fill="#FBA24F" transform="translate(183,39)"/>
<path d="M0 0 C2.31 0 4.62 0 7 0 C7.33 7.26 7.66 14.52 8 22 C9.32 22 10.64 22 12 22 C11.67 36.19 11.34 50.38 11 65 C7.7 64.67 4.4 64.34 1 64 C0.103 56.367 -0.133 48.893 -0.098 41.211 C-0.096 40.027 -0.095 38.842 -0.093 37.622 C-0.088 33.873 -0.075 30.124 -0.062 26.375 C-0.057 23.819 -0.053 21.263 -0.049 18.707 C-0.038 12.471 -0.021 6.236 0 0 Z " fill="#5E6F88" transform="translate(23,45)"/>
<path d="M0 0 C0.33 0 0.66 0 1 0 C0.67 5.28 0.34 10.56 0 16 C4.95 16 9.9 16 15 16 C15 19.63 15 23.26 15 27 C20.28 27 25.56 27 31 27 C31 29.97 31 32.94 31 36 C37.27 36.33 43.54 36.66 50 37 C50.286 41.075 50.571 45.15 50.854 49.225 C50.951 50.611 51.048 51.998 51.146 53.384 C51.285 55.377 51.424 57.37 51.562 59.363 C51.646 60.563 51.73 61.762 51.816 62.997 C51.939 64.995 52 66.998 52 69 C52.299 69.062 52.299 69.062 53.812 69.375 C56 70 56 70 59 72 C56.03 72 53.06 72 50 72 C50 75.96 50 79.92 50 84 C49.67 84 49.34 84 49 84 C49 68.82 49 53.64 49 38 C42.73 38 36.46 38 30 38 C29 37 29 37 28.902 35.152 C28.935 33.102 28.967 31.051 29 29 C25.37 29 21.74 29 18 29 C18 31.31 18 33.62 18 36 C21.3 36 24.6 36 28 36 C28 39.96 28 43.92 28 48 C25.333 48.027 22.667 48.047 20 48.062 C19.628 48.067 19.628 48.067 17.746 48.088 C17.005 48.091 16.264 48.094 15.5 48.098 C14.83 48.103 14.159 48.108 13.469 48.114 C9.963 47.952 6.482 47.435 3 47 C3 40.4 3 33.8 3 27 C6.63 27 10.26 27 14 27 C14 23.7 14 20.4 14 17 C8.39 17 2.78 17 -3 17 C-2.34 16.67 -1.68 16.34 -1 16 C-1.012 15.18 -1.023 14.36 -1.035 13.516 C-1.044 12.438 -1.053 11.36 -1.062 10.25 C-1.074 9.183 -1.086 8.115 -1.098 7.016 C-1.015 4.466 -0.746 2.421 0 0 Z " fill="#293344" transform="translate(222,123)"/>
<path d="M0 0 C8.25 0 16.5 0 25 0 C25 3.96 25 7.92 25 12 C28.3 12 31.6 12 35 12 C35 15.3 35 18.6 35 22 C31.37 22 27.74 22 24 22 C24 18.37 24 14.74 24 11 C16.41 11 8.82 11 1 11 C1 14.96 1 18.92 1 23 C-2.3 23 -5.6 23 -9 23 C-9 26.96 -9 30.92 -9 35 C-9.99 35 -10.98 35 -12 35 C-12 27.08 -12 19.16 -12 11 C-8.04 11 -4.08 11 0 11 C0 7.37 0 3.74 0 0 Z " fill="#000102" transform="translate(143,280)"/>
<path d="M0 0 C3.63 0 7.26 0 11 0 C11 11.22 11 22.44 11 34 C2.75 34 -5.5 34 -14 34 C-14 30.37 -14 26.74 -14 23 C-10.37 23 -6.74 23 -3 23 C-3 19.37 -3 15.74 -3 12 C-2.01 12 -1.02 12 0 12 C0 8.04 0 4.08 0 0 Z " fill="#602101" transform="translate(99,38)"/>
<path d="M0 0 C2.64 0 5.28 0 8 0 C8 6.93 8 13.86 8 21 C4.04 21 0.08 21 -4 21 C-4 23.64 -4 26.28 -4 29 C-10.152 29.098 -10.152 29.098 -12 29 C-12.33 28.67 -12.66 28.34 -13 28 C-13 25.36 -13 22.72 -13 20 C-19.6 20 -26.2 20 -33 20 C-33 17.03 -33 14.06 -33 11 C-27.885 10.835 -27.885 10.835 -2 10 C-1.34 6.7 -0.68 3.4 0 0 Z " fill="#FBC075" transform="translate(165,99)"/>
<path d="M0 0 C1.32 0 2.64 0 4 0 C4 0.99 4 1.98 4 3 C5.98 3 7.96 3 10 3 C10.33 5.97 10.66 8.94 11 12 C12.65 12 14.3 12 16 12 C16 18.6 16 25.2 16 32 C15.67 32 15.34 32 15 32 C14.67 26.39 14.34 20.78 14 15 C12.68 14.67 11.36 14.34 10 14 C8.372 18.356 7.659 22.239 7.375 26.875 C7.251 28.896 7.127 30.918 7 33 C1.06 33 -4.88 33 -11 33 C-11 25.41 -11 17.82 -11 10 C-7.37 10 -3.74 10 0 10 C0 6.7 0 3.4 0 0 Z " fill="#481600" transform="translate(204,5)"/>
<path d="M0 0 C3.96 0 7.92 0 12 0 C12 4.95 12 9.9 12 15 C15.63 15 19.26 15 23 15 C23 22.26 23 29.52 23 37 C19.37 37 15.74 37 12 37 C12 33.04 12 29.08 12 25 C8.04 25 4.08 25 0 25 C0 16.75 0 8.5 0 0 Z " fill="#2B3548" transform="translate(98,143)"/>
<path d="M0 0 C5.28 0 10.56 0 16 0 C16 2.97 16 5.94 16 9 C10.39 8.67 4.78 8.34 -1 8 C-1 10.31 -1 12.62 -1 15 C4.61 15 10.22 15 16 15 C16 18.96 16 22.92 16 27 C7.09 27 -1.82 27 -11 27 C-11 20.4 -11 13.8 -11 7 C-9.515 6.835 -9.515 6.835 -2 6 C-1.34 4.02 -0.68 2.04 0 0 Z " fill="#30394D" transform="translate(273,219)"/>
<path d="M0 0 C8.25 0 16.5 0 25 0 C25 3.63 25 7.26 25 11 C29.62 11 34.24 11 39 11 C39 14.3 39 17.6 39 21 C30.75 21 22.5 21 14 21 C14 17.7 14 14.4 14 11 C9.38 11 4.76 11 0 11 C0 7.37 0 3.74 0 0 Z " fill="#556276" transform="translate(231,338)"/>
<path d="M0 0 C15.84 0 31.68 0 48 0 C48 0.33 48 0.66 48 1 C35.79 1 23.58 1 11 1 C11 8.59 11 16.18 11 24 C14.63 24 18.26 24 22 24 C22 27.3 22 30.6 22 34 C14.74 34 7.48 34 0 34 C0 22.78 0 11.56 0 0 Z " fill="#F68A2B" transform="translate(110,38)"/>
<path d="M0 0 C3.63 0 7.26 0 11 0 C11.33 2.64 11.66 5.28 12 8 C18.27 8.33 24.54 8.66 31 9 C31 20.22 31 31.44 31 43 C27.7 43 24.4 43 21 43 C21 34.75 21 26.5 21 18 C17.37 18 13.74 18 10 18 C10 14.37 10 10.74 10 7 C6.7 7 3.4 7 0 7 C0 4.69 0 2.38 0 0 Z " fill="#030303" transform="translate(240,152)"/>
<path d="M0 0 C11.22 0 22.44 0 34 0 C34 2.64 34 5.28 34 8 C31.36 7.67 28.72 7.34 26 7 C26.012 7.782 26.023 8.565 26.035 9.371 C26.044 10.383 26.053 11.395 26.062 12.438 C26.074 13.447 26.086 14.456 26.098 15.496 C26 18 26 18 25 19 C23.438 19.087 21.873 19.107 20.309 19.098 C19.364 19.094 18.42 19.091 17.447 19.088 C16.951 19.084 16.951 19.084 14.438 19.062 C13.44 19.058 12.443 19.053 11.416 19.049 C8.944 19.037 6.472 19.021 4 19 C3.963 18.12 3.925 17.239 3.887 16.332 C3.821 15.171 3.755 14.009 3.688 12.812 C3.629 11.664 3.571 10.515 3.512 9.332 C2.976 5.843 1.967 3.885 0 1 C0 0.67 0 0.34 0 0 Z " fill="#601604" transform="translate(35,165)"/>
<path d="M0 0 C12.21 0 24.42 0 37 0 C37 4.29 37 8.58 37 13 C24.79 13 12.58 13 0 13 C0 8.71 0 4.42 0 0 Z " fill="#5B6981" transform="translate(262,257)"/>
<path d="M0 0 C3.63 0 7.26 0 11 0 C11.098 7.715 11.098 7.715 11 10 C10.67 10.33 10.34 10.66 10 11 C9.67 14.63 9.34 18.26 9 22 C-0.9 22 -10.8 22 -21 22 C-21 18.04 -21 14.08 -21 10 C-14.07 10 -7.14 10 0 10 C0 6.7 0 3.4 0 0 Z " fill="#043C7C" transform="translate(97,304)"/>
<path d="M0 0 C3.3 0 6.6 0 10 0 C10 3.63 10 7.26 10 11 C13.96 11 17.92 11 22 11 C22 14.63 22 18.26 22 22 C18.37 22 14.74 22 11 22 C11 25.3 11 28.6 11 32 C7.37 32 3.74 32 0 32 C0 21.44 0 10.88 0 0 Z " fill="#232C3F" transform="translate(144,195)"/>
<path d="M0 0 C3.96 0 7.92 0 12 0 C12 7.92 12 15.84 12 24 C4.74 24 -2.52 24 -10 24 C-10.33 18.39 -10.66 12.78 -11 7 C-7.37 7 -3.74 7 0 7 C0 4.69 0 2.38 0 0 Z " fill="#FBB564" transform="translate(198,113)"/>
<path d="M0 0 C3.3 0 6.6 0 10 0 C10 14.19 10 28.38 10 43 C6.7 43 3.4 43 0 43 C-1.656 28.714 -1.438 14.298 0 0 Z " fill="#4B5B73" transform="translate(121,183)"/>
<path d="M0 0 C2.97 0 5.94 0 9 0 C9 7.59 9 15.18 9 23 C5.37 23 1.74 23 -2 23 C-1.835 23.495 -1.835 23.495 -1 26 C-0.867 29.671 -0.957 33.325 -1 37 C-4.63 37 -8.26 37 -12 37 C-12 32.05 -12 27.1 -12 22 C-26.19 21.67 -40.38 21.34 -55 21 C-55 20.67 -55 20.34 -55 20 C-45.925 19.835 -45.925 19.835 0 19 C0 12.73 0 6.46 0 0 Z " fill="#032E66" transform="translate(233,244)"/>
<path d="M0 0 C30.69 0 61.38 0 93 0 C93 0.33 93 0.66 93 1 C62.64 1 32.28 1 1 1 C1 4.3 1 7.6 1 11 C-5.6 11 -12.2 11 -19 11 C-19 15.29 -19 19.58 -19 24 C-22.96 24 -26.92 24 -31 24 C-31 26.97 -31 29.94 -31 33 C-34.63 33 -38.26 33 -42 33 C-42 56.43 -42 79.86 -42 104 C-40.35 104 -38.7 104 -37 104 C-37 110.93 -37 117.86 -37 125 C-33.37 125 -29.74 125 -26 125 C-26 127.64 -26 130.28 -26 133 C-24.02 133 -22.04 133 -20 133 C-20 133.99 -20 134.98 -20 136 C-23.3 135.67 -26.6 135.34 -30 135 C-29.67 134.67 -29.67 134.67 -28 133 C-27.6 130.677 -27.26 128.343 -27 126 C-28.815 126.165 -28.815 126.165 -38 127 C-38 122.05 -38 117.1 -38 112 C-38.66 112 -39.32 112 -40 112 C-40 110.02 -40 108.04 -40 106 C-41.65 105.67 -43.3 105.34 -45 105 C-44.893 95.499 -44.78 85.998 -44.661 76.498 C-44.605 72.087 -44.552 67.676 -44.503 63.264 C-44.455 59.011 -44.403 54.758 -44.347 50.504 C-44.327 48.878 -44.308 47.251 -44.291 45.625 C-44.267 43.355 -44.237 41.085 -44.205 38.815 C-44.19 37.52 -44.174 36.225 -44.158 34.892 C-44 32 -44 32 -43 31 C-41.147 30.928 -39.292 30.916 -37.438 30.938 C-36.426 30.947 -35.414 30.956 -34.371 30.965 C-33.98 30.971 -33.98 30.971 -32 31 C-32 28.36 -32 25.72 -32 23 C-28.04 23 -24.08 23 -20 23 C-20 18.38 -20 13.76 -20 9 C-17.417 8.973 -14.833 8.953 -12.25 8.938 C-11.52 8.929 -10.791 8.921 -10.039 8.912 C-6.443 8.896 -3.515 9.121 0 10 C0 6.7 0 3.4 0 0 Z " fill="#9E9793" transform="translate(116,3)"/>
<path d="M0 0 C11.55 0 23.1 0 35 0 C35 3.96 35 7.92 35 12 C23.45 12 11.9 12 0 12 C0 8.04 0 4.08 0 0 Z " fill="#57657A" transform="translate(25,191)"/>
<path d="M0 0 C0.33 0 0.66 0 1 0 C1 13.2 1 26.4 1 40 C3.64 40 6.28 40 9 40 C9 33.73 9 27.46 9 21 C11.97 21 14.94 21 18 21 C18 26.94 18 32.88 18 39 C15.69 39 13.38 39 11 39 C11 41.97 11 44.94 11 48 C5.06 48 -0.88 48 -7 48 C-7 42.72 -7 37.44 -7 32 C-7.99 31.67 -8.98 31.34 -10 31 C-6.7 31.33 -3.4 31.66 0 32 C0 21.44 0 10.88 0 0 Z " fill="#1C263B" transform="translate(34,78)"/>
<path d="M0 0 C0.33 0 0.66 0 1 0 C1.165 3.795 1.165 3.795 2 23 C5.3 22.34 8.6 21.68 12 21 C12 35.52 12 50.04 12 65 C11.67 64.34 11.34 63.68 11 63 C7.04 63 3.08 63 -1 63 C-1 66.3 -1 69.6 -1 73 C-4.63 73 -8.26 73 -12 73 C-12 74.32 -12 75.64 -12 77 C-19.26 77.33 -26.52 77.66 -34 78 C-34 78.66 -34 79.32 -34 80 C-34.66 80 -35.32 80 -36 80 C-36.33 88.58 -36.66 97.16 -37 106 C-35.185 106.165 -35.185 106.165 -26 107 C-26 110.3 -26 113.6 -26 117 C-22.04 117 -18.08 117 -14 117 C-13.806 121.312 -13.62 125.625 -13.438 129.938 C-13.381 131.169 -13.325 132.401 -13.268 133.67 C-13.219 134.84 -13.171 136.01 -13.121 137.215 C-13.098 137.757 -13.098 137.757 -12.978 140.5 C-13 143 -13 143 -14 144 C-16.8 144.095 -19.575 144.126 -22.375 144.114 C-22.814 144.114 -22.814 144.114 -25.036 144.114 C-27.952 144.113 -30.869 144.105 -33.785 144.098 C-35.802 144.096 -37.818 144.094 -39.834 144.093 C-45.153 144.09 -50.471 144.08 -55.789 144.069 C-61.212 144.058 -66.634 144.054 -72.057 144.049 C-82.704 144.038 -93.352 144.021 -104 144 C-104 143.67 -104 143.34 -104 143 C-74.63 143 -45.26 143 -15 143 C-15 134.75 -15 126.5 -15 118 C-18.96 118 -22.92 118 -27 118 C-27 114.7 -27 111.4 -27 108 C-30.63 108 -34.26 108 -38 108 C-38 97.44 -38 86.88 -38 76 C-29.75 76 -21.5 76 -13 76 C-13 74.35 -13 72.7 -13 71 C-9.37 71 -5.74 71 -2 71 C-2 68.03 -2 65.06 -2 62 C1.63 62 5.26 62 9 62 C9 49.46 9 36.92 9 24 C6.03 24 3.06 24 0 24 C0 16.08 0 8.16 0 0 Z M10 23 C10 28.61 10 34.22 10 40 C10.33 40 10.66 40 11 40 C11 34.39 11 28.78 11 23 C10.67 23 10.34 23 10 23 Z M10 48 C10 49.65 10 51.3 10 53 C10.33 53 10.66 53 11 53 C11 51.35 11 49.7 11 48 C10.67 48 10.34 48 10 48 Z " fill="#858586" transform="translate(300,232)"/>
<path d="M0 0 C6.27 0 12.54 0 19 0 C19 3.63 19 7.26 19 11 C23.62 11 28.24 11 33 11 C33 14.3 33 17.6 33 21 C26.73 21 20.46 21 14 21 C14 17.7 14 14.4 14 11 C9.38 11 4.76 11 0 11 C0 7.37 0 3.74 0 0 Z " fill="#252F42" transform="translate(212,338)"/>
<path d="M0 0 C7.92 0 15.84 0 24 0 C24 3.63 24 7.26 24 11 C20.04 11 16.08 11 12 11 C12 15.29 12 19.58 12 24 C8.7 24 5.4 24 2 24 C2 19.38 2 14.76 2 10 C1.34 10 0.68 10 0 10 C0 6.7 0 3.4 0 0 Z " fill="#F68426" transform="translate(132,159)"/>
<path d="M0 0 C0.33 0 0.66 0 1 0 C1 2.64 1 5.28 1 8 C4.3 8 7.6 8 11 8 C11 16.25 11 24.5 11 33 C-0.22 33 -11.44 33 -23 33 C-23.622 27.4 -24.121 22.47 -24.062 16.938 C-24.053 15.812 -24.044 14.687 -24.035 13.527 C-24.024 12.693 -24.012 11.859 -24 11 C-23.67 11 -23.34 11 -23 11 C-23 14.96 -23 18.92 -23 23 C-12.11 23 -1.22 23 10 23 C10 18.38 10 13.76 10 9 C6.7 9 3.4 9 0 9 C0 6.03 0 3.06 0 0 Z " fill="#FD973C" transform="translate(58,132)"/>
<path d="M0 0 C0.33 0 0.66 0 1 0 C0.67 18.48 0.34 36.96 0 56 C2.64 56 5.28 56 8 56 C7.835 53.855 7.835 53.855 7 43 C6.67 43 6.34 43 6 43 C6 40.69 6 38.38 6 36 C8.64 36 11.28 36 14 36 C14 42.93 14 49.86 14 57 C12.68 57 11.36 57 10 57 C10 70.2 10 83.4 10 97 C8.35 97 6.7 97 5 97 C5.33 96.67 5.33 96.67 7 95 C7.246 92.208 7.374 89.508 7.414 86.711 C7.433 85.893 7.453 85.074 7.473 84.231 C7.533 81.612 7.579 78.994 7.625 76.375 C7.663 74.602 7.702 72.828 7.742 71.055 C7.838 66.703 7.922 62.352 8 58 C4.7 58 1.4 58 -2 58 C-2 43.81 -2 29.62 -2 15 C-4.31 14.67 -6.62 14.34 -9 14 C-9 13.67 -9 13.34 -9 13 C-6.03 13 -3.06 13 0 13 C0 8.71 0 4.42 0 0 Z " fill="#4C4F57" transform="translate(9,42)"/>
<path d="M0 0 C1.32 0 2.64 0 4 0 C4 3.63 4 7.26 4 11 C7.3 11 10.6 11 14 11 C14 14.63 14 18.26 14 22 C11.36 22 8.72 22 6 22 C6.33 23.98 6.66 25.96 7 28 C7.33 28 7.66 28 8 28 C8 32.62 8 37.24 8 42 C5.36 42 2.72 42 0 42 C0 28.14 0 14.28 0 0 Z " fill="#010204" transform="translate(9,56)"/>
<path d="M0 0 C3.96 0 7.92 0 12 0 C12 9.57 12 19.14 12 29 C8.37 29 4.74 29 1 29 C-0.304 23.064 -0.111 17.167 -0.062 11.125 C-0.058 10.055 -0.053 8.985 -0.049 7.883 C-0.037 5.255 -0.019 2.628 0 0 Z " fill="#180200" transform="translate(158,15)"/>
<path d="M0 0 C2.97 0 5.94 0 9 0 C9 11.88 9 23.76 9 36 C6.03 36 3.06 36 0 36 C-1.19 23.825 -1.085 12.183 0 0 Z " fill="#010101" transform="translate(299,257)"/>
<path d="M0 0 C3.96 0.33 7.92 0.66 12 1 C12 1.33 12 1.66 12 2 C18.93 2.33 25.86 2.66 33 3 C33.33 9.6 33.66 16.2 34 23 C34.66 23.33 35.32 23.66 36 24 C36 27.63 36 31.26 36 35 C39.3 35 42.6 35 46 35 C47.148 61.118 47.148 61.118 47 74 C50.63 74 54.26 74 58 74 C59.007 85.024 59.106 95.94 59 107 C62.63 107 66.26 107 70 107 C70 109.97 70 112.94 70 116 C71.237 115.938 72.475 115.876 73.75 115.812 C77.482 115.793 79.204 116.419 82 119 C82.66 119 83.32 119 84 119 C84 121.97 84 124.94 84 128 C82.35 128 80.7 128 79 128 C79 125.03 79 122.06 79 119 C75.7 119 72.4 119 69 119 C69 115.37 69 111.74 69 108 C65.04 108 61.08 108 57 108 C57 97.44 57 86.88 57 76 C53.37 76 49.74 76 46 76 C45.126 67.049 44.877 58.24 44.938 49.25 C44.942 47.969 44.947 46.687 44.951 45.367 C44.963 42.245 44.979 39.122 45 36 C41.7 36 38.4 36 35 36 C35 32.37 35 28.74 35 25 C34.01 25 33.02 25 32 25 C32 18.07 32 11.14 32 4 C21.44 4 10.88 4 0 4 C0 2.68 0 1.36 0 0 Z " fill="#96979A" transform="translate(0,20)"/>
<path d="M0 0 C2.64 0 5.28 0 8 0 C8 0.33 8 0.66 8 1 C5.69 1 3.38 1 1 1 C1 5.29 1 9.58 1 14 C-2.63 14 -6.26 14 -10 14 C-10 26.54 -10 39.08 -10 52 C-4.968 51.977 0.065 51.954 5.25 51.93 C8.449 51.919 11.648 51.91 14.848 51.902 C19.919 51.89 24.991 51.876 30.062 51.849 C34.153 51.827 38.245 51.815 42.336 51.81 C43.892 51.807 45.449 51.799 47.005 51.789 C62.024 51.688 62.024 51.688 69 54 C69 54.33 69 54.66 69 55 C38.97 55 8.94 55 -22 55 C-19 53 -19 53 -12 51 C-11.67 38.46 -11.34 25.92 -11 13 C-7.37 13 -3.74 13 0 13 C0 8.71 0 4.42 0 0 Z " fill="#EAEAEA" transform="translate(48,324)"/>
<path d="M0 0 C10.56 0 21.12 0 32 0 C32 3.3 32 6.6 32 10 C21.44 10 10.88 10 0 10 C0 6.7 0 3.4 0 0 Z " fill="#023167" transform="translate(221,315)"/>
<path d="M0 0 C3.3 0 6.6 0 10 0 C10.027 3.458 10.047 6.917 10.062 10.375 C10.071 11.36 10.079 12.345 10.088 13.359 C10.09 13.83 10.09 13.83 10.098 16.211 C10.1 16.646 10.1 16.646 10.114 18.845 C10 21 10 21 9 23 C6.195 23.165 6.195 23.165 -8 24 C-8 20.04 -8 16.08 -8 12 C-5.36 12 -2.72 12 0 12 C0 8.04 0 4.08 0 0 Z " fill="#313C4F" transform="translate(251,171)"/>
<path d="M0 0 C2.64 0 5.28 0 8 0 C8.027 2.833 8.047 5.667 8.062 8.5 C8.071 9.291 8.079 10.083 8.088 10.898 C8.109 16.028 7.739 20.923 7 26 C5.02 26 3.04 26 1 26 C1.33 28.97 1.66 31.94 2 35 C4.97 35 7.94 35 11 35 C11.967 38.974 12.047 42.533 11.879 46.613 C11.831 47.86 11.782 49.108 11.732 50.393 C11.676 51.686 11.62 52.98 11.562 54.312 C11.51 55.625 11.458 56.938 11.404 58.291 C11.275 61.528 11.14 64.764 11 68 C9.68 68 8.36 68 7 68 C7 70.64 7 73.28 7 76 C6.34 76.165 6.34 76.165 3 77 C2.67 76.34 2.34 75.68 2 75 C3.32 75 4.64 75 6 75 C6 72.03 6 69.06 6 66 C6.99 66 7.98 66 9 66 C8.988 64.924 8.977 63.847 8.965 62.738 C8.899 53.761 9.129 44.942 10 36 C6.7 36 3.4 36 0 36 C0 32.7 0 29.4 0 26 C-3.3 26 -6.6 26 -10 26 C-10 25.67 -10 25.34 -10 25 C-6.7 25 -3.4 25 0 25 C0 16.75 0 8.5 0 0 Z " fill="#4C1A05" transform="translate(221,38)"/>
<path d="M0 0 C1.65 0.33 3.3 0.66 5 1 C5 5.62 5 10.24 5 15 C2.69 15 0.38 15 -2 15 C-2 20.94 -2 26.88 -2 33 C-5.63 33 -9.26 33 -13 33 C-13 26.73 -13 20.46 -13 14 C-9.7 13.67 -6.4 13.34 -3 13 C-2.876 11.597 -2.752 10.195 -2.625 8.75 C-2.327 5.371 -1.671 2.962 0 0 Z " fill="#46556D" transform="translate(212,145)"/>
<path d="M0 0 C7.59 0 15.18 0 23 0 C23 3.96 23 7.92 23 12 C21.584 12.114 21.584 12.114 14.504 12.684 C12 13 12 13 11 14 C7.331 14.143 3.673 14.042 0 14 C0 9.38 0 4.76 0 0 Z " fill="#F5AF63" transform="translate(275,281)"/>
<path d="M0 0 C0 4.62 0 9.24 0 14 C-7.26 14 -14.52 14 -22 14 C-22 10.04 -22 6.08 -22 2 C-19.668 1.327 -17.335 0.662 -15 0 C-14.381 -0.196 -13.763 -0.392 -13.125 -0.594 C-8.807 -1.419 -4.328 -0.464 0 0 Z " fill="#FDBF72" transform="translate(68,141)"/>
<path d="M0 0 C4.29 0 8.58 0 13 0 C13 0.33 13 0.66 13 1 C9.04 1 5.08 1 1 1 C1 7.6 1 14.2 1 21 C4.3 21 7.6 21 11 21 C11 27.27 11 33.54 11 40 C16.61 40 22.22 40 28 40 C28 40.33 28 40.66 28 41 C22.39 41 16.78 41 11 41 C10.67 41.66 10.34 42.32 10 43 C10 42.34 10 41.68 10 41 C6.37 41 2.74 41 -1 41 C-1.132 27.296 -0.769 13.682 0 0 Z " fill="#5A361B" transform="translate(80,87)"/>
<path d="M0 0 C3.3 0 6.6 0 10 0 C10 3.96 10 7.92 10 12 C12.64 12 15.28 12 18 12 C18 15.3 18 18.6 18 22 C12.06 21.67 6.12 21.34 0 21 C0 14.07 0 7.14 0 0 Z " fill="#F59038" transform="translate(110,87)"/>
<path d="M0 0 C2.97 0 5.94 0 9 0 C9 3.63 9 7.26 9 11 C12.96 11 16.92 11 21 11 C21 13.97 21 16.94 21 20 C14.07 20 7.14 20 0 20 C0 13.4 0 6.8 0 0 Z " fill="#424F66" transform="translate(189,234)"/>
<path d="M0 0 C2.64 0 5.28 0 8 0 C8 8.25 8 16.5 8 25 C5.69 25 3.38 25 1 25 C1 28.3 1 31.6 1 35 C-2.96 35 -6.92 35 -11 35 C-11 36.65 -11 38.3 -11 40 C-13.97 40 -16.94 40 -20 40 C-20 42.97 -20 45.94 -20 49 C-20.33 49 -20.66 49 -21 49 C-21 41.74 -21 34.48 -21 27 C-17.7 27 -14.4 27 -11 27 C-11 29.31 -11 31.62 -11 34 C-7.37 34 -3.74 34 0 34 C0 28.06 0 22.12 0 16 C2.31 16 4.62 16 7 16 C6.67 11.38 6.34 6.76 6 2 C4.68 1.67 3.36 1.34 2 1 C1.67 2.32 1.34 3.64 1 5 C0.67 5 0.34 5 0 5 C0 3.35 0 1.7 0 0 Z " fill="#303C52" transform="translate(210,144)"/>
<path d="M0 0 C8.58 0 17.16 0 26 0 C26 3.3 26 6.6 26 10 C17.42 10 8.84 10 0 10 C0 6.7 0 3.4 0 0 Z " fill="#C82D03" transform="translate(161,121)"/>
<path d="M0 0 C1.65 0 3.3 0 5 0 C5 13.2 5 26.4 5 40 C2.03 40 -0.94 40 -4 40 C-4 44.29 -4 48.58 -4 53 C-6.97 53 -9.94 53 -13 53 C-13 59.93 -13 66.86 -13 74 C-14.32 74 -15.64 74 -17 74 C-17 77.3 -17 80.6 -17 84 C-18.98 84 -20.96 84 -23 84 C-22.959 85.279 -22.917 86.558 -22.875 87.875 C-22.805 90.055 -22.805 90.055 -23 92 C-23.66 92.66 -24.32 93.32 -25 94 C-25.027 92.375 -25.046 90.75 -25.062 89.125 C-25.074 88.22 -25.086 87.315 -25.098 86.383 C-25 84 -25 84 -24 82 C-22.35 82 -20.7 82 -19 82 C-18.67 79.03 -18.34 76.06 -18 73 C-16.68 73 -15.36 73 -14 73 C-14 66.07 -14 59.14 -14 52 C-11.03 52 -8.06 52 -5 52 C-5 47.71 -5 43.42 -5 39 C-2.03 39 0.94 39 4 39 C4 26.46 4 13.92 4 1 C3 2 3 2 2.902 4.066 C2.914 4.89 2.926 5.714 2.938 6.562 C2.947 7.389 2.956 8.215 2.965 9.066 C2.976 9.704 2.988 10.343 3 11 C-0.215 12.607 -3.436 12.057 -7 12 C-7.33 15.96 -7.66 19.92 -8 24 C-20.21 24 -32.42 24 -45 24 C-45 21.36 -45 18.72 -45 16 C-45.701 16.186 -46.403 16.371 -47.125 16.562 C-50.339 17.052 -52.836 16.662 -56 16 C-56.33 13.69 -56.66 11.38 -57 9 C-56.67 9.165 -56.67 9.165 -55 10 C-55 11.65 -55 13.3 -55 15 C-51.37 15 -47.74 15 -44 15 C-44 17.64 -44 20.28 -44 23 C-38.225 22.835 -38.225 22.835 -9 22 C-9 18.37 -9 14.74 -9 11 C-6.03 11 -3.06 11 0 11 C0 7.37 0 3.74 0 0 Z " fill="#B7B7B7" transform="translate(80,229)"/>
<path d="M0 0 C6.705 -0.198 12.652 -0.308 19 2 C19 4.97 19 7.94 19 11 C8.44 11 -2.12 11 -13 11 C-12.34 10.01 -11.68 9.02 -11 8 C-11.33 7.34 -11.66 6.68 -12 6 C-8.04 6 -4.08 6 0 6 C0 4.02 0 2.04 0 0 Z " fill="#F99138" transform="translate(171,39)"/>
<path d="M0 0 C7.59 0 15.18 0 23 0 C23 3.63 23 7.26 23 11 C15.41 11 7.82 11 0 11 C0 7.37 0 3.74 0 0 Z " fill="#1F2A40" transform="translate(275,270)"/>
<path d="M0 0 C6.6 0 13.2 0 20 0 C20 3.96 20 7.92 20 12 C13.4 12 6.8 12 0 12 C0 8.04 0 4.08 0 0 Z " fill="#F37C1A" transform="translate(40,172)"/>
<path d="M0 0 C0.33 0 0.66 0 1 0 C1 11.88 1 23.76 1 36 C24.1 36 47.2 36 71 36 C71 28.08 71 20.16 71 12 C72.65 12.165 72.65 12.165 81 13 C81 13.33 81 13.66 81 14 C78.36 14 75.72 14 73 14 C73 21.92 73 29.84 73 38 C48.91 38 24.82 38 0 38 C0 25.46 0 12.92 0 0 Z " fill="#454545" transform="translate(38,338)"/>
<path d="M0 0 C4.29 0 8.58 0 13 0 C13 0.33 13 0.66 13 1 C9.04 1 5.08 1 1 1 C1 3.97 1 6.94 1 10 C8.26 10 15.52 10 23 10 C23 10.33 23 10.66 23 11 C15.74 11 8.48 11 1 11 C1 14.96 1 18.92 1 23 C-2.3 23 -5.6 23 -9 23 C-9 26.96 -9 30.92 -9 35 C-9.99 35 -10.98 35 -12 35 C-12 27.08 -12 19.16 -12 11 C-8.04 11 -4.08 11 0 11 C0 7.37 0 3.74 0 0 Z " fill="#06070A" transform="translate(143,280)"/>
<path d="M0 0 C6.93 0 13.86 0 21 0 C21 3.63 21 7.26 21 11 C14.07 11 7.14 11 0 11 C0 7.37 0 3.74 0 0 Z " fill="#499BD4" transform="translate(76,315)"/>
<path d="M0 0 C3.3 0 6.6 0 10 0 C10 7.59 10 15.18 10 23 C6.7 23 3.4 23 0 23 C0 15.41 0 7.82 0 0 Z " fill="#0E0000" transform="translate(183,15)"/>
<path d="M0 0 C3.96 0 7.92 0 12 0 C12.027 2.229 12.046 4.458 12.062 6.688 C12.074 7.929 12.086 9.17 12.098 10.449 C12 14 12 14 11 19 C7.37 19 3.74 19 0 19 C0 12.73 0 6.46 0 0 Z " fill="#FBB460" transform="translate(81,88)"/>
<path d="M0 0 C7.26 0 14.52 0 22 0 C22 3.3 22 6.6 22 10 C14.74 10 7.48 10 0 10 C0 6.7 0 3.4 0 0 Z " fill="#53A4DA" transform="translate(155,252)"/>
<path d="M0 0 C1.32 0 2.64 0 4 0 C4.125 5.75 4.125 5.75 3 8 C2.848 9.593 2.751 11.191 2.684 12.789 C2.642 13.73 2.6 14.671 2.557 15.641 C2.537 16.133 2.537 16.133 2.438 18.625 C2.394 19.618 2.351 20.61 2.307 21.633 C2.2 24.088 2.098 26.544 2 29 C-0.97 29 -3.94 29 -7 29 C-7.027 26.062 -7.047 23.125 -7.062 20.188 C-7.071 19.354 -7.079 18.521 -7.088 17.662 C-7.091 16.86 -7.094 16.057 -7.098 15.23 C-7.103 14.492 -7.108 13.754 -7.114 12.993 C-7 11 -7 11 -6 8 C-4.02 7.67 -2.04 7.34 0 7 C0 4.69 0 2.38 0 0 Z " fill="#100100" transform="translate(209,9)"/>
<path d="M0 0 C2.31 0 4.62 0 7 0 C7 5.94 7 11.88 7 18 C9.97 18 12.94 18 16 18 C16 18.33 16 18.66 16 19 C8.08 19 0.16 19 -8 19 C-8 16.03 -8 13.06 -8 10 C-5.36 10 -2.72 10 0 10 C0 6.7 0 3.4 0 0 Z " fill="#1F283D" transform="translate(66,337)"/>
<path d="M0 0 C2.97 0 5.94 0 9 0 C9 7.59 9 15.18 9 23 C5.7 23 2.4 23 -1 23 C-0.67 15.41 -0.34 7.82 0 0 Z " fill="#EFEFEF" transform="translate(233,244)"/>
<path d="M0 0 C3.3 0 6.6 0 10 0 C10 6.93 10 13.86 10 21 C6.7 21 3.4 21 0 21 C0 14.07 0 7.14 0 0 Z " fill="#424F65" transform="translate(121,232)"/>
<path d="M0 0 C5.28 0 10.56 0 16 0 C16 2.97 16 5.94 16 9 C10.39 9 4.78 9 -1 9 C-1.33 10.98 -1.66 12.96 -2 15 C-4.97 15 -7.94 15 -11 15 C-11 12.36 -11 9.72 -11 7 C-9.515 6.835 -9.515 6.835 -2 6 C-1.34 4.02 -0.68 2.04 0 0 Z " fill="#5D6F8A" transform="translate(273,219)"/>
<path d="M0 0 C3.3 0 6.6 0 10 0 C9.67 7.26 9.34 14.52 9 22 C6.03 22 3.06 22 0 22 C0 14.74 0 7.48 0 0 Z " fill="#010104" transform="translate(0,33)"/>
<path d="M0 0 C12.21 0 24.42 0 37 0 C37 4.29 37 8.58 37 13 C36.67 13 36.34 13 36 13 C36 9.04 36 5.08 36 1 C28.41 1 20.82 1 13 1 C13 4.96 13 8.92 13 13 C8.71 13 4.42 13 0 13 C0 8.71 0 4.42 0 0 Z " fill="#3D485D" transform="translate(262,257)"/>
<path d="M0 0 C2.97 0 5.94 0 9 0 C9 5.94 9 11.88 9 18 C6.69 18 4.38 18 2 18 C2 20.97 2 23.94 2 27 C-3.94 27 -9.88 27 -16 27 C-16 23.04 -16 19.08 -16 15 C-15.67 15 -15.34 15 -15 15 C-15 18.63 -15 22.26 -15 26 C-9.72 26 -4.44 26 1 26 C0.67 23.69 0.34 21.38 0 19 C-0.072 17.388 -0.109 15.774 -0.098 14.16 C-0.094 13.325 -0.091 12.491 -0.088 11.631 C-0.08 10.783 -0.071 9.936 -0.062 9.062 C-0.058 8.188 -0.053 7.313 -0.049 6.412 C-0.037 4.275 -0.019 2.137 0 0 Z " fill="#0F1527" transform="translate(43,99)"/>
<path d="M0 0 C3.96 0 7.92 0 12 0 C12 3.96 12 7.92 12 12 C15.63 12 19.26 12 23 12 C23 12.66 23 13.32 23 14 C15.41 14 7.82 14 0 14 C0 9.38 0 4.76 0 0 Z " fill="#F9AF60" transform="translate(144,170)"/>
<path d="M0 0 C0.33 0 0.66 0 1 0 C1 2.64 1 5.28 1 8 C4.3 8 7.6 8 11 8 C11 16.25 11 24.5 11 33 C-0.22 33 -11.44 33 -23 33 C-23.622 27.4 -24.121 22.47 -24.062 16.938 C-24.053 15.812 -24.044 14.687 -24.035 13.527 C-24.024 12.693 -24.012 11.859 -24 11 C-23.67 11 -23.34 11 -23 11 C-23 14.96 -23 18.92 -23 23 C-21.371 22.979 -19.741 22.959 -18.062 22.938 C-16.375 22.916 -14.686 22.928 -13 23 C-12 24 -12 24 -12 32 C-4.74 32 2.52 32 10 32 C10 24.41 10 16.82 10 9 C6.7 9 3.4 9 0 9 C0 6.03 0 3.06 0 0 Z " fill="#DA762B" transform="translate(58,132)"/>
<path d="M0 0 C0.33 0 0.66 0 1 0 C1 3.3 1 6.6 1 10 C-1.64 10 -4.28 10 -7 10 C-7 19.9 -7 29.8 -7 40 C-3.04 40 0.92 40 5 40 C5 43.63 5 47.26 5 51 C3.35 51 1.7 51 0 51 C0 66.18 0 81.36 0 97 C3.63 97 7.26 97 11 97 C11 97.33 11 97.66 11 98 C7.04 98 3.08 98 -1 98 C-1.589 86.439 -2.1 74.89 -2.125 63.312 C-2.13 62.435 -2.134 61.558 -2.139 60.654 C-2.137 59.836 -2.135 59.018 -2.133 58.176 C-2.132 57.463 -2.131 56.751 -2.129 56.017 C-1.994 53.908 -1.574 52.03 -1 50 C-0.01 50 0.98 50 2 50 C2.144 49.423 2.289 48.845 2.438 48.25 C2.958 46.167 3.479 44.083 4 42 C3.218 42.012 2.435 42.023 1.629 42.035 C0.617 42.044 -0.395 42.053 -1.438 42.062 C-2.447 42.074 -3.456 42.086 -4.496 42.098 C-7 42 -7 42 -8 41 C-8.088 38.552 -8.115 36.132 -8.098 33.684 C-8.096 32.953 -8.095 32.221 -8.093 31.468 C-8.088 29.125 -8.075 26.781 -8.062 24.438 C-8.057 22.852 -8.053 21.267 -8.049 19.682 C-8.038 15.788 -8.021 11.894 -8 8 C-6.845 7.835 -6.845 7.835 -1 7 C-0.67 4.69 -0.34 2.38 0 0 Z " fill="#B5B6B5" transform="translate(13,139)"/>
<path d="M0 0 C11.22 0 22.44 0 34 0 C34 3.96 34 7.92 34 12 C30.208 12.027 26.417 12.047 22.625 12.062 C22.095 12.067 22.095 12.067 19.41 12.088 C12.86 12.108 6.506 11.766 0 11 C0 7.37 0 3.74 0 0 Z M11 1 C11 4.3 11 7.6 11 11 C18.26 11 25.52 11 33 11 C33 7.7 33 4.4 33 1 C25.74 1 18.48 1 11 1 Z " fill="#1D639E" transform="translate(144,251)"/>
<path d="M0 0 C2.31 0 4.62 0 7 0 C7 1.65 7 3.3 7 5 C3.04 5 -0.92 5 -5 5 C-5 8.3 -5 11.6 -5 15 C-4.34 15 -3.68 15 -3 15 C-3 18.3 -3 21.6 -3 25 C-4.279 25.062 -5.558 25.124 -6.875 25.188 C-7.235 25.205 -7.235 25.205 -9.055 25.293 C-9.697 25.196 -10.339 25.1 -11 25 C-14.86 19.209 -14.141 11.762 -14 5 C-16.31 5 -18.62 5 -21 5 C-21 4.67 -21 4.34 -21 4 C-17.7 4 -14.4 4 -11 4 C-11 6.97 -11 9.94 -11 13 C-9.35 13 -7.7 13 -6 13 C-6 10.03 -6 7.06 -6 4 C-2.04 4 1.92 4 6 4 C6 3.01 6 2.02 6 1 C4.02 1 2.04 1 0 1 C0 0.67 0 0.34 0 0 Z " fill="#253B58" transform="translate(90,135)"/>
<path d="M0 0 C0.33 0 0.66 0 1 0 C0.67 5.28 0.34 10.56 0 16 C4.95 16 9.9 16 15 16 C15 19.63 15 23.26 15 27 C20.28 27 25.56 27 31 27 C31 29.97 31 32.94 31 36 C37.27 36.33 43.54 36.66 50 37 C50.286 41.075 50.571 45.15 50.854 49.225 C50.951 50.611 51.048 51.998 51.146 53.384 C51.285 55.377 51.424 57.37 51.562 59.363 C51.646 60.563 51.73 61.762 51.816 62.997 C51.939 64.995 52 66.998 52 69 C52.299 69.062 52.299 69.062 53.812 69.375 C56 70 56 70 59 72 C56.03 72 53.06 72 50 72 C50 75.96 50 79.92 50 84 C49.67 84 49.34 84 49 84 C49 68.82 49 53.64 49 38 C42.73 38 36.46 38 30 38 C30 34.7 30 31.4 30 28 C24.72 28 19.44 28 14 28 C14 24.37 14 20.74 14 17 C8.39 17 2.78 17 -3 17 C-2.34 16.67 -1.68 16.34 -1 16 C-1.012 15.18 -1.023 14.36 -1.035 13.516 C-1.044 12.438 -1.053 11.36 -1.062 10.25 C-1.074 9.183 -1.086 8.115 -1.098 7.016 C-1.015 4.466 -0.746 2.421 0 0 Z " fill="#99999B" transform="translate(222,123)"/>
<path d="M0 0 C0.33 0 0.66 0 1 0 C1.33 7.59 1.66 15.18 2 23 C5.3 22.34 8.6 21.68 12 21 C12 35.52 12 50.04 12 65 C11.67 64.34 11.34 63.68 11 63 C7.04 63 3.08 63 -1 63 C-1 66.3 -1 69.6 -1 73 C-4.63 73 -8.26 73 -12 73 C-12 72.67 -12 72.34 -12 72 C-8.7 72 -5.4 72 -2 72 C-2 68.7 -2 65.4 -2 62 C1.63 62 5.26 62 9 62 C9 49.46 9 36.92 9 24 C6.03 24 3.06 24 0 24 C0 16.08 0 8.16 0 0 Z M10 23 C10 28.61 10 34.22 10 40 C10.33 40 10.66 40 11 40 C11 34.39 11 28.78 11 23 C10.67 23 10.34 23 10 23 Z M10 48 C10 49.65 10 51.3 10 53 C10.33 53 10.66 53 11 53 C11 51.35 11 49.7 11 48 C10.67 48 10.34 48 10 48 Z " fill="#DDDDDD" transform="translate(300,232)"/>
<path d="M0 0 C4.62 0 9.24 0 14 0 C14 3.96 14 7.92 14 12 C9.38 12 4.76 12 0 12 C0 8.04 0 4.08 0 0 Z " fill="#131320" transform="translate(261,270)"/>
<path d="M0 0 C11.88 0 23.76 0 36 0 C36 3.96 36 7.92 36 12 C32.04 12 28.08 12 24 12 C24 8.37 24 4.74 24 1 C16.08 1 8.16 1 0 1 C0 0.67 0 0.34 0 0 Z " fill="#D55106" transform="translate(132,158)"/>
<path d="M0 0 C7.92 0 15.84 0 24 0 C24 2.64 24 5.28 24 8 C19.368 10.647 17.65 11 12 11 C12 14.96 12 18.92 12 23 C11.67 23 11.34 23 11 23 C10.971 19.854 10.953 16.708 10.938 13.562 C10.929 12.665 10.921 11.767 10.912 10.842 C10.909 9.988 10.906 9.134 10.902 8.254 C10.897 7.463 10.892 6.672 10.886 5.858 C11 4 11 4 12 3 C8.37 2.67 4.74 2.34 1 2 C1 3.65 1 5.3 1 7 C0.67 7 0.34 7 0 7 C0 4.69 0 2.38 0 0 Z " fill="#F8AC58" transform="translate(34,132)"/>
<path d="M0 0 C2.535 0.091 5.036 0.237 7.562 0.438 C7.918 0.464 7.918 0.464 9.717 0.596 C11.478 0.726 13.239 0.862 15 1 C15 4.3 15 7.6 15 11 C9.72 11 4.44 11 -1 11 C-1.098 3.285 -1.098 3.285 -1 1 C-0.67 0.67 -0.34 0.34 0 0 Z " fill="#5E6F87" transform="translate(234,159)"/>
<path d="M0 0 C5.61 0 11.22 0 17 0 C17 2.97 17 5.94 17 9 C13.04 9 9.08 9 5 9 C5 12.96 5 16.92 5 21 C4.67 21 4.34 21 4 21 C4 17.04 4 13.08 4 9 C2.68 9 1.36 9 0 9 C0 6.03 0 3.06 0 0 Z " fill="#451301" transform="translate(117,5)"/>
<path d="M0 0 C9.277 -0.098 9.277 -0.098 12 0 C13 1 13 1 13.098 3.504 C13.065 6.336 13.033 9.168 13 12 C8.71 12 4.42 12 0 12 C0 8.04 0 4.08 0 0 Z " fill="#110100" transform="translate(122,14)"/>
<path d="M0 0 C30.69 0 61.38 0 93 0 C93 0.99 93 1.98 93 3 C94.65 3 96.3 3 98 3 C98 5.31 98 7.62 98 10 C99.98 10 101.96 10 104 10 C104 17.26 104 24.52 104 32 C104.495 32.165 104.495 32.165 107 33 C105.68 33 104.36 33 103 33 C103 26.4 103 19.8 103 13 C101.35 13 99.7 13 98 13 C96.522 10.043 96.94 7.258 97 4 C95.02 4 93.04 4 91 4 C91 3.01 91 2.02 91 1 C60.97 1 30.94 1 0 1 C0 0.67 0 0.34 0 0 Z " fill="#6A4634" transform="translate(117,4)"/>
<path d="M0 0 C3.96 0 7.92 0 12 0 C12 3.96 12 7.92 12 12 C10.02 12.66 8.04 13.32 6 14 C5.67 13.34 5.34 12.68 5 12 C3.35 11.67 1.7 11.34 0 11 C0 7.37 0 3.74 0 0 Z " fill="#F17F1D" transform="translate(249,270)"/>
<path d="M0 0 C3.63 0 7.26 0 11 0 C11 3.96 11 7.92 11 12 C7.37 12 3.74 12 0 12 C0 8.04 0 4.08 0 0 Z " fill="#536076" transform="translate(50,229)"/>
<path d="M0 0 C3.63 0 7.26 0 11 0 C11 3.96 11 7.92 11 12 C7.37 12 3.74 12 0 12 C0 8.04 0 4.08 0 0 Z " fill="#1A2236" transform="translate(167,194)"/>
<path d="M0 0 C3.96 0 7.92 0 12 0 C12 3.63 12 7.26 12 11 C8.04 11 4.08 11 0 11 C0 7.37 0 3.74 0 0 Z " fill="#F89B49" transform="translate(198,126)"/>
<path d="M0 0 C3.96 0 7.92 0 12 0 C12 3.63 12 7.26 12 11 C8.04 11 4.08 11 0 11 C0 7.37 0 3.74 0 0 Z " fill="#5F2502" transform="translate(122,27)"/>
<path d="M0 0 C3.63 0 7.26 0 11 0 C11 3.96 11 7.92 11 12 C7.37 12 3.74 12 0 12 C0 8.04 0 4.08 0 0 Z " fill="#622301" transform="translate(110,14)"/>
<path d="M0 0 C2.97 0 5.94 0 9 0 C9.33 4.29 9.66 8.58 10 13 C7.03 13 4.06 13 1 13 C1 15.97 1 18.94 1 22 C0.67 22 0.34 22 0 22 C0 14.74 0 7.48 0 0 Z " fill="#263046" transform="translate(189,171)"/>
<path d="M0 0 C3.3 0 6.6 0 10 0 C10 4.29 10 8.58 10 13 C6.7 13 3.4 13 0 13 C0 8.71 0 4.42 0 0 Z " fill="#485569" transform="translate(50,203)"/>
<path d="M0 0 C3.63 0 7.26 0 11 0 C11 3.63 11 7.26 11 11 C7.37 11 3.74 11 0 11 C0 7.37 0 3.74 0 0 Z " fill="#034480" transform="translate(232,281)"/>
<path d="M0 0 C3.63 0 7.26 0 11 0 C11 3.63 11 7.26 11 11 C7.37 11 3.74 11 0 11 C0 7.37 0 3.74 0 0 Z " fill="#546279" transform="translate(278,235)"/>
<path d="M0 0 C3.63 0 7.26 0 11 0 C11 3.63 11 7.26 11 11 C7.37 11 3.74 11 0 11 C0 7.37 0 3.74 0 0 Z " fill="#5D6D88" transform="translate(110,169)"/>
<path d="M0 0 C3.3 0 6.6 0 10 0 C10 3.96 10 7.92 10 12 C6.7 12 3.4 12 0 12 C0 8.04 0 4.08 0 0 Z " fill="#556277" transform="translate(261,195)"/>
<path d="M0 0 C0.33 0.66 0.66 1.32 1 2 C1.639 1.99 1.639 1.99 4.875 1.938 C8.75 1.875 8.75 1.875 11 3 C11 5.97 11 8.94 11 12 C7.04 12 3.08 12 -1 12 C-1.125 2.25 -1.125 2.25 0 0 Z " fill="#47576E" transform="translate(99,155)"/>
<path d="M0 0 C2.97 0 5.94 0 9 0 C9 6.93 9 13.86 9 21 C5.7 21 2.4 21 -1 21 C-1 17.7 -1 14.4 -1 11 C1.97 11 4.94 11 8 11 C8 7.7 8 4.4 8 1 C5.36 1 2.72 1 0 1 C0 0.67 0 0.34 0 0 Z " fill="#1A1E2E" transform="translate(36,56)"/>
<path d="M0 0 C0.33 0 0.66 0 1 0 C1 1.98 1 3.96 1 6 C3.97 6 6.94 6 10 6 C10 9.3 10 12.6 10 16 C3.066 16.098 3.066 16.098 1 16 C0 15 0 15 -0.098 12.934 C-0.081 11.778 -0.081 11.778 0 6 C-3.63 6 -7.26 6 -11 6 C-11 5.67 -11 5.34 -11 5 C-7.37 5 -3.74 5 0 5 C0 3.35 0 1.7 0 0 Z " fill="#F89132" transform="translate(92,102)"/>
<path d="M0 0 C0.33 0 0.66 0 1 0 C1.114 6.766 0.88 13.288 0 20 C-3.3 20 -6.6 20 -10 20 C-10 15.71 -10 11.42 -10 7 C-9.34 7.66 -8.68 8.32 -8 9 C-5.345 9.565 -2.709 9.738 0 10 C0 6.7 0 3.4 0 0 Z " fill="#0C172B" transform="translate(87,150)"/>
<path d="M0 0 C2.97 0 5.94 0 9 0 C10.193 3.877 11 6.916 11 11 C7.37 11 3.74 11 0 11 C0 7.37 0 3.74 0 0 Z " fill="#992001" transform="translate(168,159)"/>
<path d="M0 0 C3.63 0 7.26 0 11 0 C11 3.3 11 6.6 11 10 C7.37 10 3.74 10 0 10 C0 6.7 0 3.4 0 0 Z " fill="#1560A2" transform="translate(97,304)"/>
<path d="M0 0 C3.3 0 6.6 0 10 0 C10 3.63 10 7.26 10 11 C6.7 11 3.4 11 0 11 C0 7.37 0 3.74 0 0 Z " fill="#04376B" transform="translate(243,293)"/>
<path d="M0 0 C3.63 0 7.26 0 11 0 C11 3.3 11 6.6 11 10 C7.37 10 3.74 10 0 10 C0 6.7 0 3.4 0 0 Z " fill="#EB6102" transform="translate(146,138)"/>
<path d="M0 0 C0.33 0 0.66 0 1 0 C1 6.27 1 12.54 1 19 C4.63 19 8.26 19 12 19 C12 21.97 12 24.94 12 28 C13.237 27.938 14.475 27.876 15.75 27.812 C19.482 27.793 21.204 28.419 24 31 C24.66 31 25.32 31 26 31 C26 33.97 26 36.94 26 40 C24.35 40 22.7 40 21 40 C21 37.03 21 34.06 21 31 C17.7 31 14.4 31 11 31 C11 27.37 11 23.74 11 20 C7.37 20 3.74 20 0 20 C0 13.4 0 6.8 0 0 Z " fill="#F5F5F5" transform="translate(58,108)"/>
<path d="M0 0 C3.63 0 7.26 0 11 0 C11 3.3 11 6.6 11 10 C7.37 10 3.74 10 0 10 C0 6.7 0 3.4 0 0 Z " fill="#50617C" transform="translate(199,86)"/>
<path d="M0 0 C3.63 0 7.26 0 11 0 C11 3.3 11 6.6 11 10 C7.37 10 3.74 10 0 10 C0 6.7 0 3.4 0 0 Z " fill="#4C5D73" transform="translate(144,85)"/>
<path d="M0 0 C3.63 0 7.26 0 11 0 C11 3.3 11 6.6 11 10 C7.37 10 3.74 10 0 10 C0 6.7 0 3.4 0 0 Z " fill="#070000" transform="translate(193,5)"/>
<path d="M0 0 C3.96 0 7.92 0 12 0 C12 2.97 12 5.94 12 9 C8.37 9 4.74 9 1 9 C1 8.34 1 7.68 1 7 C0.01 6.67 -0.98 6.34 -2 6 C-1.34 5.67 -0.68 5.34 0 5 C0 3.35 0 1.7 0 0 Z " fill="#6B7C97" transform="translate(96,194)"/>
<path d="M0 0 C2.97 0 5.94 0 9 0 C9 3.96 9 7.92 9 12 C6.03 12 3.06 12 0 12 C0 8.04 0 4.08 0 0 Z " fill="#030304" transform="translate(272,195)"/>
<path d="M0 0 C2.97 0 5.94 0 9 0 C9 3.96 9 7.92 9 12 C6.03 12 3.06 12 0 12 C0 8.04 0 4.08 0 0 Z " fill="#596781" transform="translate(252,171)"/>
<path d="M0 0 C0.33 0 0.66 0 1 0 C1 2.97 1 5.94 1 9 C3.64 9 6.28 9 9 9 C9 12.96 9 16.92 9 21 C6.36 21 3.72 21 1 21 C0.252 13.974 -0.138 7.066 0 0 Z " fill="#0B111F" transform="translate(253,225)"/>
<path d="M0 0 C3.3 0 6.6 0 10 0 C10 3.63 10 7.26 10 11 C6.7 10.67 3.4 10.34 0 10 C0 6.7 0 3.4 0 0 Z " fill="#48566E" transform="translate(24,99)"/>
<path d="M0 0 C3.3 0 6.6 0 10 0 C10 3.3 10 6.6 10 10 C6.7 10 3.4 10 0 10 C0 6.7 0 3.4 0 0 Z " fill="#556379" transform="translate(121,243)"/>
<path d="M0 0 C3.3 0 6.6 0 10 0 C10 3.3 10 6.6 10 10 C6.7 10 3.4 10 0 10 C0 6.7 0 3.4 0 0 Z " fill="#F87811" transform="translate(188,138)"/>
<path d="M0 0 C3.3 0 6.6 0 10 0 C10 3.3 10 6.6 10 10 C6.7 10 3.4 10 0 10 C0 6.7 0 3.4 0 0 Z " fill="#030202" transform="translate(80,118)"/>
<path d="M0 0 C2.97 0 5.94 0 9 0 C9.33 3.63 9.66 7.26 10 11 C6.7 11 3.4 11 0 11 C0 7.37 0 3.74 0 0 Z " fill="#242E41" transform="translate(13,56)"/>
<path d="M0 0 C3.63 0 7.26 0 11 0 C11 2.97 11 5.94 11 9 C7.37 9 3.74 9 0 9 C0 6.03 0 3.06 0 0 Z " fill="#59667E" transform="translate(199,245)"/>
<path d="M0 0 C2.97 0 5.94 0 9 0 C9 3.63 9 7.26 9 11 C6.03 11 3.06 11 0 11 C0 7.37 0 3.74 0 0 Z " fill="#495571" transform="translate(43,99)"/>
<path d="M0 0 C0.99 0 1.98 0 3 0 C3 0.99 3 1.98 3 3 C4.98 3 6.96 3 9 3 C9.33 5.97 9.66 8.94 10 12 C11.65 12 13.3 12 15 12 C15 18.6 15 25.2 15 32 C14.67 32 14.34 32 14 32 C13.67 26.39 13.34 20.78 13 15 C11.68 14.67 10.36 14.34 9 14 C8.34 15.98 7.68 17.96 7 20 C6.67 20 6.34 20 6 20 C5.793 14.211 6.408 9.571 8 4 C6.68 4 5.36 4 4 4 C4 5.98 4 7.96 4 10 C2.68 10 1.36 10 0 10 C0 6.7 0 3.4 0 0 Z " fill="#4F1705" transform="translate(205,5)"/>
<path d="M0 0 C0 3.3 0 6.6 0 10 C-3.3 10 -6.6 10 -10 10 C-10 7.03 -10 4.06 -10 1 C-8.536 0.835 -7.071 0.67 -5.562 0.5 C-5.151 0.454 -5.151 0.454 -3.066 0.219 C-1 0 -1 0 0 0 Z " fill="#024282" transform="translate(231,271)"/>
<path d="M0 0 C2.97 0 5.94 0 9 0 C9 3.3 9 6.6 9 10 C6.03 10 3.06 10 0 10 C0 6.7 0 3.4 0 0 Z " fill="#060606" transform="translate(281,208)"/>
<path d="M0 0 C3.3 0 6.6 0 10 0 C10 2.97 10 5.94 10 9 C6.7 9 3.4 9 0 9 C0 6.03 0 3.06 0 0 Z " fill="#BF3401" transform="translate(81,108)"/>
<path d="M0 0 C0.33 0 0.66 0 1 0 C1 1.98 1 3.96 1 6 C3.97 6 6.94 6 10 6 C10.967 9.974 11.047 13.533 10.879 17.613 C10.831 18.86 10.782 20.108 10.732 21.393 C10.676 22.686 10.62 23.98 10.562 25.312 C10.51 26.625 10.458 27.938 10.404 29.291 C10.275 32.528 10.14 35.764 10 39 C8.68 39 7.36 39 6 39 C6 41.64 6 44.28 6 47 C5.34 47.165 5.34 47.165 2 48 C1.67 47.34 1.34 46.68 1 46 C2.32 46 3.64 46 5 46 C5 43.03 5 40.06 5 37 C5.99 37 6.98 37 8 37 C7.988 35.924 7.977 34.847 7.965 33.738 C7.899 24.761 8.129 15.942 9 7 C6.03 7 3.06 7 0 7 C0 4.69 0 2.38 0 0 Z " fill="#828284" transform="translate(222,67)"/>
<path d="M0 0 C3.3 0 6.6 0 10 0 C10 2.97 10 5.94 10 9 C6.7 9 3.4 9 0 9 C0 6.03 0 3.06 0 0 Z " fill="#150300" transform="translate(211,64)"/>
<path d="M0 0 C7.26 0 14.52 0 22 0 C22 0.33 22 0.66 22 1 C18.04 1 14.08 1 10 1 C10 2.65 10 4.3 10 6 C9.67 6.66 9.34 7.32 9 8 C6.03 8 3.06 8 0 8 C0 5.36 0 2.72 0 0 Z " fill="#4D5C76" transform="translate(86,193)"/>
<path d="M0 0 C0.66 0 1.32 0 2 0 C2 0.99 2 1.98 2 3 C3.98 3 5.96 3 8 3 C8 9.6 8 16.2 8 23 C11.63 23 15.26 23 19 23 C19 25.64 19 28.28 19 31 C20.98 31 22.96 31 25 31 C25 31.99 25 32.98 25 34 C21.7 33.67 18.4 33.34 15 33 C15.66 32.34 16.32 31.68 17 31 C17.4 28.677 17.74 26.343 18 24 C14.37 24.33 10.74 24.66 7 25 C7 20.05 7 15.1 7 10 C6.34 10 5.68 10 5 10 C5 8.02 5 6.04 5 4 C3.35 3.67 1.7 3.34 0 3 C0 2.01 0 1.02 0 0 Z " fill="#BEBFBE" transform="translate(71,105)"/>
<path d="M0 0 C2.64 0 5.28 0 8 0 C8 3.96 8 7.92 8 12 C5.36 11.34 2.72 10.68 0 10 C0 6.7 0 3.4 0 0 Z " fill="#F8B86B" transform="translate(174,88)"/>
<path d="M0 0 C0 0.33 0 0.66 0 1 C-3.3 1.33 -6.6 1.66 -10 2 C-10.33 3.98 -10.66 5.96 -11 8 C-13.97 8 -16.94 8 -20 8 C-20 5.36 -20 2.72 -20 0 C-13.114 -1.016 -6.902 -0.839 0 0 Z " fill="#545F76" transform="translate(282,226)"/>
<path d="M0 0 C0.33 0 0.66 0 1 0 C1.286 3.933 1.571 7.865 1.854 11.798 C1.999 13.793 2.144 15.788 2.289 17.783 C2.379 19.037 2.47 20.29 2.562 21.582 C2.646 22.739 2.73 23.897 2.816 25.089 C2.94 27.056 3 29.029 3 31 C3.598 31.124 4.196 31.248 4.812 31.375 C7 32 7 32 10 34 C7.03 34 4.06 34 1 34 C1 37.96 1 41.92 1 46 C0.67 46 0.34 46 0 46 C0 30.82 0 15.64 0 0 Z " fill="#848487" transform="translate(271,161)"/>
<path d="M0 0 C2.31 0 4.62 0 7 0 C7 1.65 7 3.3 7 5 C3.04 5 -0.92 5 -5 5 C-5 8.3 -5 11.6 -5 15 C-11.152 15.098 -11.152 15.098 -13 15 C-14 14 -14 14 -14.098 11.934 C-14.092 11.522 -14.092 11.522 -14.062 9.438 C-14.053 8.611 -14.044 7.785 -14.035 6.934 C-14.024 6.296 -14.012 5.657 -14 5 C-16.31 5 -18.62 5 -21 5 C-21 4.67 -21 4.34 -21 4 C-17.7 4 -14.4 4 -11 4 C-11 6.97 -11 9.94 -11 13 C-9.35 13 -7.7 13 -6 13 C-6 10.03 -6 7.06 -6 4 C-2.04 4 1.92 4 6 4 C6 3.01 6 2.02 6 1 C4.02 1 2.04 1 0 1 C0 0.67 0 0.34 0 0 Z " fill="#5E6063" transform="translate(90,135)"/>
<path d="M0 0 C0.742 0.004 1.483 0.009 2.248 0.013 C2.668 0.014 2.668 0.014 4.795 0.014 C5.249 0.019 5.249 0.019 7.548 0.045 C8.477 0.048 9.407 0.051 10.364 0.054 C13.34 0.065 16.315 0.09 19.29 0.116 C21.304 0.126 23.319 0.135 25.333 0.143 C30.277 0.165 35.221 0.199 40.165 0.241 C40.165 0.901 40.165 1.561 40.165 2.241 C25.645 2.241 11.125 2.241 -3.835 2.241 C-1.835 0.241 -1.835 0.241 0 0 Z " fill="#FFFFFF" transform="translate(160.83499145507813,-0.240509033203125)"/>
<path d="M0 0 C1.65 0 3.3 0 5 0 C5 13.2 5 26.4 5 40 C4.67 40 4.34 40 4 40 C4 27.13 4 14.26 4 1 C3 2 3 2 2.902 4.066 C2.914 4.89 2.926 5.714 2.938 6.562 C2.947 7.389 2.956 8.215 2.965 9.066 C2.976 9.704 2.988 10.343 3 11 C-0.215 12.607 -3.436 12.057 -7 12 C-7.33 12.66 -7.66 13.32 -8 14 C-8 13.01 -8 12.02 -8 11 C-5.36 11 -2.72 11 0 11 C0 7.37 0 3.74 0 0 Z " fill="#B6B7B6" transform="translate(80,229)"/>
<path d="M0 0 C7.429 -0.143 7.429 -0.143 11 1 C11 3.31 11 5.62 11 8 C9.02 8.33 7.04 8.66 5 9 C5 17.58 5 26.16 5 35 C4.67 35 4.34 35 4 35 C3.942 30.458 3.906 25.917 3.875 21.375 C3.867 20.732 3.867 20.732 3.824 17.48 C3.818 16.237 3.811 14.993 3.805 13.711 C3.799 13.14 3.799 13.14 3.773 10.251 C4.009 6.864 4.79 4.16 6 1 C4.02 1 2.04 1 0 1 C0 0.67 0 0.34 0 0 Z " fill="#340B01" transform="translate(175,149)"/>
<path d="M0 0 C2.64 0 5.28 0 8 0 C8 3.3 8 6.6 8 10 C5.36 9.67 2.72 9.34 0 9 C0 6.03 0 3.06 0 0 Z " fill="#000000" transform="translate(179,304)"/>
<path d="M0 0 C4.29 0 8.58 0 13 0 C14.245 2.491 13.777 3.411 13 6 C9.621 6.285 6.368 6.456 3 6 C0 2.559 0 2.559 0 0 Z " fill="#480901" transform="translate(35,165)"/>
<path d="M0 0 C2.31 0 4.62 0 7 0 C7 3.3 7 6.6 7 10 C4.69 10.33 2.38 10.66 0 11 C0 7.37 0 3.74 0 0 Z " fill="#5B2000" transform="translate(194,17)"/>
<path d="M0 0 C0.33 0 0.66 0 1 0 C1 3.3 1 6.6 1 10 C-1.64 10 -4.28 10 -7 10 C-7 19.9 -7 29.8 -7 40 C-3.04 40 0.92 40 5 40 C5 40.33 5 40.66 5 41 C0.71 41 -3.58 41 -8 41 C-8 30.11 -8 19.22 -8 8 C-6.845 7.835 -6.845 7.835 -1 7 C-0.67 4.69 -0.34 2.38 0 0 Z " fill="#8D8E8D" transform="translate(13,139)"/>
<path d="M0 0 C2.31 0 4.62 0 7 0 C7 3.3 7 6.6 7 10 C4.69 10 2.38 10 0 10 C0 6.7 0 3.4 0 0 Z " fill="#F8B266" transform="translate(121,99)"/>
<path d="M0 0 C4.29 0 8.58 0 13 0 C13 1.65 13 3.3 13 5 C8.744 6.161 5.316 5.762 1 5 C0.67 3.35 0.34 1.7 0 0 Z " fill="#FB872F" transform="translate(174,131)"/>
<path d="M0 0 C2.64 0.33 5.28 0.66 8 1 C8 3.31 8 5.62 8 8 C5.36 8 2.72 8 0 8 C0 5.36 0 2.72 0 0 Z " fill="#210700" transform="translate(61,172)"/>
<path d="M0 0 C3.3 0 6.6 0 10 0 C10 0.33 10 0.66 10 1 C7.03 1 4.06 1 1 1 C1.144 2.013 1.289 3.026 1.438 4.07 C1.625 5.422 1.813 6.773 2 8.125 C2.095 8.79 2.191 9.455 2.289 10.141 C2.836 14.126 3.1 17.979 3 22 C5.97 22 8.94 22 12 22 C12 22.33 12 22.66 12 23 C8.04 23 4.08 23 0 23 C0 15.41 0 7.82 0 0 Z " fill="#384459" transform="translate(10,33)"/>
<path d="M0 0 C3.96 0.33 7.92 0.66 12 1 C12 1.33 12 1.66 12 2 C18.93 2.33 25.86 2.66 33 3 C33 3.33 33 3.66 33 4 C22.11 4 11.22 4 0 4 C0 2.68 0 1.36 0 0 Z " fill="#F8F9F9" transform="translate(0,20)"/>
<path d="M0 0 C0.33 0.99 0.66 1.98 1 3 C2.65 3 4.3 3 6 3 C6 5.31 6 7.62 6 10 C7.98 10 9.96 10 12 10 C12 17.26 12 24.52 12 32 C12.99 32.33 13.98 32.66 15 33 C13.68 33 12.36 33 11 33 C11 26.4 11 19.8 11 13 C9.35 13 7.7 13 6 13 C4.522 10.043 4.94 7.258 5 4 C3.35 4 1.7 4 0 4 C0 2.68 0 1.36 0 0 Z " fill="#BCACA8" transform="translate(209,4)"/>
<path d="M0 0 C0.99 0.33 1.98 0.66 3 1 C3.025 4.969 3.043 8.939 3.055 12.908 C3.06 14.259 3.067 15.61 3.075 16.962 C3.088 18.9 3.093 20.839 3.098 22.777 C3.103 23.945 3.108 25.113 3.114 26.316 C3 29 3 29 2 30 C-0.333 30.041 -2.667 30.042 -5 30 C-5 29.34 -5 28.68 -5 28 C-3.02 28 -1.04 28 1 28 C1.33 19.42 1.66 10.84 2 2 C0.68 1.67 -0.64 1.34 -2 1 C-1.34 0.67 -0.68 0.34 0 0 Z " fill="#AC968C" transform="translate(227,36)"/>
<path d="M0 0 C0.33 0 0.66 0 1 0 C1 3.3 1 6.6 1 10 C2.32 10.33 3.64 10.66 5 11 C3.02 11.33 1.04 11.66 -1 12 C-1.33 18.93 -1.66 25.86 -2 33 C-2.33 33 -2.66 33 -3 33 C-3 26.07 -3 19.14 -3 12 C-5.31 12 -7.62 12 -10 12 C-10 11.67 -10 11.34 -10 11 C-6.7 10.67 -3.4 10.34 0 10 C0 6.7 0 3.4 0 0 Z " fill="#411100" transform="translate(204,5)"/>
<path d="M0 0 C0.289 0.155 0.289 0.155 1.75 0.938 C4 2 4 2 8 3 C8 5.97 8 8.94 8 12 C6.35 12 4.7 12 3 12 C3 9.03 3 6.06 3 3 C1.68 2.34 0.36 1.68 -1 1 C-0.67 0.67 -0.34 0.34 0 0 Z " fill="#FFFFFF" transform="translate(76,136)"/>
<path d="M0 0 C0.99 0 1.98 0 3 0 C3 4.29 3 8.58 3 13 C-1.62 13 -6.24 13 -11 13 C-11 12.67 -11 12.34 -11 12 C-7.37 12 -3.74 12 0 12 C0 8.04 0 4.08 0 0 Z " fill="#270701" transform="translate(96,37)"/>
<path d="M0 0 C0 0.66 0 1.32 0 2 C2.97 2 5.94 2 9 2 C9 5.63 9 9.26 9 13 C8.34 12.67 7.68 12.34 7 12 C7.33 9.03 7.66 6.06 8 3 C2.72 3 -2.56 3 -8 3 C-7.34 2.67 -6.68 2.34 -6 2 C-6 1.34 -6 0.68 -6 0 C-2.25 -1.125 -2.25 -1.125 0 0 Z " fill="#414C5F" transform="translate(281,216)"/>
<path d="M0 0 C1.32 0 2.64 0 4 0 C4 3.63 4 7.26 4 11 C2 9.438 2 9.438 0 7 C-0.25 3.25 -0.25 3.25 0 0 Z " fill="#FCBA64" transform="translate(183,101)"/>
<path d="M0 0 C2.64 0 5.28 0 8 0 C4.25 2 4.25 2 2 2 C2 4.31 2 6.62 2 9 C4.97 9 7.94 9 11 9 C11 9.33 11 9.66 11 10 C7.37 10 3.74 10 0 10 C0 6.7 0 3.4 0 0 Z " fill="#4B576C" transform="translate(199,86)"/>
<path d="M0 0 C3.96 0 7.92 0 12 0 C12 0.66 12 1.32 12 2 C11.681 2.03 11.681 2.03 10.066 2.184 C9.653 2.225 9.653 2.225 7.562 2.438 C6.739 2.519 5.915 2.6 5.066 2.684 C3 3 3 3 2 4 C1.769 5.347 1.588 6.704 1.438 8.062 C1.293 9.362 1.149 10.661 1 12 C0.67 12 0.34 12 0 12 C0 8.04 0 4.08 0 0 Z " fill="#3A1006" transform="translate(98,14)"/>
<path d="M0 0 C0.33 0.66 0.66 1.32 1 2 C2.65 2 4.3 2 6 2 C6 8.6 6 15.2 6 22 C5.67 22 5.34 22 5 22 C4.67 16.39 4.34 10.78 4 5 C2.68 4.67 1.36 4.34 0 4 C0 2.68 0 1.36 0 0 Z " fill="#551C10" transform="translate(214,15)"/>
<path d="M0 0 C2 2 2 2 2.125 5.625 C2.084 6.739 2.043 7.853 2 9 C3.65 9 5.3 9 7 9 C7 9.66 7 10.32 7 11 C4.69 11 2.38 11 0 11 C0 7.37 0 3.74 0 0 Z " fill="#D45705" transform="translate(254,282)"/>
<path d="M0 0 C2.64 0 5.28 0 8 0 C7.67 0.165 7.67 0.165 6 1 C6.33 2.32 6.66 3.64 7 5 C4.625 5.125 4.625 5.125 2 5 C1.34 4.34 0.68 3.68 0 3 C0 2.01 0 1.02 0 0 Z " fill="#260401" transform="translate(36,166)"/>
<path d="M0 0 C3 3 3 3 3.5 5.562 C4 8 4 8 7 10 C4.69 10 2.38 10 0 10 C0 6.7 0 3.4 0 0 Z " fill="#FAA548" transform="translate(81,97)"/>
<path d="M0 0 C2.97 0 5.94 0 9 0 C9 0.33 9 0.66 9 1 C7.02 1.33 5.04 1.66 3 2 C2.67 4.64 2.34 7.28 2 10 C1.34 10 0.68 10 0 10 C0 6.7 0 3.4 0 0 Z " fill="#F49633" transform="translate(132,159)"/>
<path d="M0 0 C0.66 0 1.32 0 2 0 C2 0.99 2 1.98 2 3 C3.98 3 5.96 3 8 3 C7.67 5.31 7.34 7.62 7 10 C6.34 10 5.68 10 5 10 C5 8.02 5 6.04 5 4 C3.35 3.67 1.7 3.34 0 3 C0 2.01 0 1.02 0 0 Z " fill="#E3E3E3" transform="translate(71,105)"/>
<path d="M0 0 C1.32 0 2.64 0 4 0 C4.125 2.875 4.125 2.875 4 6 C3.34 6.66 2.68 7.32 2 8 C2 7.34 2 6.68 2 6 C1.34 6 0.68 6 0 6 C0 4.02 0 2.04 0 0 Z " fill="#2B0801" transform="translate(209,9)"/>
<path d="M0 0 C0.33 0 0.66 0 1 0 C1 3.3 1 6.6 1 10 C2.32 10.33 3.64 10.66 5 11 C3.02 11.33 1.04 11.66 -1 12 C-1.33 12.99 -1.66 13.98 -2 15 C-2 13.35 -2 11.7 -2 10 C-1.34 10 -0.68 10 0 10 C0 6.7 0 3.4 0 0 Z " fill="#2B0800" transform="translate(204,5)"/>
<path d="M0 0 C0.99 0.33 1.98 0.66 3 1 C3.125 6.75 3.125 6.75 2 9 C1.34 9 0.68 9 0 9 C0 6.03 0 3.06 0 0 Z " fill="#962000" transform="translate(81,108)"/>
<path d="M0 0 C3.688 0.312 3.688 0.312 7 1 C7 1.99 7 2.98 7 4 C3.7 3.67 0.4 3.34 -3 3 C-2.01 2.01 -1.02 1.02 0 0 Z " fill="#FBFBFB" transform="translate(89,135)"/>
<path d="M0 0 C0.99 0 1.98 0 3 0 C3 3.3 3 6.6 3 10 C2.34 10 1.68 10 1 10 C0.67 6.7 0.34 3.4 0 0 Z " fill="#E35201" transform="translate(154,138)"/>
<path d="M0 0 C0 0.33 0 0.66 0 1 C-6.213 1.73 -11.841 2.232 -18 1 C-18 0.67 -18 0.34 -18 0 C-11.841 -1.232 -6.213 -0.73 0 0 Z " fill="#4B576C" transform="translate(282,226)"/>
<path d="M0 0 C0.66 0.165 0.66 0.165 4 1 C2.35 1.33 0.7 1.66 -1 2 C-0.67 1.34 -0.34 0.68 0 0 Z " fill="#FFFFFF" transform="translate(131,0)"/>
<path d="M0 0 C2.31 0 4.62 0 7 0 C7 0.33 7 0.66 7 1 C4.69 1 2.38 1 0 1 C0 0.67 0 0.34 0 0 Z " fill="#FFFFFF" transform="translate(0,378)"/>
<path d="" fill="#FFFFFF" transform="translate(0,0)"/>
<path d="M0 0 C2 1 2 1 2 1 Z " fill="#FFFFFF" transform="translate(303,253)"/>
<path d="" fill="#FFFFFF" transform="translate(0,0)"/>
<path d="M0 0 C2 1 2 1 2 1 Z " fill="#FFFFFF" transform="translate(154,1)"/>
<path d="M0 0 C2 1 2 1 2 1 Z " fill="#FFFFFF" transform="translate(0,0)"/>
<path d="" fill="#FFFFFF" transform="translate(0,0)"/>
<path d="" fill="#FFFFFF" transform="translate(0,0)"/>
<path d="" fill="#FFFFFF" transform="translate(0,0)"/>
</svg>
