<svg xmlns="http://www.w3.org/2000/svg" viewBox="0 0 768 768" fill="none" shape-rendering="auto"><metadata xmlns:rdf="http://www.w3.org/1999/02/22-rdf-syntax-ns#" xmlns:xsi="http://www.w3.org/2001/XMLSchema-instance" xmlns:dc="http://purl.org/dc/elements/1.1/" xmlns:dcterms="http://purl.org/dc/terms/"><rdf:RDF><rdf:Description><dc:title>ToonHead</dc:title><dc:creator>Johan Melin</dc:creator><dc:source xsi:type="dcterms:URI">https://www.figma.com/community/file/1589627891082866389</dc:source><dcterms:license xsi:type="dcterms:URI">https://creativecommons.org/licenses/by/4.0/</dcterms:license><dc:rights>Remix of „ToonHead” (https://www.figma.com/community/file/1589627891082866389) by „Johan Melin”, licensed under „CC BY 4.0” (https://creativecommons.org/licenses/by/4.0/)</dc:rights></rdf:Description></rdf:RDF></metadata><mask id="viewboxMask"><rect width="768" height="768" rx="0" ry="0" x="0" y="0" fill="#fff" /></mask><g mask="url(#viewboxMask)"><g transform="translate(0 10)"></g><path d="M432.5 556.5v69.45l.4.07c120.31 22.8 211.36 128.92 211.6 256.48h-520c.24-127.56 91.29-233.7 211.6-256.48l.4-.07V556.5z" fill="#f1c3a5" stroke="black"/><path d="M336 556h97v37s-30.58 9.4-49 9.5c-19.59.1-48-9.5-48-9.5z" fill="black" fill-opacity="0.2"/><path d="M191.5 452.5c-20-77.5 33.5-50 33.5-50C189.18 286.68 217 140 384 140s194.82 146.68 159 262.5c0 0 53.5-27.5 33.5 50-11.1 43-51 43-51 43C519.57 545.9 434 591 384 591s-135.57-45.1-141.5-95.5c0 0-39.9 0-51-43Z" fill="#f1c3a5" stroke="black"/><path d="M202.22 410c19.81-10.14 38.7 54.5 30 69-16.5 8.5-55-56.21-30-69m363.96 0c-19.82-10.14-38.7 54.5-30 69 16.5 8.5 55-56.21 30-69M384 469.5c-7.81 0-18-7.5-16-9.5 2-3 8.19 3 16 3s14-6 16-3c1.81 2.17-8.19 9.5-16 9.5" fill="black" fill-opacity="0.2"/><path d="M167.5 722.71c-43.73 58.54-52.5 169.5-52.5 169.5h553s-21.02-104.28-54-157.5c-43.09-69.52-139-102.5-157-107s.49-32.12-8.5-38c-5.88-3.85-12.5 0-12.5 0s-28.43 23.5-50.5 23.5c-22.06 0-49-23.5-49-23.5s-9.5-2.64-14.5 0c-9.5 5 5 35.5-9.5 38-19.79 3.41-103.5 39.43-145 95Z" fill="#147f3c" stroke="black"/><path d="M384.5 641.21c-24.5 0-68.5-15.5-68.5-15.5s43.23 24.5 68.5 24.5 67-26.5 67-26.5-42.5 17.5-67 17.5" fill="black" fill-opacity="0.2"/><path d="M443 515.1c-5.6-6.78-14.7-8.64-23-10.2-6.89-1.3-14.02-.8-21-.8-16.38 0-33.36 1.28-49 6.69-8.06 2.78-19.39 6.74-24 14.3 4.88-1.4 9.12-4.3 14-5.7 14.38-4.1 29.32-4.07 44-5.47 12.54-1.2 25.36-4.6 38-3.74 7.36.5 13.98 3 21 4.9" fill="#3F2626" fill-opacity="0.5"/><path d="m274.5 407.9-4.25-11c27.75 0 40.74-15.53 64.25 0 16.64 11 14.5 21.76 14.5 21.76s-2.75-16.93-41-16.93c-22.71 0-28 19-47 10zm218.59 0 4.23-11c-27.75 0-40.74-15.53-64.25 0-16.64 11-14.5 21.76-14.5 21.76s2.75-16.93 41-16.93c22.71 0 28 19 47 10z" fill="#4B2422"/><g fill="#2c1b18"><path d="M302.87 328.48c14.96-3.04 24.47-23.2 36.31-14.78s-18.13 31.2-35.4 33.54c-14.8 2.02-39.28-5.72-37.33-8.45 1.94-2.74 21.93-7.37 36.42-10.3m163.35 0c-14.97-3.05-24.48-23.2-36.32-14.79s18.14 31.2 35.4 33.54c14.81 2.02 39.28-5.72 37.34-8.45-1.94-2.74-21.94-7.37-36.43-10.3"/><path d="M302.87 328.48c14.96-3.04 24.47-23.2 36.31-14.78s-18.13 31.2-35.4 33.54c-14.8 2.02-39.28-5.72-37.33-8.45 1.94-2.74 21.93-7.37 36.42-10.3Zm163.35 0c-14.97-3.04-24.48-23.2-36.32-14.78s18.14 31.2 35.4 33.54c14.81 2.02 39.28-5.72 37.34-8.45-1.94-2.74-21.94-7.37-36.43-10.3Z" stroke="black"/></g><path d="m214.5 399 11 4s-11.76-36.7 2.5-65.5c5.61-11.34 13.42-14.69 20-25.5 14.69-24.12-1.13-50.76 20-69.5 30.84-27.35 62.97 14.07 104 18 51.5 4.93 105.34-44.04 132.5 0 9.42 15.28 4.06 28.16 11.5 44.5 6.26 13.75 21 32.5 21 32.5l4 66 9.5-4.5c4.33-27.17 13-82.6 13-87s20.67-19.83 39.5-27h-23c12.33-22.5 37.6-69.4 40-77s-18.67 3.17-29.5 9.5c0 0 16.6-20.98 21-37 4.76-17.32 0-46 0-46l-31.5 17 10.5-59-27 11.5 7-65S540.8 69.5 516 77.5c-25.46 8.2-68.5 0-68.5 0l13-30-98 37.5V47.5l-58 37.5V61s-27.5 17.01-42 31.5C246.28 108.7 228 140 228 140l-35.5-24.5 5 77-38-12s2.08 24.06 9.5 37c5.1 8.9 17 20 17 20l-26.5 23h38l-21 35h21z" fill="#2c1b18" stroke="black"/></g></svg>